<?xml version="1.0" encoding="UTF-8"?>
<svg xmlns="http://www.w3.org/2000/svg" xmlns:xlink="http://www.w3.org/1999/xlink" width="936px" height="352px" viewBox="0 0 702 264" version="1.1">
<g id="surface1">
<path style=" stroke:none;fill-rule:nonzero;fill:rgb(0%,0%,0%);fill-opacity:1;" d="M 0 0 C 231.660156 0 463.320312 0 702 0 C 702 87.121094 702 174.238281 702 264 C 470.339844 264 238.679688 264 0 264 C 0 176.878906 0 89.761719 0 0 Z M 0 0 "/>
<path style=" stroke:none;fill-rule:nonzero;fill:rgb(97.254902%,97.254902%,97.254902%);fill-opacity:1;" d="M 396.9375 33.28125 C 397.472656 33.328125 398.007812 33.375 398.558594 33.425781 C 404.066406 33.921875 409.492188 34.582031 414.925781 35.636719 C 419.070312 36.359375 423.265625 36.710938 427.453125 37.125 C 433.277344 37.703125 439.03125 38.386719 444.800781 39.390625 C 448.5625 40.003906 452.351562 40.378906 456.140625 40.78125 C 465.902344 41.859375 475.570312 43.363281 485.25 45 C 486.167969 45.152344 487.082031 45.304688 488.027344 45.460938 C 488.597656 45.558594 489.164062 45.652344 489.75 45.75 C 487.597656 46.9375 485.734375 47.539062 483.3125 47.921875 C 482.621094 48.03125 481.933594 48.144531 481.226562 48.257812 C 480.480469 48.375 479.734375 48.488281 478.96875 48.609375 C 477.359375 48.867188 475.753906 49.125 474.148438 49.386719 C 473.285156 49.523438 472.421875 49.660156 471.535156 49.800781 C 467.089844 50.515625 462.648438 51.261719 458.207031 52.007812 C 454.222656 52.671875 450.234375 53.335938 446.25 54 C 446.8125 53.976562 447.378906 53.957031 447.960938 53.933594 C 462.929688 53.359375 477.878906 53.128906 492.859375 53.152344 C 495.71875 53.15625 498.578125 53.152344 501.4375 53.148438 C 533.351562 53.109375 533.351562 53.109375 547.6875 55.546875 C 548.550781 55.6875 549.414062 55.828125 550.300781 55.96875 C 552.367188 56.304688 554.433594 56.648438 556.5 57 C 556.109375 59.453125 555.914062 60.5625 554.25 62.484375 C 550.0625 64.839844 545.886719 63.902344 541.3125 63.09375 C 525.011719 60.253906 508.65625 60.542969 492.171875 60.601562 C 489.433594 60.613281 486.695312 60.609375 483.953125 60.609375 C 481.285156 60.609375 478.613281 60.613281 475.941406 60.621094 C 474.683594 60.621094 473.421875 60.625 472.160156 60.625 C 465.6875 60.632812 459.277344 60.738281 452.824219 61.324219 C 449.996094 61.5625 447.167969 61.640625 444.332031 61.71875 C 432.570312 62.046875 420.890625 63.054688 409.175781 64.082031 C 403.039062 64.613281 396.898438 65.050781 390.75 65.449219 C 386.816406 65.722656 382.949219 66.132812 379.050781 66.722656 C 371.988281 67.777344 364.882812 68.234375 357.765625 68.757812 C 349.300781 69.371094 349.300781 69.371094 340.894531 70.496094 C 334.582031 71.542969 328.21875 71.945312 321.84375 72.421875 C 319.984375 72.5625 318.125 72.707031 316.265625 72.851562 C 315.117188 72.9375 313.972656 73.027344 312.824219 73.109375 C 310.414062 73.296875 308.0625 73.527344 305.667969 73.898438 C 302.449219 74.324219 299.296875 74.386719 296.054688 74.402344 C 295.386719 74.40625 294.71875 74.414062 294.027344 74.417969 C 291.847656 74.429688 289.664062 74.433594 287.484375 74.4375 C 286.355469 74.441406 286.355469 74.441406 285.207031 74.441406 C 275.203125 74.453125 265.332031 74.101562 255.375 73.125 C 246.050781 72.21875 236.808594 71.75 227.4375 71.71875 C 226.871094 71.714844 226.300781 71.707031 225.71875 71.703125 C 199.867188 71.488281 173.074219 82.203125 151.160156 95.394531 C 146.75 97.945312 143.847656 98.699219 138.75 98.25 C 139.832031 95.488281 141.03125 94.570312 143.644531 93.226562 C 144.6875 92.683594 144.6875 92.683594 145.753906 92.128906 C 146.503906 91.75 147.257812 91.375 148.03125 90.984375 C 149.191406 90.390625 149.191406 90.390625 150.378906 89.785156 C 164.90625 82.433594 179.992188 75.511719 195.75 71.25 C 196.304688 71.09375 196.859375 70.9375 197.429688 70.777344 C 206.210938 68.378906 214.453125 67.203125 223.566406 67.476562 C 224.476562 67.503906 225.382812 67.527344 226.320312 67.554688 C 230.050781 67.679688 233.777344 67.824219 237.503906 68.03125 C 251.566406 68.757812 260.644531 66.667969 272.496094 58.988281 C 275.796875 56.949219 279.28125 55.3125 282.796875 53.671875 C 283.480469 53.351562 284.164062 53.03125 284.871094 52.703125 C 290.328125 50.160156 295.851562 47.839844 301.5 45.75 C 302.046875 45.542969 302.59375 45.339844 303.15625 45.128906 C 315.832031 40.398438 328.777344 36.878906 342.046875 34.265625 C 342.644531 34.144531 343.238281 34.027344 343.855469 33.902344 C 361.140625 30.683594 379.496094 31.714844 396.9375 33.28125 Z M 396.9375 33.28125 "/>
<path style=" stroke:none;fill-rule:nonzero;fill:rgb(0.392157%,0.392157%,0.392157%);fill-opacity:1;" d="M 436.5 62.25 C 436.5 62.992188 436.5 63.734375 436.5 64.5 C 436.949219 64.714844 437.398438 64.933594 437.859375 65.15625 C 439.5 66 439.5 66 441.75 67.5 C 441.292969 69.691406 440.617188 71.34375 439.4375 73.246094 C 439.109375 73.78125 438.78125 74.316406 438.441406 74.867188 C 438.09375 75.421875 437.746094 75.976562 437.390625 76.546875 C 437.074219 77.058594 436.761719 77.570312 436.4375 78.09375 C 435.722656 79.25 434.988281 80.394531 434.242188 81.53125 C 433.054688 83.5 432.078125 85.398438 431.101562 87.46875 C 426.335938 96.984375 426.335938 96.984375 422.054688 99.078125 C 417.195312 100.386719 412.207031 100.117188 407.21875 99.988281 C 405.550781 99.996094 403.886719 100.007812 402.21875 100.03125 C 397.714844 100.066406 393.210938 100.011719 388.707031 99.941406 C 383.980469 99.878906 379.257812 99.894531 374.535156 99.898438 C 366.601562 99.894531 358.675781 99.832031 350.746094 99.738281 C 342.597656 99.636719 334.457031 99.589844 326.308594 99.597656 C 325.808594 99.597656 325.304688 99.597656 324.789062 99.601562 C 324.039062 99.601562 324.039062 99.601562 323.269531 99.601562 C 314.445312 99.609375 305.621094 99.574219 296.796875 99.515625 C 293.046875 99.492188 289.296875 99.480469 285.546875 99.480469 C 281.128906 99.472656 276.714844 99.429688 272.296875 99.359375 C 270.679688 99.339844 269.0625 99.332031 267.445312 99.335938 C 254.585938 99.367188 254.585938 99.367188 250.964844 96.609375 C 249.109375 94.753906 247.59375 92.828125 246 90.75 C 238.617188 84.78125 229.328125 81.820312 219.824219 82.214844 C 209.597656 83.464844 201.375 86.71875 194.667969 94.636719 C 191.679688 97.648438 189.761719 98.785156 185.519531 99.101562 C 183.652344 99.101562 181.789062 99.058594 179.921875 98.984375 C 178.9375 98.972656 177.949219 98.960938 176.929688 98.949219 C 174.328125 98.921875 171.726562 98.847656 169.125 98.765625 C 166.460938 98.6875 163.796875 98.652344 161.128906 98.617188 C 155.917969 98.535156 150.710938 98.410156 145.5 98.25 C 148.371094 95.902344 151.269531 93.980469 154.546875 92.25 C 155.082031 91.96875 155.617188 91.683594 156.167969 91.394531 C 161.578125 88.605469 167.144531 86.167969 172.734375 83.765625 C 173.609375 83.386719 174.484375 83.011719 175.386719 82.621094 C 180.847656 80.304688 186.34375 78.28125 192 76.5 C 192.863281 76.222656 192.863281 76.222656 193.742188 75.941406 C 195.265625 75.457031 196.796875 74.992188 198.328125 74.53125 C 198.8125 74.378906 199.300781 74.226562 199.800781 74.070312 C 208.832031 71.363281 217.941406 70.976562 227.296875 71.015625 C 227.898438 71.015625 228.496094 71.015625 229.117188 71.015625 C 237.929688 71.027344 246.609375 71.519531 255.375 72.375 C 277.683594 74.523438 300.160156 74.402344 322.390625 71.535156 C 326.261719 71.066406 330.144531 70.765625 334.03125 70.453125 C 338.523438 70.082031 342.976562 69.652344 347.4375 69 C 353.582031 68.117188 359.757812 67.734375 365.949219 67.339844 C 370.035156 67.066406 374.050781 66.695312 378.09375 66.054688 C 385.949219 64.875 393.878906 64.417969 401.796875 63.855469 C 404.570312 63.65625 407.339844 63.449219 410.109375 63.242188 C 418.917969 62.597656 427.667969 62 436.5 62.25 Z M 436.5 62.25 "/>
<path style=" stroke:none;fill-rule:nonzero;fill:rgb(99.607843%,8.627451%,8.627451%);fill-opacity:1;" d="M 437.25 63.75 C 440.542969 64.25 443.234375 65.390625 446.25 66.75 C 445.207031 69.726562 443.800781 71.9375 441.890625 74.4375 C 439.695312 77.390625 437.832031 80.300781 436.117188 83.546875 C 434.261719 86.792969 432.136719 89.863281 430.042969 92.960938 C 428.277344 95.535156 428.277344 95.535156 426.75 98.25 C 471.300781 98.25 515.851562 98.25 561.75 98.25 C 554.683594 86.679688 554.683594 86.679688 547.359375 75.28125 C 546.859375 74.519531 546.359375 73.757812 545.847656 72.972656 C 544.648438 71.148438 543.449219 69.324219 542.25 67.5 C 544.566406 65.957031 545.03125 65.820312 547.640625 65.90625 C 548.585938 65.9375 549.527344 65.96875 550.5 66 C 552.75 70.3125 552.75 70.3125 552.75 72 C 552.253906 72 551.761719 72 551.25 72 C 551.960938 73.601562 552.671875 75.199219 553.382812 76.800781 C 553.996094 78.171875 554.609375 79.546875 555.214844 80.921875 C 556.582031 83.984375 557.949219 87.003906 559.617188 89.914062 C 563.871094 97.429688 563.25 99.699219 563.25 109.5 C 422.917969 109.5 282.585938 109.5 138 109.5 C 138 105.789062 138 102.074219 138 98.25 C 139.546875 98.269531 141.09375 98.289062 142.6875 98.3125 C 147.828125 98.375 152.96875 98.390625 158.109375 98.382812 C 161.222656 98.382812 164.332031 98.394531 167.445312 98.441406 C 170.457031 98.488281 173.464844 98.492188 176.476562 98.472656 C 177.621094 98.46875 178.761719 98.484375 179.90625 98.511719 C 185.402344 98.636719 189.933594 98.578125 194.109375 94.605469 C 195.121094 93.527344 196.078125 92.402344 197.03125 91.273438 C 202.644531 84.675781 211.523438 82.488281 219.828125 81.460938 C 229.855469 81.058594 239.09375 84.347656 246.75 90.75 C 247.117188 91.289062 247.488281 91.824219 247.867188 92.378906 C 249.859375 95.003906 251.777344 97.070312 255.074219 97.894531 C 259.984375 98.546875 264.949219 98.390625 269.894531 98.335938 C 271.574219 98.339844 273.25 98.347656 274.929688 98.359375 C 279.472656 98.382812 284.019531 98.363281 288.5625 98.335938 C 293.316406 98.316406 298.070312 98.332031 302.824219 98.34375 C 310.796875 98.363281 318.773438 98.355469 326.746094 98.328125 C 334.960938 98.304688 343.171875 98.292969 351.382812 98.300781 C 352.140625 98.300781 352.140625 98.300781 352.917969 98.300781 C 355.460938 98.304688 358.003906 98.308594 360.546875 98.308594 C 381.613281 98.332031 402.683594 98.308594 423.75 98.25 C 423.976562 97.667969 424.203125 97.085938 424.433594 96.488281 C 425.28125 94.421875 426.300781 92.6875 427.507812 90.8125 C 427.953125 90.121094 428.398438 89.425781 428.859375 88.707031 C 429.554688 87.628906 429.554688 87.628906 430.265625 86.53125 C 430.714844 85.832031 431.164062 85.128906 431.628906 84.40625 C 432.078125 83.707031 432.53125 83.003906 432.992188 82.28125 C 433.441406 81.582031 433.894531 80.882812 434.355469 80.160156 C 435.316406 78.667969 436.289062 77.1875 437.261719 75.707031 C 437.742188 74.972656 438.222656 74.238281 438.71875 73.484375 C 439.15625 72.820312 439.59375 72.15625 440.042969 71.472656 C 441.183594 69.75 441.183594 69.75 441 67.5 C 439.171875 65.484375 439.171875 65.484375 437.25 63.75 Z M 437.25 63.75 "/>
<path style=" stroke:none;fill-rule:nonzero;fill:rgb(100%,8.627451%,8.627451%);fill-opacity:1;" d="M 138.75 119.25 C 278.835938 119.25 418.921875 119.25 563.25 119.25 C 563.25 122.714844 563.25 126.179688 563.25 129.75 C 423.164062 129.75 283.078125 129.75 138.75 129.75 C 138.75 126.285156 138.75 122.820312 138.75 119.25 Z M 138.75 119.25 "/>
<path style=" stroke:none;fill-rule:nonzero;fill:rgb(1.568628%,1.568628%,1.568628%);fill-opacity:1;" d="M 361.488281 40.304688 C 363.425781 40.3125 365.363281 40.304688 367.300781 40.296875 C 373.726562 40.289062 380.078125 40.511719 386.472656 41.175781 C 387.042969 41.234375 387.617188 41.292969 388.207031 41.351562 C 392.785156 41.875 397.085938 42.917969 401.515625 44.207031 C 404.300781 45.015625 407.097656 45.691406 409.921875 46.359375 C 414.988281 47.59375 419.953125 49.097656 424.921875 50.671875 C 425.617188 50.890625 426.3125 51.113281 427.03125 51.335938 C 430.785156 52.546875 434.40625 53.878906 438 55.5 C 438 55.746094 438 55.996094 438 56.25 C 437.058594 56.328125 436.113281 56.40625 435.140625 56.488281 C 413.253906 58.285156 413.253906 58.285156 391.425781 60.644531 C 383.855469 61.558594 376.265625 62.222656 368.671875 62.90625 C 357.460938 63.917969 346.285156 65.089844 335.109375 66.421875 C 284.828125 72.363281 284.828125 72.363281 264 69.75 C 264 69.007812 264 68.265625 264 67.5 C 271.152344 63.542969 278.375 60.03125 285.894531 56.835938 C 287.835938 55.996094 289.742188 55.089844 291.65625 54.1875 C 294.773438 52.757812 297.878906 51.722656 301.179688 50.804688 C 302.957031 50.261719 304.585938 49.589844 306.28125 48.84375 C 312.425781 46.308594 319.035156 44.976562 325.5 43.5 C 326.03125 43.371094 326.5625 43.242188 327.113281 43.109375 C 338.34375 40.582031 350.019531 40.246094 361.488281 40.304688 Z M 361.488281 40.304688 "/>
<path style=" stroke:none;fill-rule:nonzero;fill:rgb(96.078432%,96.078432%,96.078432%);fill-opacity:1;" d="M 338.25 144 C 338.25 146.96875 338.25 149.941406 338.25 153 C 337.753906 153 337.261719 153 336.75 153 C 336.75 152.503906 336.75 152.011719 336.75 151.5 C 326.371094 148.882812 326.371094 148.882812 315.75 147.75 C 315.164062 147.710938 314.582031 147.671875 313.976562 147.632812 C 304.976562 147.277344 295.496094 149.394531 288 154.5 C 285.621094 156.960938 284.582031 158.558594 284.625 162 C 284.617188 162.617188 284.609375 163.238281 284.601562 163.875 C 285.144531 166.429688 286.1875 167.636719 288 169.5 C 292.851562 172.609375 298.042969 174.71875 303.75 175.5 C 304.339844 175.582031 304.933594 175.664062 305.542969 175.75 C 313.808594 176.722656 321.21875 176.371094 329.25 174 C 330.691406 172.710938 330.691406 172.710938 330.75 167.25 C 322.582031 167.25 314.414062 167.25 306 167.25 C 306 167.746094 306 168.238281 306 168.75 C 305.503906 168.75 305.011719 168.75 304.5 168.75 C 304.5 165.285156 304.5 161.820312 304.5 158.25 C 304.996094 158.25 305.488281 158.25 306 158.25 C 306.371094 158.992188 306.371094 158.992188 306.75 159.75 C 310.753906 159.785156 314.757812 159.8125 318.761719 159.832031 C 320.125 159.839844 321.484375 159.851562 322.847656 159.863281 C 324.804688 159.882812 326.765625 159.890625 328.722656 159.898438 C 329.632812 159.90625 329.632812 159.90625 330.566406 159.921875 C 333.730469 159.921875 335.351562 159.699219 338.25 158.25 C 338.25 165.425781 338.25 172.605469 338.25 180 C 320.6875 184.84375 301.871094 185.503906 285.449219 176.726562 C 281.1875 174.042969 277.589844 170.617188 276 165.75 C 275.535156 161.871094 275.472656 158.644531 277.125 155.0625 C 292.78125 137.839844 317.214844 138.261719 338.25 144 Z M 338.25 144 "/>
<path style=" stroke:none;fill-rule:nonzero;fill:rgb(96.470588%,96.470588%,96.470588%);fill-opacity:1;" d="M 459.75 143.25 C 463.957031 143.25 468.164062 143.25 472.5 143.25 C 472.871094 145.105469 472.871094 145.105469 473.25 147 C 474.460938 148.984375 474.460938 148.984375 476.0625 150.984375 C 476.355469 151.367188 476.652344 151.746094 476.953125 152.140625 C 477.960938 153.433594 478.980469 154.71875 480 156 C 480.375 156.476562 480.753906 156.953125 481.140625 157.441406 C 485.921875 163.472656 490.828125 169.328125 496.097656 174.941406 C 498.296875 177.320312 500.390625 179.789062 502.5 182.25 C 497.796875 182.25 493.09375 182.25 488.25 182.25 C 488.496094 181.261719 488.746094 180.269531 489 179.25 C 481.863281 172.320312 471.019531 168.871094 461.25 168 C 460.609375 167.925781 459.96875 167.851562 459.308594 167.773438 C 455.429688 167.503906 452.875 167.625 449.8125 170.15625 C 446.660156 173.328125 444.164062 177 441.75 180.75 C 442.863281 181.121094 442.863281 181.121094 444 181.5 C 444 181.746094 444 181.996094 444 182.25 C 439.050781 182.25 434.101562 182.25 429 182.25 C 429.75 180.75 429.75 180.75 431.761719 179.890625 C 435.035156 178.0625 436.640625 175.742188 438.796875 172.734375 C 439.652344 171.578125 440.507812 170.425781 441.363281 169.273438 C 441.796875 168.6875 442.234375 168.101562 442.679688 167.496094 C 444.75 164.757812 446.925781 162.117188 449.109375 159.46875 C 456.191406 152.03125 456.191406 152.03125 459.75 143.25 Z M 459.75 143.25 "/>
<path style=" stroke:none;fill-rule:nonzero;fill:rgb(96.470588%,96.470588%,96.470588%);fill-opacity:1;" d="M 164.25 143.25 C 168.457031 143.25 172.664062 143.25 177 143.25 C 177.371094 145.105469 177.371094 145.105469 177.75 147 C 178.921875 148.710938 180.09375 150.28125 181.40625 151.875 C 181.773438 152.332031 182.140625 152.789062 182.519531 153.261719 C 185.707031 157.203125 188.984375 161.070312 192.277344 164.921875 C 194.152344 167.117188 195.960938 169.359375 197.765625 171.609375 C 200.308594 174.746094 203.003906 177.617188 205.925781 180.40625 C 207 181.5 207 181.5 207 182.25 C 202.296875 182.25 197.59375 182.25 192.75 182.25 C 192.996094 181.011719 193.246094 179.773438 193.5 178.5 C 183.539062 171.007812 171.421875 167.957031 159.085938 167.628906 C 155.148438 168.550781 152.757812 172.027344 150.46875 175.125 C 149.671875 176.179688 149.671875 176.179688 148.859375 177.257812 C 147.40625 179.332031 147.40625 179.332031 148.5 182.25 C 143.796875 182.25 139.09375 182.25 134.25 182.25 C 136.5 180 136.5 180 138.273438 178.65625 C 140.558594 176.742188 142.300781 174.578125 144.09375 172.21875 C 144.820312 171.273438 145.550781 170.332031 146.28125 169.390625 C 146.832031 168.667969 146.832031 168.667969 147.394531 167.933594 C 148.789062 166.128906 150.195312 164.335938 151.605469 162.542969 C 152.285156 161.683594 152.960938 160.820312 153.636719 159.957031 C 155.441406 157.644531 157.269531 155.355469 159.128906 153.085938 C 159.515625 152.609375 159.902344 152.128906 160.300781 151.640625 C 161.042969 150.71875 161.792969 149.804688 162.550781 148.898438 C 163.679688 147.535156 163.679688 147.535156 165 145.5 C 164.628906 144.386719 164.628906 144.386719 164.25 143.25 Z M 164.25 143.25 "/>
<path style=" stroke:none;fill-rule:nonzero;fill:rgb(95.686275%,95.686275%,95.686275%);fill-opacity:1;" d="M 504.75 143.25 C 508.214844 143.25 511.679688 143.25 515.25 143.25 C 515.003906 143.992188 514.753906 144.734375 514.5 145.5 C 515.304688 145.546875 516.109375 145.59375 516.9375 145.640625 C 531.519531 147.492188 544.714844 159.085938 555.75 168 C 555.769531 164.714844 555.78125 161.433594 555.792969 158.148438 C 555.796875 157.03125 555.800781 155.914062 555.804688 154.796875 C 555.816406 153.191406 555.820312 151.585938 555.824219 149.984375 C 555.828125 148.53125 555.828125 148.53125 555.835938 147.054688 C 555.910156 144.816406 555.910156 144.816406 555 143.25 C 558.464844 143.25 561.929688 143.25 565.5 143.25 C 565.5 143.746094 565.5 144.238281 565.5 144.75 C 565.003906 144.75 564.511719 144.75 564 144.75 C 564 156.878906 564 169.003906 564 181.5 C 564.496094 181.746094 564.988281 181.996094 565.5 182.25 C 562.035156 182.25 558.570312 182.25 555 182.25 C 555.496094 182.003906 555.988281 181.753906 556.5 181.5 C 547.871094 168.789062 532.183594 157.640625 517.25 154.027344 C 516.050781 153.734375 516.050781 153.734375 514.828125 153.4375 C 514.226562 153.292969 513.621094 153.148438 513 153 C 513.089844 156.925781 513.183594 160.847656 513.277344 164.773438 C 513.3125 166.109375 513.34375 167.445312 513.371094 168.78125 C 513.417969 170.699219 513.464844 172.617188 513.511719 174.53125 C 513.523438 175.132812 513.539062 175.730469 513.550781 176.347656 C 513.566406 179.398438 513.566406 179.398438 514.5 182.25 C 511.28125 182.25 508.066406 182.25 504.75 182.25 C 504.996094 181.753906 505.246094 181.261719 505.5 180.75 C 505.570312 179.601562 505.597656 178.449219 505.597656 177.296875 C 505.597656 176.582031 505.601562 175.867188 505.605469 175.128906 C 505.601562 174.355469 505.601562 173.578125 505.601562 172.78125 C 505.601562 171.988281 505.601562 171.195312 505.601562 170.378906 C 505.601562 168.699219 505.601562 167.019531 505.597656 165.339844 C 505.59375 162.761719 505.597656 160.183594 505.601562 157.605469 C 505.601562 155.976562 505.601562 154.347656 505.601562 152.71875 C 505.601562 151.945312 505.601562 151.167969 505.605469 150.371094 C 505.601562 149.65625 505.597656 148.9375 505.597656 148.203125 C 505.597656 147.570312 505.597656 146.9375 505.59375 146.285156 C 505.597656 144.699219 505.597656 144.699219 504.75 143.25 Z M 504.75 143.25 "/>
<path style=" stroke:none;fill-rule:nonzero;fill:rgb(96.862745%,96.862745%,96.862745%);fill-opacity:1;" d="M 210 143.25 C 213.21875 143.25 216.433594 143.25 219.75 143.25 C 219.503906 143.992188 219.253906 144.734375 219 145.5 C 219.867188 145.515625 220.734375 145.53125 221.625 145.546875 C 235.148438 147.117188 247.164062 157.335938 257.378906 165.5625 C 259.476562 167.28125 259.476562 167.28125 261.75 168.75 C 261.75 160.828125 261.75 152.910156 261.75 144.75 C 261.253906 144.75 260.761719 144.75 260.25 144.75 C 260.25 144.253906 260.25 143.761719 260.25 143.25 C 263.46875 143.25 266.683594 143.25 270 143.25 C 270 143.746094 270 144.238281 270 144.75 C 269.503906 144.75 269.011719 144.75 268.5 144.75 C 268.589844 149.847656 268.683594 154.949219 268.777344 160.046875 C 268.8125 161.785156 268.84375 163.519531 268.871094 165.257812 C 268.917969 167.746094 268.964844 170.238281 269.011719 172.726562 C 269.023438 173.507812 269.039062 174.289062 269.050781 175.089844 C 269.074219 176.171875 269.074219 176.171875 269.097656 177.273438 C 269.113281 178.230469 269.113281 178.230469 269.132812 179.203125 C 269.15625 180.796875 269.15625 180.796875 270 182.25 C 266.78125 182.25 263.566406 182.25 260.25 182.25 C 260.003906 181.011719 259.753906 179.773438 259.5 178.5 C 249.929688 166.335938 233.367188 155.914062 218.25 153 C 218.339844 156.925781 218.433594 160.847656 218.527344 164.773438 C 218.5625 166.109375 218.59375 167.445312 218.621094 168.78125 C 218.667969 170.699219 218.714844 172.617188 218.761719 174.53125 C 218.773438 175.132812 218.789062 175.730469 218.800781 176.347656 C 218.816406 179.398438 218.816406 179.398438 219.75 182.25 C 216.285156 182.25 212.820312 182.25 209.25 182.25 C 209.496094 181.753906 209.746094 181.261719 210 180.75 C 210.496094 180.75 210.988281 180.75 211.5 180.75 C 211.5 168.871094 211.5 156.988281 211.5 144.75 C 211.003906 144.75 210.511719 144.75 210 144.75 C 210 144.253906 210 143.761719 210 143.25 Z M 210 143.25 "/>
<path style=" stroke:none;fill-rule:nonzero;fill:rgb(90.980393%,90.980393%,90.980393%);fill-opacity:1;" d="M 295.5 49.5 C 293.644531 51.355469 293.644531 51.355469 291.75 53.25 C 291.996094 53.746094 292.246094 54.238281 292.5 54.75 C 291.664062 55.113281 290.828125 55.476562 289.96875 55.851562 C 284.039062 58.449219 278.144531 61.101562 272.34375 63.984375 C 271.851562 64.226562 271.355469 64.472656 270.847656 64.722656 C 268.335938 65.988281 266.269531 67.296875 264 69 C 266.476562 69.246094 268.949219 69.496094 271.5 69.75 C 271.5 70.492188 271.5 71.234375 271.5 72 C 271.253906 72.246094 271.003906 72.496094 270.75 72.75 C 281.390625 72.996094 292.035156 73.246094 303 73.5 C 303 73.746094 303 73.996094 303 74.25 C 271.0625 74.675781 271.0625 74.675781 255.375 73.125 C 246.050781 72.214844 236.808594 71.75 227.4375 71.71875 C 226.871094 71.714844 226.300781 71.707031 225.71875 71.703125 C 199.867188 71.488281 173.074219 82.203125 151.160156 95.394531 C 146.75 97.945312 143.847656 98.699219 138.75 98.25 C 139.832031 95.488281 141.03125 94.570312 143.644531 93.226562 C 144.6875 92.683594 144.6875 92.683594 145.753906 92.128906 C 146.503906 91.75 147.257812 91.375 148.03125 90.984375 C 148.804688 90.589844 149.582031 90.191406 150.378906 89.785156 C 164.90625 82.433594 179.992188 75.511719 195.75 71.25 C 196.304688 71.09375 196.859375 70.9375 197.429688 70.777344 C 206.210938 68.378906 214.453125 67.203125 223.566406 67.476562 C 224.476562 67.503906 225.382812 67.527344 226.320312 67.554688 C 230.050781 67.679688 233.777344 67.824219 237.503906 68.03125 C 251.5625 68.753906 260.609375 66.667969 272.457031 59.003906 C 275.917969 56.878906 279.585938 55.191406 283.265625 53.484375 C 283.945312 53.164062 284.621094 52.847656 285.320312 52.515625 C 293.679688 48.589844 293.679688 48.589844 295.5 49.5 Z M 295.5 49.5 "/>
<path style=" stroke:none;fill-rule:nonzero;fill:rgb(93.333334%,93.333334%,93.333334%);fill-opacity:1;" d="M 415.453125 57.46875 C 418.539062 57.847656 419.433594 59.269531 421.5 61.5 C 423.507812 62.152344 423.507812 62.152344 425.25 62.25 C 425.25 62.496094 425.25 62.746094 425.25 63 C 424.757812 63.035156 424.261719 63.070312 423.753906 63.105469 C 418.570312 63.464844 413.386719 63.832031 408.203125 64.199219 C 406.273438 64.335938 404.34375 64.472656 402.414062 64.605469 C 399.625 64.800781 396.835938 64.996094 394.046875 65.195312 C 392.777344 65.285156 392.777344 65.285156 391.480469 65.371094 C 386.246094 65.753906 381.09375 66.382812 375.90625 67.15625 C 372.855469 67.589844 369.816406 67.871094 366.746094 68.085938 C 366.167969 68.128906 365.589844 68.175781 364.996094 68.21875 C 362.585938 68.40625 360.175781 68.582031 357.765625 68.757812 C 351.265625 69.238281 344.863281 69.820312 338.425781 70.878906 C 333.609375 71.617188 328.761719 72.054688 323.90625 72.46875 C 323.335938 72.519531 322.765625 72.566406 322.175781 72.617188 C 304.824219 74.070312 287.394531 73.707031 270 73.5 C 270.890625 72.019531 270.890625 72.019531 272.25 70.5 C 273.925781 70.160156 273.925781 70.160156 275.972656 70.203125 C 277.1875 70.199219 277.1875 70.199219 278.429688 70.199219 C 279.34375 70.207031 280.261719 70.210938 281.203125 70.21875 C 293.160156 70.074219 304.996094 68.960938 316.886719 67.746094 C 318.355469 67.597656 319.820312 67.449219 321.289062 67.300781 C 331.488281 66.269531 341.660156 65.132812 351.820312 63.761719 C 357.589844 62.996094 363.355469 62.445312 369.15625 61.996094 C 378.5 61.273438 387.808594 60.390625 397.109375 59.25 C 401.585938 58.703125 406.054688 58.261719 410.546875 57.90625 C 412.183594 57.773438 413.820312 57.625 415.453125 57.46875 Z M 415.453125 57.46875 "/>
<path style=" stroke:none;fill-rule:nonzero;fill:rgb(96.078432%,96.078432%,96.078432%);fill-opacity:1;" d="M 344.25 143.25 C 347.714844 143.25 351.179688 143.25 354.75 143.25 C 354.75 143.746094 354.75 144.238281 354.75 144.75 C 354.253906 144.75 353.761719 144.75 353.25 144.75 C 353.25 155.144531 353.25 165.539062 353.25 176.25 C 362.394531 176.160156 362.394531 176.160156 371.535156 176.054688 C 375.265625 176.011719 378.992188 175.96875 382.71875 175.933594 C 385.726562 175.90625 388.730469 175.871094 391.734375 175.832031 C 392.882812 175.816406 394.03125 175.804688 395.179688 175.796875 C 396.785156 175.785156 398.390625 175.761719 399.992188 175.738281 C 400.910156 175.730469 401.824219 175.71875 402.765625 175.707031 C 405.136719 175.664062 405.136719 175.664062 407.25 174 C 407.25 176.722656 407.25 179.445312 407.25 182.25 C 386.460938 182.25 365.671875 182.25 344.25 182.25 C 344.992188 181.878906 344.992188 181.878906 345.75 181.5 C 345.75 169.371094 345.75 157.246094 345.75 144.75 C 345.253906 144.75 344.761719 144.75 344.25 144.75 C 344.25 144.253906 344.25 143.761719 344.25 143.25 Z M 344.25 143.25 "/>
<path style=" stroke:none;fill-rule:nonzero;fill:rgb(0.784314%,0.784314%,0.784314%);fill-opacity:1;" d="M 246.519531 93.683594 C 248.136719 94.917969 249.734375 96.140625 251.25 97.5 C 251.25 97.746094 251.25 97.996094 251.25 98.25 C 232.191406 98.25 213.136719 98.25 193.5 98.25 C 207.546875 81.863281 229.46875 81.582031 246.519531 93.683594 Z M 246.519531 93.683594 "/>
<path style=" stroke:none;fill-rule:nonzero;fill:rgb(95.294118%,95.294118%,95.294118%);fill-opacity:1;" d="M 496.5 53.25 C 516.878906 53.132812 536.339844 53.578125 556.5 57 C 556.109375 59.453125 555.914062 60.5625 554.25 62.484375 C 550.0625 64.839844 545.886719 63.902344 541.3125 63.09375 C 526.941406 60.554688 512.410156 60.457031 497.863281 60.300781 C 495.160156 60.269531 492.460938 60.230469 489.761719 60.195312 C 484.507812 60.121094 479.253906 60.058594 474 60 C 474 59.753906 474 59.503906 474 59.25 C 482.910156 59.003906 491.820312 58.753906 501 58.5 C 499.515625 56.765625 498.03125 55.035156 496.5 53.25 Z M 496.5 53.25 "/>
<path style=" stroke:none;fill-rule:nonzero;fill:rgb(1.960784%,1.960784%,1.960784%);fill-opacity:1;" d="M 380.765625 206.390625 C 383.824219 208.0625 385.453125 209.90625 387 213 C 387.484375 216.777344 387.585938 220.183594 385.453125 223.453125 C 382.71875 226.722656 379.546875 227.808594 375.375 228.328125 C 371.65625 227.863281 369.007812 226.710938 366.503906 223.867188 C 364.242188 220.449219 363.789062 217.015625 364.5 213 C 367.753906 206.105469 373.667969 204.105469 380.765625 206.390625 Z M 380.765625 206.390625 "/>
<path style=" stroke:none;fill-rule:nonzero;fill:rgb(1.176471%,1.176471%,1.176471%);fill-opacity:1;" d="M 316 208.136719 C 318.023438 209.941406 318.664062 211.511719 318.976562 214.1875 C 319.007812 221.683594 319.007812 221.683594 316.5 225 C 312.621094 227.890625 310.046875 228.53125 305.25 228 C 301.238281 226.535156 298.90625 224.316406 297 220.5 C 296.550781 217.085938 296.234375 213.707031 297.875 210.59375 C 302.980469 204.386719 309.445312 203.90625 316 208.136719 Z M 316 208.136719 "/>
<path style=" stroke:none;fill-rule:nonzero;fill:rgb(91.764706%,91.764706%,91.764706%);fill-opacity:1;" d="M 414 143.25 C 417.464844 143.25 420.929688 143.25 424.5 143.25 C 424.5 143.746094 424.5 144.238281 424.5 144.75 C 424.003906 144.75 423.511719 144.75 423 144.75 C 423.089844 149.847656 423.183594 154.949219 423.277344 160.046875 C 423.3125 161.785156 423.34375 163.519531 423.371094 165.257812 C 423.417969 167.746094 423.464844 170.238281 423.511719 172.726562 C 423.523438 173.507812 423.539062 174.289062 423.550781 175.089844 C 423.566406 175.8125 423.582031 176.53125 423.597656 177.273438 C 423.609375 177.910156 423.621094 178.546875 423.632812 179.203125 C 423.65625 180.796875 423.65625 180.796875 424.5 182.25 C 421.035156 182.25 417.570312 182.25 414 182.25 C 414.246094 181.753906 414.496094 181.261719 414.75 180.75 C 414.839844 179.59375 414.882812 178.433594 414.902344 177.273438 C 414.925781 176.195312 414.925781 176.195312 414.949219 175.089844 C 414.960938 174.3125 414.972656 173.53125 414.988281 172.726562 C 415.011719 171.53125 415.011719 171.53125 415.035156 170.3125 C 415.082031 167.761719 415.128906 165.207031 415.171875 162.65625 C 415.203125 160.929688 415.238281 159.199219 415.269531 157.472656 C 415.351562 153.234375 415.425781 148.992188 415.5 144.75 C 415.003906 144.75 414.511719 144.75 414 144.75 C 414 144.253906 414 143.761719 414 143.25 Z M 414 143.25 "/>
<path style=" stroke:none;fill-rule:nonzero;fill:rgb(99.215686%,99.215686%,99.215686%);fill-opacity:1;" d="M 471.140625 53.179688 C 474.605469 53.035156 478.070312 52.949219 481.539062 52.90625 C 482.742188 52.886719 483.945312 52.855469 485.144531 52.8125 C 495.179688 52.476562 495.179688 52.476562 498.488281 54.417969 C 499.8125 55.71875 500.835938 56.890625 501.75 58.5 C 501.75 58.746094 501.75 58.996094 501.75 59.25 C 501.015625 59.269531 500.28125 59.289062 499.523438 59.308594 C 484.261719 59.699219 469.003906 60.136719 453.75 60.75 C 454.066406 60.386719 454.382812 60.027344 454.707031 59.652344 C 455.117188 59.179688 455.53125 58.707031 455.953125 58.21875 C 456.363281 57.75 456.769531 57.277344 457.191406 56.792969 C 458.300781 55.53125 458.300781 55.53125 459 54 C 463 53.367188 467.09375 53.355469 471.140625 53.179688 Z M 471.140625 53.179688 "/>
<path style=" stroke:none;fill-rule:nonzero;fill:rgb(4.313726%,4.313726%,4.313726%);fill-opacity:1;" d="M 180 82.5 C 177.996094 88.023438 175.113281 93.980469 170.25 97.5 C 165.761719 98.984375 160.996094 98.644531 156.339844 98.359375 C 153.890625 98.214844 151.46875 98.257812 149.015625 98.296875 C 147.84375 98.285156 146.671875 98.273438 145.5 98.25 C 148.441406 95.734375 151.46875 93.894531 154.875 92.109375 C 155.417969 91.824219 155.960938 91.539062 156.519531 91.242188 C 161.113281 88.875 165.792969 86.722656 170.53125 84.65625 C 171.214844 84.355469 171.894531 84.050781 172.597656 83.742188 C 173.554688 83.332031 173.554688 83.332031 174.53125 82.914062 C 175.101562 82.671875 175.667969 82.429688 176.25 82.175781 C 177.75 81.75 177.75 81.75 180 82.5 Z M 180 82.5 "/>
<path style=" stroke:none;fill-rule:nonzero;fill:rgb(91.37255%,91.37255%,91.37255%);fill-opacity:1;" d="M 515.25 78 C 515.980469 78.390625 516.710938 78.777344 517.460938 79.179688 C 522.289062 82.007812 526.246094 85.417969 529.5 90 C 529.5 90.496094 529.5 90.988281 529.5 91.5 C 526.964844 90.371094 525.054688 88.878906 522.9375 87.09375 C 519.769531 84.523438 516.757812 82.5625 513 81 C 512.246094 80.679688 512.246094 80.679688 511.480469 80.351562 C 502.144531 76.585938 491.917969 77.003906 482.613281 80.585938 C 476.726562 83.207031 469.488281 87.773438 466.5 93.75 C 465.757812 93.503906 465.015625 93.253906 464.25 93 C 469.105469 86.15625 473.976562 81.128906 481.5 77.25 C 482.082031 76.9375 482.660156 76.625 483.261719 76.304688 C 493.046875 71.882812 505.980469 72.992188 515.25 78 Z M 515.25 78 "/>
<path style=" stroke:none;fill-rule:nonzero;fill:rgb(78.039217%,78.039217%,78.039217%);fill-opacity:1;" d="M 401.25 206.25 C 403.046875 206.167969 404.84375 206.109375 406.640625 206.0625 C 407.144531 206.039062 407.652344 206.011719 408.171875 205.984375 C 410.894531 205.933594 412.378906 206.175781 414.710938 207.625 C 416.25 209.25 416.25 209.25 416.71875 211.40625 C 416.082031 214.597656 414.726562 215.910156 412.5 218.25 C 413.308594 219.332031 414.121094 220.410156 414.9375 221.484375 C 415.390625 222.085938 415.84375 222.683594 416.308594 223.304688 C 417.675781 224.914062 419.011719 226.0625 420.75 227.25 C 418.734375 227.484375 418.734375 227.484375 416.25 227.25 C 413.472656 225.015625 411.578125 222.304688 409.65625 219.339844 C 408.722656 218.019531 408.722656 218.019531 406.5 217.5 C 406.5 220.46875 406.5 223.441406 406.5 226.5 C 407.242188 226.746094 407.984375 226.996094 408.75 227.25 C 406.273438 227.25 403.800781 227.25 401.25 227.25 C 401.992188 227.003906 402.734375 226.753906 403.5 226.5 C 403.5 220.066406 403.5 213.628906 403.5 207 C 402.757812 206.753906 402.015625 206.503906 401.25 206.25 Z M 401.25 206.25 "/>
<path style=" stroke:none;fill-rule:nonzero;fill:rgb(89.411765%,89.411765%,89.411765%);fill-opacity:1;" d="M 242.578125 87.5625 C 246.285156 90.242188 249.882812 93.160156 252.75 96.75 C 252.75 97.246094 252.75 97.738281 252.75 98.25 C 250.230469 97.488281 248.59375 96.457031 246.703125 94.6875 C 237.898438 86.863281 227.375 85.53125 216.105469 86.105469 C 208.316406 86.800781 200.371094 91.058594 195 96.703125 C 194.257812 97.46875 194.257812 97.46875 193.5 98.25 C 192.757812 98.25 192.015625 98.25 191.25 98.25 C 194.035156 91.980469 200.152344 87.53125 206.25 84.75 C 218.667969 80.351562 231.136719 80.234375 242.578125 87.5625 Z M 242.578125 87.5625 "/>
<path style=" stroke:none;fill-rule:nonzero;fill:rgb(81.176472%,81.176472%,81.176472%);fill-opacity:1;" d="M 260.25 205.5 C 260.746094 205.5 261.238281 205.5 261.75 205.5 C 262.878906 207.964844 264.003906 210.4375 265.125 212.90625 C 265.609375 213.960938 265.609375 213.960938 266.101562 215.035156 C 266.40625 215.707031 266.710938 216.378906 267.023438 217.070312 C 267.304688 217.691406 267.589844 218.3125 267.878906 218.953125 C 268.5 220.5 268.5 220.5 268.5 222 C 268.996094 222 269.488281 222 270 222 C 270.277344 221.085938 270.558594 220.175781 270.84375 219.234375 C 272.414062 214.480469 274.597656 210.011719 276.75 205.5 C 277.246094 205.5 277.738281 205.5 278.25 205.5 C 279.613281 212.492188 280.15625 219.402344 280.5 226.5 C 281.242188 226.746094 281.984375 226.996094 282.75 227.25 C 280.523438 227.25 278.296875 227.25 276 227.25 C 276.496094 227.003906 276.988281 226.753906 277.5 226.5 C 277.375 225.804688 277.253906 225.109375 277.125 224.390625 C 276.570312 220.605469 276.6875 216.8125 276.75 213 C 276.253906 213 275.761719 213 275.25 213 C 275.179688 213.90625 275.179688 213.90625 275.109375 214.828125 C 274.421875 217.835938 273.214844 219.957031 271.617188 222.566406 C 270.683594 224.378906 270.3125 225.992188 270 228 C 269.503906 228 269.011719 228 268.5 228 C 268.316406 227.582031 268.136719 227.164062 267.949219 226.734375 C 266.242188 222.84375 264.425781 219.035156 262.5 215.25 C 262.253906 215.25 262.003906 215.25 261.75 215.25 C 261.253906 218.960938 260.761719 222.675781 260.25 226.5 C 260.746094 226.746094 261.238281 226.996094 261.75 227.25 C 259.769531 227.25 257.789062 227.25 255.75 227.25 C 256.246094 226.753906 256.738281 226.261719 257.25 225.75 C 257.65625 223.816406 257.65625 223.816406 257.863281 221.554688 C 257.957031 220.71875 258.050781 219.886719 258.144531 219.027344 C 258.238281 218.152344 258.328125 217.277344 258.421875 216.375 C 258.609375 214.648438 258.796875 212.921875 258.988281 211.195312 C 259.066406 210.425781 259.148438 209.660156 259.230469 208.867188 C 259.5 207 259.5 207 260.25 205.5 Z M 260.25 205.5 "/>
<path style=" stroke:none;fill-rule:nonzero;fill:rgb(93.725491%,93.725491%,93.725491%);fill-opacity:1;" d="M 177.75 79.5 C 175.074219 83.132812 173.101562 84.691406 168.796875 86.34375 C 162.664062 88.789062 157.015625 91.929688 151.351562 95.316406 C 146.871094 97.882812 143.917969 98.71875 138.75 98.25 C 139.832031 95.488281 141.03125 94.570312 143.640625 93.226562 C 144.339844 92.863281 145.039062 92.5 145.753906 92.128906 C 146.507812 91.75 147.257812 91.375 148.03125 90.984375 C 148.796875 90.59375 149.5625 90.199219 150.355469 89.796875 C 173.355469 78.136719 173.355469 78.136719 177.75 79.5 Z M 177.75 79.5 "/>
<path style=" stroke:none;fill-rule:nonzero;fill:rgb(94.509804%,94.509804%,94.509804%);fill-opacity:1;" d="M 303.75 57.75 C 306.28125 59.015625 306.28125 59.015625 308.25 60.75 C 308.53125 62.8125 308.53125 62.8125 308.25 64.5 C 304.511719 65.9375 300.953125 66.417969 297 66.75 C 297 67.492188 297 68.234375 297 69 C 295.65625 69.0625 294.3125 69.105469 292.96875 69.140625 C 291.847656 69.179688 291.847656 69.179688 290.703125 69.21875 C 290.058594 69.148438 289.414062 69.074219 288.75 69 C 287.136719 66.578125 287.097656 65.785156 287.25 63 C 288.886719 62.269531 290.523438 61.539062 292.164062 60.816406 C 293.269531 60.324219 294.371094 59.824219 295.460938 59.300781 C 298.359375 57.941406 300.5625 57.273438 303.75 57.75 Z M 303.75 57.75 "/>
<path style=" stroke:none;fill-rule:nonzero;fill:rgb(93.725491%,93.725491%,93.725491%);fill-opacity:1;" d="M 294 48.75 C 294.496094 48.996094 294.988281 49.246094 295.5 49.5 C 294.261719 50.738281 293.023438 51.976562 291.75 53.25 C 292.121094 53.992188 292.121094 53.992188 292.5 54.75 C 291.664062 55.113281 290.828125 55.476562 289.96875 55.851562 C 281.65625 59.492188 273.292969 63.179688 265.390625 67.664062 C 263.65625 68.394531 262.308594 68.398438 260.4375 68.34375 C 259.839844 68.332031 259.238281 68.316406 258.621094 68.304688 C 258.167969 68.285156 257.714844 68.269531 257.25 68.25 C 259.542969 65.710938 261.847656 64.242188 264.878906 62.679688 C 265.324219 62.449219 265.773438 62.21875 266.230469 61.980469 C 267.671875 61.234375 269.117188 60.5 270.5625 59.765625 C 271.050781 59.515625 271.539062 59.265625 272.042969 59.007812 C 288.324219 50.671875 288.324219 50.671875 294 48.75 Z M 294 48.75 "/>
<path style=" stroke:none;fill-rule:nonzero;fill:rgb(85.09804%,85.09804%,85.09804%);fill-opacity:1;" d="M 380.765625 206.390625 C 383.824219 208.0625 385.453125 209.90625 387 213 C 387.484375 216.777344 387.585938 220.183594 385.453125 223.453125 C 382.71875 226.722656 379.546875 227.808594 375.375 228.328125 C 371.65625 227.863281 369.007812 226.710938 366.503906 223.867188 C 364.242188 220.449219 363.789062 217.015625 364.5 213 C 367.753906 206.105469 373.667969 204.105469 380.765625 206.390625 Z M 369 210 C 367.21875 213.054688 367.058594 216.289062 367.5 219.75 C 368.652344 222.804688 369.757812 225.042969 372.75 226.5 C 376.234375 226.886719 377.882812 227.007812 380.90625 225.234375 C 383.746094 222.144531 384.308594 219.449219 384.191406 215.242188 C 383.804688 212.222656 382.488281 210.070312 380.484375 207.84375 C 376.0625 205.691406 372.246094 206.464844 369 210 Z M 369 210 "/>
<path style=" stroke:none;fill-rule:nonzero;fill:rgb(81.960785%,81.960785%,81.960785%);fill-opacity:1;" d="M 316 208.136719 C 318.023438 209.941406 318.664062 211.511719 318.976562 214.1875 C 319.007812 221.683594 319.007812 221.683594 316.5 225 C 312.621094 227.890625 310.046875 228.53125 305.25 228 C 301.238281 226.535156 298.90625 224.316406 297 220.5 C 296.550781 217.085938 296.234375 213.707031 297.875 210.59375 C 302.980469 204.386719 309.445312 203.90625 316 208.136719 Z M 300.75 210.75 C 299.175781 213.898438 299.589844 217.828125 300 221.25 C 301.214844 223.675781 302.792969 225.269531 305.25 226.5 C 309.648438 226.796875 309.648438 226.796875 313.5 225 C 316.542969 220.804688 316.457031 216.503906 315.75 211.5 C 314.496094 209.210938 312.828125 208.164062 310.5 207 C 305.703125 206.445312 304.011719 207.488281 300.75 210.75 Z M 300.75 210.75 "/>
<path style=" stroke:none;fill-rule:nonzero;fill:rgb(92.54902%,92.54902%,92.54902%);fill-opacity:1;" d="M 538.5 54.75 C 542.628906 54.617188 546.402344 55.105469 550.453125 55.875 C 551.039062 55.980469 551.621094 56.089844 552.222656 56.199219 C 553.648438 56.460938 555.074219 56.730469 556.5 57 C 556.109375 59.453125 555.914062 60.5625 554.25 62.484375 C 549.363281 65.230469 543.835938 63.589844 538.5625 62.632812 C 535.058594 62.050781 531.539062 61.765625 528 61.5 C 528 61.253906 528 61.003906 528 60.75 C 528.550781 60.738281 529.105469 60.730469 529.671875 60.71875 C 534.625 60.617188 534.625 60.617188 538.640625 58.078125 C 539.089844 57.476562 539.539062 56.871094 540 56.25 C 539.503906 55.753906 539.011719 55.261719 538.5 54.75 Z M 538.5 54.75 "/>
<path style=" stroke:none;fill-rule:nonzero;fill:rgb(91.37255%,7.843138%,7.843138%);fill-opacity:1;" d="M 547.640625 65.90625 C 549.054688 65.953125 549.054688 65.953125 550.5 66 C 552.75 70.3125 552.75 70.3125 552.75 72 C 552.253906 72 551.761719 72 551.25 72 C 555.0625 80.601562 558.941406 89.132812 563.25 97.5 C 562.507812 97.871094 562.507812 97.871094 561.75 98.25 C 561.285156 97.476562 560.820312 96.703125 560.339844 95.902344 C 554.53125 86.289062 548.429688 76.878906 542.25 67.5 C 544.566406 65.957031 545.03125 65.820312 547.640625 65.90625 Z M 547.640625 65.90625 "/>
<path style=" stroke:none;fill-rule:nonzero;fill:rgb(90.196079%,90.196079%,90.196079%);fill-opacity:1;" d="M 437.25 63.75 C 440.542969 64.25 443.234375 65.390625 446.25 66.75 C 445.207031 69.726562 443.800781 71.9375 441.890625 74.4375 C 440.089844 76.859375 438.414062 79.214844 437.015625 81.890625 C 435.164062 85.359375 433.019531 88.613281 430.828125 91.875 C 430.472656 92.414062 430.121094 92.953125 429.757812 93.511719 C 429.414062 94.015625 429.070312 94.519531 428.714844 95.039062 C 428.410156 95.496094 428.105469 95.949219 427.789062 96.421875 C 426.515625 97.746094 425.539062 97.960938 423.75 98.25 C 424.75 95.550781 425.953125 93.230469 427.507812 90.8125 C 427.953125 90.121094 428.398438 89.425781 428.859375 88.707031 C 429.324219 87.988281 429.785156 87.269531 430.265625 86.53125 C 430.714844 85.832031 431.164062 85.128906 431.628906 84.40625 C 432.078125 83.707031 432.53125 83.003906 432.992188 82.28125 C 433.441406 81.582031 433.894531 80.882812 434.355469 80.160156 C 435.316406 78.667969 436.289062 77.1875 437.261719 75.707031 C 437.742188 74.972656 438.222656 74.238281 438.71875 73.484375 C 439.15625 72.820312 439.59375 72.15625 440.042969 71.472656 C 441.183594 69.75 441.183594 69.75 441 67.5 C 439.171875 65.484375 439.171875 65.484375 437.25 63.75 Z M 437.25 63.75 "/>
<path style=" stroke:none;fill-rule:nonzero;fill:rgb(4.705882%,4.705882%,4.705882%);fill-opacity:1;" d="M 170.25 150.75 C 174.9375 154.234375 179.621094 158.996094 182.25 164.25 C 177.902344 163.78125 173.746094 162.996094 169.5 161.953125 C 168.917969 161.8125 168.339844 161.671875 167.738281 161.53125 C 166.324219 161.1875 164.914062 160.84375 163.5 160.5 C 164.617188 158.039062 166.039062 156.050781 167.71875 153.9375 C 168.191406 153.339844 168.667969 152.738281 169.15625 152.121094 C 169.515625 151.667969 169.878906 151.214844 170.25 150.75 Z M 170.25 150.75 "/>
<path style=" stroke:none;fill-rule:nonzero;fill:rgb(3.921569%,3.921569%,3.921569%);fill-opacity:1;" d="M 465 150.75 C 467.972656 151.90625 469.453125 153.773438 471.421875 156.234375 C 471.996094 156.941406 472.570312 157.652344 473.160156 158.382812 C 474.585938 160.28125 475.824219 162.1875 477 164.25 C 474.421875 163.769531 471.84375 163.28125 469.265625 162.796875 C 468.535156 162.660156 467.800781 162.523438 467.046875 162.382812 C 466.34375 162.25 465.640625 162.117188 464.914062 161.980469 C 464.265625 161.859375 463.617188 161.734375 462.953125 161.609375 C 461.25 161.25 461.25 161.25 459 160.5 C 459.453125 157.722656 460.667969 156.105469 462.421875 153.9375 C 462.902344 153.339844 463.382812 152.738281 463.878906 152.121094 C 464.25 151.667969 464.617188 151.214844 465 150.75 Z M 465 150.75 "/>
<path style=" stroke:none;fill-rule:nonzero;fill:rgb(91.764706%,91.764706%,91.764706%);fill-opacity:1;" d="M 473.433594 42.945312 C 474.023438 43.035156 474.613281 43.125 475.21875 43.21875 C 476.121094 43.339844 476.121094 43.339844 477.039062 43.460938 C 481.3125 44.050781 485.542969 44.800781 489.75 45.75 C 487.441406 47.042969 485.386719 47.601562 482.785156 48.027344 C 482.015625 48.152344 481.246094 48.28125 480.453125 48.410156 C 479.253906 48.601562 479.253906 48.601562 478.03125 48.796875 C 477.25 48.925781 476.46875 49.058594 475.660156 49.191406 C 470.867188 49.972656 466.085938 50.585938 461.25 51 C 464.472656 47.191406 464.472656 47.191406 465.75 45.75 C 466.367188 44.90625 466.367188 44.90625 467 44.046875 C 469.226562 42.398438 470.75 42.609375 473.433594 42.945312 Z M 473.433594 42.945312 "/>
<path style=" stroke:none;fill-rule:nonzero;fill:rgb(97.647059%,97.647059%,97.647059%);fill-opacity:1;" d="M 304.5 69.75 C 304.5 70.988281 304.5 72.226562 304.5 73.5 C 293.113281 73.5 281.730469 73.5 270 73.5 C 272.25 70.5 272.25 70.5 274.496094 70.089844 C 275.402344 70.074219 276.308594 70.058594 277.238281 70.042969 C 277.730469 70.03125 278.222656 70.019531 278.730469 70.003906 C 280.304688 69.96875 281.878906 69.953125 283.453125 69.9375 C 284.488281 69.917969 285.519531 69.894531 286.554688 69.871094 C 292.535156 69.742188 298.515625 69.722656 304.5 69.75 Z M 304.5 69.75 "/>
<path style=" stroke:none;fill-rule:nonzero;fill:rgb(89.411765%,89.411765%,89.411765%);fill-opacity:1;" d="M 444 205.5 C 444 206.984375 444 208.46875 444 210 C 443.503906 210 443.011719 210 442.5 210 C 442.253906 209.257812 442.003906 208.515625 441.75 207.75 C 440.5 207.71875 439.25 207.71875 438 207.75 C 437.074219 208.53125 437.074219 208.53125 436.96875 210.21875 C 437.367188 213.101562 438.722656 213.753906 441 215.484375 C 444.570312 218.523438 444.570312 218.523438 445.378906 220.664062 C 445.507812 223.386719 444.898438 224.824219 443.15625 226.875 C 440.65625 228.179688 439.28125 228.355469 436.5 228 C 434.71875 227.25 434.71875 227.25 433.5 226.5 C 433.5 225.015625 433.5 223.53125 433.5 222 C 433.996094 222 434.488281 222 435 222 C 435.496094 223.238281 435.988281 224.476562 436.5 225.75 C 438 225.78125 439.5 225.78125 441 225.75 C 441.976562 224.925781 441.976562 224.925781 442.003906 222.902344 C 441.972656 220.4375 441.972656 220.4375 440.300781 218.800781 C 439.371094 218.0625 439.371094 218.0625 438.421875 217.3125 C 434.386719 214.054688 434.386719 214.054688 433.96875 210.84375 C 434.25 208.5 434.25 208.5 435.75 206.71875 C 438.75 205.09375 440.625 205.269531 444 205.5 Z M 444 205.5 "/>
<path style=" stroke:none;fill-rule:nonzero;fill:rgb(88.627452%,88.627452%,88.627452%);fill-opacity:1;" d="M 332.25 205.5 C 338.191406 205.5 344.128906 205.5 350.25 205.5 C 350.25 206.738281 350.25 207.976562 350.25 209.25 C 349.753906 208.753906 349.261719 208.261719 348.75 207.75 C 346.757812 207.324219 344.78125 207.195312 342.75 207 C 342.832031 210.09375 342.929688 213.1875 343.03125 216.28125 C 343.054688 217.164062 343.078125 218.042969 343.101562 218.953125 C 343.144531 220.214844 343.144531 220.214844 343.1875 221.5 C 343.214844 222.28125 343.238281 223.058594 343.261719 223.859375 C 343.320312 225.875 343.320312 225.875 345 227.25 C 342.773438 227.25 340.546875 227.25 338.25 227.25 C 338.992188 227.003906 339.734375 226.753906 340.5 226.5 C 340.5 220.066406 340.5 213.628906 340.5 207 C 338.519531 207.246094 336.539062 207.496094 334.5 207.75 C 334.253906 208.246094 334.003906 208.738281 333.75 209.25 C 333.253906 209.25 332.761719 209.25 332.25 209.25 C 332.25 208.011719 332.25 206.773438 332.25 205.5 Z M 332.25 205.5 "/>
<path style=" stroke:none;fill-rule:nonzero;fill:rgb(85.09804%,85.09804%,85.09804%);fill-opacity:1;" d="M 178.5 83.25 C 178.996094 83.496094 179.488281 83.746094 180 84 C 178.515625 86.109375 177.03125 88.21875 175.546875 90.328125 C 175.125 90.929688 174.699219 91.53125 174.265625 92.152344 C 173.863281 92.726562 173.457031 93.296875 173.042969 93.886719 C 172.667969 94.417969 172.296875 94.949219 171.910156 95.496094 C 171 96.75 171 96.75 170.25 97.5 C 169.023438 97.566406 167.796875 97.582031 166.566406 97.574219 C 165.824219 97.570312 165.082031 97.570312 164.320312 97.566406 C 163.539062 97.558594 162.757812 97.554688 161.953125 97.546875 C 161.167969 97.542969 160.386719 97.539062 159.578125 97.535156 C 157.636719 97.527344 155.691406 97.515625 153.75 97.5 C 153.75 97.003906 153.75 96.511719 153.75 96 C 154.710938 95.898438 155.667969 95.796875 156.65625 95.691406 C 166.539062 94.613281 166.539062 94.613281 174 88.5 C 174.445312 88.003906 174.886719 87.503906 175.34375 86.992188 C 176.425781 85.769531 177.46875 84.515625 178.5 83.25 Z M 178.5 83.25 "/>
<path style=" stroke:none;fill-rule:nonzero;fill:rgb(86.274511%,86.274511%,86.274511%);fill-opacity:1;" d="M 411 206.25 C 413.1875 207.054688 414.582031 207.582031 416.25 209.25 C 416.613281 211.527344 416.691406 213.066406 415.410156 215.046875 C 414.484375 216.152344 413.496094 217.207031 412.5 218.25 C 413.308594 219.332031 414.121094 220.410156 414.9375 221.484375 C 415.390625 222.085938 415.84375 222.683594 416.308594 223.304688 C 417.675781 224.914062 419.011719 226.0625 420.75 227.25 C 417.917969 227.578125 416.664062 227.570312 414.375 225.796875 C 412.023438 222.917969 409.988281 219.886719 408 216.75 C 408.601562 216.535156 409.207031 216.316406 409.828125 216.09375 C 411.847656 215.449219 411.847656 215.449219 412.5 213.75 C 412.839844 210.550781 412.839844 210.550781 411.375 207.84375 C 411.003906 207.566406 410.632812 207.285156 410.25 207 C 410.496094 206.753906 410.746094 206.503906 411 206.25 Z M 411 206.25 "/>
<path style=" stroke:none;fill-rule:nonzero;fill:rgb(85.09804%,85.09804%,85.09804%);fill-opacity:1;" d="M 276.75 205.5 C 277.246094 205.5 277.738281 205.5 278.25 205.5 C 279.613281 212.492188 280.15625 219.402344 280.5 226.5 C 281.242188 226.746094 281.984375 226.996094 282.75 227.25 C 280.523438 227.25 278.296875 227.25 276 227.25 C 276.496094 227.003906 276.988281 226.753906 277.5 226.5 C 277.269531 224.1875 277.035156 221.875 276.796875 219.5625 C 276.699219 218.582031 276.699219 218.582031 276.597656 217.578125 C 276.535156 216.945312 276.46875 216.3125 276.402344 215.660156 C 276.34375 215.078125 276.285156 214.496094 276.222656 213.898438 C 276.039062 212.246094 276.039062 212.246094 275.554688 210.664062 C 275.113281 208.621094 275.878906 207.34375 276.75 205.5 Z M 276.75 205.5 "/>
<path style=" stroke:none;fill-rule:nonzero;fill:rgb(83.529413%,83.529413%,83.529413%);fill-opacity:1;" d="M 260.25 69.75 C 263.960938 69.75 267.675781 69.75 271.5 69.75 C 271.5 70.492188 271.5 71.234375 271.5 72 C 271.253906 72.246094 271.003906 72.496094 270.75 72.75 C 281.390625 72.996094 292.035156 73.246094 303 73.5 C 303 73.746094 303 73.996094 303 74.25 C 298.304688 74.269531 293.605469 74.28125 288.910156 74.292969 C 287.3125 74.296875 285.71875 74.300781 284.121094 74.304688 C 281.820312 74.316406 279.519531 74.320312 277.21875 74.324219 C 276.15625 74.328125 276.15625 74.328125 275.074219 74.335938 C 273.132812 74.335938 271.191406 74.304688 269.25 74.25 C 268.679688 74.238281 268.113281 74.222656 267.527344 74.210938 C 265.9375 74.105469 265.9375 74.105469 263.25 73.5 C 262.261719 72.261719 261.269531 71.023438 260.25 69.75 Z M 260.25 69.75 "/>
<path style=" stroke:none;fill-rule:nonzero;fill:rgb(2.745098%,2.745098%,2.745098%);fill-opacity:1;" d="M 406.5 207.75 C 409.03125 207.65625 409.03125 207.65625 411.75 207.75 C 413.25 209.25 413.25 209.25 413.53125 211.40625 C 413.25 213.75 413.25 213.75 411.984375 215.53125 C 410.25 216.75 410.25 216.75 406.5 216.75 C 406.5 213.78125 406.5 210.808594 406.5 207.75 Z M 406.5 207.75 "/>
<path style=" stroke:none;fill-rule:nonzero;fill:rgb(85.09804%,85.09804%,85.09804%);fill-opacity:1;" d="M 260.25 205.5 C 260.746094 205.5 261.238281 205.5 261.75 205.5 C 261.59375 206.429688 261.441406 207.355469 261.28125 208.3125 C 260.953125 210.839844 260.972656 212.347656 262.5 214.5 C 262.253906 214.746094 262.003906 214.996094 261.75 215.25 C 261.449219 217.140625 261.1875 219.023438 260.953125 220.921875 C 260.886719 221.453125 260.816406 221.988281 260.746094 222.539062 C 260.578125 223.859375 260.414062 225.179688 260.25 226.5 C 260.746094 226.746094 261.238281 226.996094 261.75 227.25 C 259.769531 227.25 257.789062 227.25 255.75 227.25 C 256.246094 226.753906 256.738281 226.261719 257.25 225.75 C 257.65625 223.816406 257.65625 223.816406 257.863281 221.554688 C 257.957031 220.71875 258.050781 219.886719 258.144531 219.027344 C 258.238281 218.152344 258.328125 217.277344 258.421875 216.375 C 258.609375 214.648438 258.796875 212.921875 258.988281 211.195312 C 259.066406 210.425781 259.148438 209.660156 259.230469 208.867188 C 259.5 207 259.5 207 260.25 205.5 Z M 260.25 205.5 "/>
<path style=" stroke:none;fill-rule:nonzero;fill:rgb(85.882354%,85.882354%,85.882354%);fill-opacity:1;" d="M 516 78.75 C 521.359375 81.59375 525.996094 84.953125 529.5 90 C 529.5 90.496094 529.5 90.988281 529.5 91.5 C 526.9375 90.359375 524.988281 88.839844 522.84375 87.046875 C 520.148438 84.851562 517.699219 83.097656 514.5 81.75 C 514.996094 81.503906 515.488281 81.253906 516 81 C 516 80.257812 516 79.515625 516 78.75 Z M 516 78.75 "/>
<path style=" stroke:none;fill-rule:nonzero;fill:rgb(80.784315%,80.784315%,80.784315%);fill-opacity:1;" d="M 318 212.25 C 318.246094 212.25 318.496094 212.25 318.75 212.25 C 319.191406 221.441406 319.191406 221.441406 316.5 225 C 312.59375 227.910156 310.0625 228.335938 305.25 228 C 305.25 227.753906 305.25 227.503906 305.25 227.25 C 306.984375 227.25 308.714844 227.25 310.5 227.25 C 310.5 226.753906 310.5 226.261719 310.5 225.75 C 310.964844 225.703125 311.429688 225.65625 311.90625 225.609375 C 313.660156 225.144531 313.660156 225.144531 314.320312 223.359375 C 315.03125 221.152344 315.300781 219.199219 315.46875 216.890625 C 315.523438 216.160156 315.582031 215.425781 315.640625 214.671875 C 315.675781 214.121094 315.710938 213.570312 315.75 213 C 315.996094 213 316.246094 213 316.5 213 C 316.746094 214.734375 316.996094 216.464844 317.25 218.25 C 317.496094 216.269531 317.746094 214.289062 318 212.25 Z M 318 212.25 "/>
<path style=" stroke:none;fill-rule:nonzero;fill:rgb(86.666667%,86.666667%,86.666667%);fill-opacity:1;" d="M 261 207 C 263.375 208.992188 264.378906 211.378906 265.640625 214.171875 C 266.238281 215.472656 266.238281 215.472656 266.84375 216.800781 C 267.75 219 267.75 219 267.75 220.5 C 267.007812 220.746094 266.265625 220.996094 265.5 221.25 C 264.261719 218.527344 263.023438 215.804688 261.75 213 C 261.007812 213.371094 261.007812 213.371094 260.25 213.75 C 260.175781 209.136719 260.175781 209.136719 260.25 207.75 C 260.496094 207.503906 260.746094 207.253906 261 207 Z M 261 207 "/>
<path style=" stroke:none;fill-rule:nonzero;fill:rgb(88.627452%,88.627452%,88.627452%);fill-opacity:1;" d="M 477 79.5 C 477.496094 79.746094 477.988281 79.996094 478.5 80.25 C 478.003906 80.746094 477.511719 81.238281 477 81.75 C 477.246094 82.246094 477.496094 82.738281 477.75 83.25 C 477.378906 83.503906 477.003906 83.761719 476.621094 84.023438 C 472.664062 86.847656 469.5625 89.980469 466.5 93.75 C 465.757812 93.503906 465.015625 93.253906 464.25 93 C 467.867188 87.898438 471.78125 83.050781 477 79.5 Z M 477 79.5 "/>
<path style=" stroke:none;fill-rule:nonzero;fill:rgb(87.058824%,87.058824%,87.058824%);fill-opacity:1;" d="M 298.5 213 C 298.746094 213 298.996094 213 299.25 213 C 299.324219 213.550781 299.398438 214.105469 299.472656 214.671875 C 300.230469 220.527344 300.230469 220.527344 303.75 225 C 305.976562 225.722656 308.1875 226.167969 310.5 226.5 C 310.5 226.746094 310.5 226.996094 310.5 227.25 C 303.238281 227.894531 303.238281 227.894531 300.328125 225.46875 C 297.78125 222.726562 297.648438 221.492188 297.65625 217.828125 C 297.65625 217.085938 297.652344 216.339844 297.648438 215.574219 C 297.75 213.75 297.75 213.75 298.5 213 Z M 298.5 213 "/>
<path style=" stroke:none;fill-rule:nonzero;fill:rgb(75.294119%,75.294119%,75.294119%);fill-opacity:1;" d="M 183 77.25 C 184.007812 77.988281 185.011719 78.738281 186 79.5 C 184.40625 80.128906 182.8125 80.753906 181.21875 81.375 C 180.332031 81.722656 179.445312 82.070312 178.53125 82.429688 C 176.25 83.25 176.25 83.25 174.75 83.25 C 174.996094 82.800781 175.246094 82.351562 175.5 81.890625 C 176.40625 80.210938 176.40625 80.210938 176.25 78 C 178.808594 76.792969 180.328125 76.128906 183 77.25 Z M 183 77.25 "/>
<path style=" stroke:none;fill-rule:nonzero;fill:rgb(90.196079%,90.196079%,90.196079%);fill-opacity:1;" d="M 437.25 63.75 C 440.542969 64.25 443.234375 65.390625 446.25 66.75 C 445.6875 68.578125 445.6875 68.578125 444.75 70.5 C 443.203125 71.015625 443.203125 71.015625 441.75 71.25 C 441.503906 71.746094 441.253906 72.238281 441 72.75 C 440.503906 72.503906 440.011719 72.253906 439.5 72 C 439.996094 71.257812 440.488281 70.515625 441 69.75 C 441.253906 67.316406 441.253906 67.316406 439.125 65.484375 C 438.507812 64.910156 437.886719 64.339844 437.25 63.75 Z M 437.25 63.75 "/>
<path style=" stroke:none;fill-rule:nonzero;fill:rgb(81.960785%,81.960785%,81.960785%);fill-opacity:1;" d="M 372.75 205.5 C 376.859375 205.25 379.625 205.765625 383.25 207.75 C 385.078125 209.765625 385.078125 209.765625 386.25 211.5 C 386.003906 211.996094 385.753906 212.488281 385.5 213 C 385.003906 212.753906 384.511719 212.503906 384 212.25 C 383.753906 212.746094 383.503906 213.238281 383.25 213.75 C 382.925781 213.039062 382.601562 212.328125 382.265625 211.59375 C 380.917969 209.101562 379.9375 208.117188 377.21875 207.273438 C 376.6875 207.152344 376.15625 207.03125 375.609375 206.90625 C 374.664062 206.691406 373.722656 206.472656 372.75 206.25 C 372.75 206.003906 372.75 205.753906 372.75 205.5 Z M 372.75 205.5 "/>
<path style=" stroke:none;fill-rule:nonzero;fill:rgb(74.509805%,74.509805%,74.509805%);fill-opacity:1;" d="M 444 205.5 C 444 206.984375 444 208.46875 444 210 C 443.503906 210 443.011719 210 442.5 210 C 442.253906 209.257812 442.003906 208.515625 441.75 207.75 C 440.511719 207.75 439.273438 207.75 438 207.75 C 437.800781 208.335938 437.597656 208.925781 437.390625 209.53125 C 436.5 211.5 436.5 211.5 434.25 213 C 434.015625 210.9375 434.015625 210.9375 434.25 208.5 C 437.179688 205.019531 439.761719 205.210938 444 205.5 Z M 444 205.5 "/>
<path style=" stroke:none;fill-rule:nonzero;fill:rgb(85.09804%,85.09804%,85.09804%);fill-opacity:1;" d="M 411 206.25 C 413.1875 207.054688 414.582031 207.582031 416.25 209.25 C 416.4375 211.5 416.4375 211.5 416.25 213.75 C 415.753906 214.246094 415.261719 214.738281 414.75 215.25 C 414.253906 215.003906 413.761719 214.753906 413.25 214.5 C 413.140625 213.664062 413.035156 212.828125 412.921875 211.96875 C 412.507812 209.300781 412.347656 208.550781 410.25 207 C 410.496094 206.753906 410.746094 206.503906 411 206.25 Z M 411 206.25 "/>
<path style=" stroke:none;fill-rule:nonzero;fill:rgb(96.470588%,96.470588%,96.470588%);fill-opacity:1;" d="M 350.25 205.5 C 350.25 206.738281 350.25 207.976562 350.25 209.25 C 349.753906 208.753906 349.261719 208.261719 348.75 207.75 C 346.523438 207.503906 344.296875 207.253906 342 207 C 342 212.941406 342 218.878906 342 225 C 341.753906 225 341.503906 225 341.25 225 C 341.25 218.8125 341.25 212.625 341.25 206.25 C 348.75 205.5 348.75 205.5 350.25 205.5 Z M 350.25 205.5 "/>
<path style=" stroke:none;fill-rule:nonzero;fill:rgb(54.901963%,54.901963%,54.901963%);fill-opacity:1;" d="M 260.25 205.5 C 260.746094 205.5 261.238281 205.5 261.75 205.5 C 261.59375 206.429688 261.441406 207.355469 261.28125 208.3125 C 260.953125 210.839844 260.972656 212.347656 262.5 214.5 C 262.253906 214.746094 262.003906 214.996094 261.75 215.25 C 261.574219 216.636719 261.441406 218.027344 261.328125 219.421875 C 261.265625 220.179688 261.203125 220.941406 261.136719 221.722656 C 261.09375 222.308594 261.046875 222.894531 261 223.5 C 260.753906 223.5 260.503906 223.5 260.25 223.5 C 260.003906 221.765625 259.753906 220.035156 259.5 218.25 C 259.253906 218.25 259.003906 218.25 258.75 218.25 C 258.855469 216.40625 258.964844 214.5625 259.078125 212.71875 C 259.109375 212.195312 259.136719 211.671875 259.167969 211.132812 C 259.414062 207.171875 259.414062 207.171875 260.25 205.5 Z M 260.25 205.5 "/>
<path style=" stroke:none;fill-rule:nonzero;fill:rgb(83.529413%,83.529413%,83.529413%);fill-opacity:1;" d="M 294 48.75 C 294.496094 48.996094 294.988281 49.246094 295.5 49.5 C 294.261719 50.738281 293.023438 51.976562 291.75 53.25 C 291.996094 53.746094 292.246094 54.238281 292.5 54.75 C 289.160156 55.863281 289.160156 55.863281 285.75 57 C 286.988281 55.515625 288.226562 54.03125 289.5 52.5 C 289.253906 52.003906 289.003906 51.511719 288.75 51 C 290.476562 50.199219 292.230469 49.453125 294 48.75 Z M 294 48.75 "/>
<path style=" stroke:none;fill-rule:nonzero;fill:rgb(96.078432%,96.078432%,96.078432%);fill-opacity:1;" d="M 442.5 69.75 C 442.996094 69.75 443.488281 69.75 444 69.75 C 442.832031 73.253906 440.9375 75.816406 438.75 78.75 C 438.253906 78.503906 437.761719 78.253906 437.25 78 C 437.4375 76.21875 437.4375 76.21875 438 74.25 C 439.453125 73.453125 439.453125 73.453125 441 72.75 C 441.949219 71.226562 441.949219 71.226562 442.5 69.75 Z M 442.5 69.75 "/>
<path style=" stroke:none;fill-rule:nonzero;fill:rgb(77.254903%,77.254903%,77.254903%);fill-opacity:1;" d="M 279 214.5 C 279.246094 214.5 279.496094 214.5 279.75 214.5 C 279.996094 218.460938 280.246094 222.421875 280.5 226.5 C 281.242188 226.746094 281.984375 226.996094 282.75 227.25 C 280.523438 227.25 278.296875 227.25 276 227.25 C 276.496094 227.003906 276.988281 226.753906 277.5 226.5 C 277.5 225.261719 277.5 224.023438 277.5 222.75 C 277.746094 222.75 277.996094 222.75 278.25 222.75 C 278.496094 220.027344 278.746094 217.304688 279 214.5 Z M 279 214.5 "/>
<path style=" stroke:none;fill-rule:nonzero;fill:rgb(92.54902%,92.54902%,92.54902%);fill-opacity:1;" d="M 312.75 207.75 C 314.53125 207.984375 314.53125 207.984375 316.5 208.5 C 318.15625 210.984375 318.167969 211.757812 318.09375 214.640625 C 318.082031 215.316406 318.066406 215.992188 318.054688 216.6875 C 318.027344 217.460938 318.027344 217.460938 318 218.25 C 317.257812 218.621094 317.257812 218.621094 316.5 219 C 316.417969 218.503906 316.335938 218.003906 316.25 217.492188 C 315.589844 213.820312 315.003906 210.824219 312.75 207.75 Z M 312.75 207.75 "/>
<path style=" stroke:none;fill-rule:nonzero;fill:rgb(83.137256%,83.137256%,83.137256%);fill-opacity:1;" d="M 468.75 42.75 C 469.492188 42.996094 470.234375 43.246094 471 43.5 C 469.019531 45.480469 467.039062 47.460938 465 49.5 C 465.246094 49.996094 465.496094 50.488281 465.75 51 C 464.265625 51 462.78125 51 461.25 51 C 463.65625 48.144531 466.054688 45.339844 468.75 42.75 Z M 468.75 42.75 "/>
<path style=" stroke:none;fill-rule:nonzero;fill:rgb(83.137256%,83.137256%,83.137256%);fill-opacity:1;" d="M 392.25 33.75 C 395.492188 34.992188 397.570312 37.402344 399.9375 39.84375 C 400.5625 40.476562 400.5625 40.476562 401.195312 41.125 C 402.21875 42.164062 403.234375 43.207031 404.25 44.25 C 402 45 402 45 400.359375 44.296875 C 399.910156 44.035156 399.460938 43.769531 399 43.5 C 399.496094 43.253906 399.988281 43.003906 400.5 42.75 C 399.90625 42.164062 399.308594 41.578125 398.695312 40.972656 C 397.921875 40.207031 397.148438 39.4375 396.375 38.671875 C 395.980469 38.285156 395.589844 37.898438 395.183594 37.5 C 394.191406 36.511719 393.21875 35.507812 392.25 34.5 C 392.25 34.253906 392.25 34.003906 392.25 33.75 Z M 392.25 33.75 "/>
<path style=" stroke:none;fill-rule:nonzero;fill:rgb(82.745099%,82.745099%,82.745099%);fill-opacity:1;" d="M 368.25 222 C 368.882812 222.585938 369.519531 223.175781 370.171875 223.78125 C 372.660156 225.878906 374.847656 226.554688 378 227.25 C 378 227.496094 378 227.746094 378 228 C 373.410156 228.375 371.230469 227.4375 367.5 225 C 367.746094 224.011719 367.996094 223.019531 368.25 222 Z M 368.25 222 "/>
<path style=" stroke:none;fill-rule:nonzero;fill:rgb(77.254903%,77.254903%,77.254903%);fill-opacity:1;" d="M 433.5 222 C 433.996094 222 434.488281 222 435 222 C 435.496094 223.238281 435.988281 224.476562 436.5 225.75 C 438.234375 225.996094 439.964844 226.246094 441.75 226.5 C 441.503906 226.996094 441.253906 227.488281 441 228 C 438.039062 228.132812 436.050781 228.070312 433.5 226.5 C 433.5 225.015625 433.5 223.53125 433.5 222 Z M 433.5 222 "/>
<path style=" stroke:none;fill-rule:nonzero;fill:rgb(96.078432%,96.078432%,96.078432%);fill-opacity:1;" d="M 298.5 213 C 298.746094 213 298.996094 213 299.25 213 C 299.496094 216.21875 299.746094 219.433594 300 222.75 C 299.257812 223.121094 299.257812 223.121094 298.5 223.5 C 297.515625 221.53125 297.652344 220.023438 297.65625 217.828125 C 297.65625 217.085938 297.652344 216.339844 297.648438 215.574219 C 297.75 213.75 297.75 213.75 298.5 213 Z M 298.5 213 "/>
<path style=" stroke:none;fill-rule:nonzero;fill:rgb(85.882354%,85.882354%,85.882354%);fill-opacity:1;" d="M 454.5 54 C 455.984375 54 457.46875 54 459 54 C 457.832031 56.863281 455.972656 58.644531 453.75 60.75 C 453.007812 60.503906 452.265625 60.253906 451.5 60 C 452.984375 58.515625 454.46875 57.03125 456 55.5 C 455.503906 55.003906 455.011719 54.511719 454.5 54 Z M 454.5 54 "/>
<path style=" stroke:none;fill-rule:nonzero;fill:rgb(85.490197%,85.490197%,85.490197%);fill-opacity:1;" d="M 436.5 76.5 C 436.996094 76.996094 437.488281 77.488281 438 78 C 437.753906 80.472656 437.53125 81.46875 435.75 83.25 C 435.253906 83.25 434.761719 83.25 434.25 83.25 C 433.507812 83.621094 433.507812 83.621094 432.75 84 C 433.75 81.304688 434.96875 78.933594 436.5 76.5 Z M 436.5 76.5 "/>
<path style=" stroke:none;fill-rule:nonzero;fill:rgb(76.078433%,76.078433%,76.078433%);fill-opacity:1;" d="M 314.25 222.75 C 314.496094 223.246094 314.746094 223.738281 315 224.25 C 315.496094 224.496094 315.988281 224.746094 316.5 225 C 312.457031 227.695312 310.097656 228.339844 305.25 228 C 305.25 227.753906 305.25 227.503906 305.25 227.25 C 306.984375 227.25 308.714844 227.25 310.5 227.25 C 310.5 226.753906 310.5 226.261719 310.5 225.75 C 310.980469 225.671875 311.460938 225.59375 311.953125 225.515625 C 312.464844 225.34375 312.972656 225.175781 313.5 225 C 313.746094 224.257812 313.996094 223.515625 314.25 222.75 Z M 314.25 222.75 "/>
<path style=" stroke:none;fill-rule:nonzero;fill:rgb(77.254903%,77.254903%,77.254903%);fill-opacity:1;" d="M 300 210.75 C 300 213.472656 300 216.195312 300 219 C 299.753906 219 299.503906 219 299.25 219 C 299.003906 217.265625 298.753906 215.535156 298.5 213.75 C 298.253906 215.976562 298.003906 218.203125 297.75 220.5 C 297.503906 220.5 297.253906 220.5 297 220.5 C 296.9375 219.15625 296.894531 217.8125 296.859375 216.46875 C 296.832031 215.71875 296.808594 214.972656 296.78125 214.203125 C 296.890625 213.234375 296.890625 213.234375 297 212.25 C 299.25 210.75 299.25 210.75 300 210.75 Z M 300 210.75 "/>
<path style=" stroke:none;fill-rule:nonzero;fill:rgb(90.196079%,90.196079%,90.196079%);fill-opacity:1;" d="M 412.5 213.75 C 413.242188 213.75 413.984375 213.75 414.75 213.75 C 414.5625 215.15625 414.5625 215.15625 414 216.75 C 412.546875 217.59375 412.546875 217.59375 411 218.25 C 410.503906 218.746094 410.011719 219.238281 409.5 219.75 C 409.003906 218.761719 408.511719 217.769531 408 216.75 C 408.90625 216.425781 408.90625 216.425781 409.828125 216.09375 C 411.847656 215.449219 411.847656 215.449219 412.5 213.75 Z M 412.5 213.75 "/>
<path style=" stroke:none;fill-rule:nonzero;fill:rgb(69.01961%,69.01961%,69.01961%);fill-opacity:1;" d="M 274.5 210.75 C 275.242188 210.996094 275.984375 211.246094 276.75 211.5 C 276.75 211.996094 276.75 212.488281 276.75 213 C 276.253906 213 275.761719 213 275.25 213 C 275.003906 214.484375 274.753906 215.96875 274.5 217.5 C 273.757812 217.5 273.015625 217.5 272.25 217.5 C 272.667969 214.992188 273.265625 212.976562 274.5 210.75 Z M 274.5 210.75 "/>
<path style=" stroke:none;fill-rule:nonzero;fill:rgb(74.901962%,74.901962%,74.901962%);fill-opacity:1;" d="M 332.25 205.5 C 335.21875 205.746094 338.191406 205.996094 341.25 206.25 C 341.25 206.496094 341.25 206.746094 341.25 207 C 340.53125 207.054688 340.53125 207.054688 339.800781 207.109375 C 339.179688 207.167969 338.558594 207.222656 337.921875 207.28125 C 337.304688 207.332031 336.6875 207.386719 336.050781 207.4375 C 335.539062 207.542969 335.027344 207.644531 334.5 207.75 C 334.253906 208.246094 334.003906 208.738281 333.75 209.25 C 333.253906 209.25 332.761719 209.25 332.25 209.25 C 332.25 208.011719 332.25 206.773438 332.25 205.5 Z M 332.25 205.5 "/>
<path style=" stroke:none;fill-rule:nonzero;fill:rgb(82.745099%,82.745099%,82.745099%);fill-opacity:1;" d="M 248.25 93 C 249.78125 94.210938 251.28125 95.464844 252.75 96.75 C 252.75 97.246094 252.75 97.738281 252.75 98.25 C 249.816406 97.296875 248.40625 96.367188 246.75 93.75 C 247.246094 93.503906 247.738281 93.253906 248.25 93 Z M 248.25 93 "/>
<path style=" stroke:none;fill-rule:nonzero;fill:rgb(94.901961%,94.901961%,94.901961%);fill-opacity:1;" d="M 180.75 77.25 C 181.492188 77.746094 182.234375 78.238281 183 78.75 C 183 79.246094 183 79.738281 183 80.25 C 179.53125 81.84375 179.53125 81.84375 177 81 C 178.238281 79.761719 179.476562 78.523438 180.75 77.25 Z M 180.75 77.25 "/>
<path style=" stroke:none;fill-rule:nonzero;fill:rgb(76.862746%,76.862746%,76.862746%);fill-opacity:1;" d="M 444.75 66 C 445.246094 66.246094 445.738281 66.496094 446.25 66.75 C 445.6875 68.578125 445.6875 68.578125 444.75 70.5 C 443.203125 71.015625 443.203125 71.015625 441.75 71.25 C 441.503906 71.746094 441.253906 72.238281 441 72.75 C 440.503906 72.503906 440.011719 72.253906 439.5 72 C 440.242188 70.515625 440.984375 69.03125 441.75 67.5 C 442.492188 67.5 443.234375 67.5 444 67.5 C 444.246094 67.003906 444.496094 66.511719 444.75 66 Z M 444.75 66 "/>
<path style=" stroke:none;fill-rule:nonzero;fill:rgb(88.627452%,88.627452%,88.627452%);fill-opacity:1;" d="M 383.25 222.75 C 383.496094 223.492188 383.746094 224.234375 384 225 C 382.085938 226.765625 381.21875 227.238281 378.5625 227.390625 C 377.882812 227.34375 377.203125 227.296875 376.5 227.25 C 378.75 225.75 381 224.25 383.25 222.75 Z M 383.25 222.75 "/>
<path style=" stroke:none;fill-rule:nonzero;fill:rgb(89.803922%,89.803922%,89.803922%);fill-opacity:1;" d="M 264 216 C 265.453125 216.5625 265.453125 216.5625 267 217.5 C 267.5625 219.09375 267.5625 219.09375 267.75 220.5 C 267.007812 220.746094 266.265625 220.996094 265.5 221.25 C 264.40625 219.265625 264 218.328125 264 216 Z M 264 216 "/>
<path style=" stroke:none;fill-rule:nonzero;fill:rgb(91.764706%,91.764706%,91.764706%);fill-opacity:1;" d="M 442.5 69.75 C 442.996094 69.75 443.488281 69.75 444 69.75 C 443.503906 70.988281 443.011719 72.226562 442.5 73.5 C 442.003906 73.253906 441.511719 73.003906 441 72.75 C 441.496094 71.761719 441.988281 70.769531 442.5 69.75 Z M 439.5 72.75 C 439.996094 72.996094 440.488281 73.246094 441 73.5 C 440.011719 74.242188 439.019531 74.984375 438 75.75 C 438.496094 74.761719 438.988281 73.769531 439.5 72.75 Z M 439.5 72.75 "/>
<path style=" stroke:none;fill-rule:nonzero;fill:rgb(76.862746%,76.862746%,76.862746%);fill-opacity:1;" d="M 178.5 83.25 C 178.996094 83.496094 179.488281 83.746094 180 84 C 178.515625 86.226562 178.515625 86.226562 177 88.5 C 176.257812 88.003906 175.515625 87.511719 174.75 87 C 175.988281 85.761719 177.226562 84.523438 178.5 83.25 Z M 178.5 83.25 "/>
</g>
</svg>
