<?xml version="1.0" encoding="UTF-8"?>
<svg version="1.1" xmlns="http://www.w3.org/2000/svg" width="936" height="352">
<path d="M0 0 C308.88 0 617.76 0 936 0 C936 116.16 936 232.32 936 352 C627.12 352 318.24 352 0 352 C0 235.84 0 119.68 0 0 Z " fill="#000000" transform="translate(0,0)"/>
<path d="M0 0 C0.71256958 0.06312378 1.42513916 0.12624756 2.15930176 0.19128418 C9.50439126 0.85546102 16.7415874 1.73292987 23.98388672 3.14306641 C29.51202032 4.10622049 35.10596147 4.57440921 40.6875 5.125 C48.45514032 5.89373874 56.12708271 6.80585389 63.81713867 8.14746094 C68.83428465 8.96437075 73.88416961 9.46276107 78.9375 10 C91.95162698 11.4378053 104.84258825 13.4425119 117.75 15.625 C118.97203125 15.82867187 120.1940625 16.03234375 121.453125 16.2421875 C122.21109375 16.36851563 122.9690625 16.49484375 123.75 16.625 C120.87958931 18.20662983 118.39532298 19.00941855 115.1640625 19.51953125 C114.24689453 19.6680957 113.32972656 19.81666016 112.38476562 19.96972656 C111.39154297 20.1240918 110.39832031 20.27845703 109.375 20.4375 C107.23171725 20.78221912 105.08849089 21.12728895 102.9453125 21.47265625 C101.79579102 21.65586426 100.64626953 21.83907227 99.46191406 22.02783203 C93.53404302 22.98150031 87.61297258 23.97514719 81.69134521 24.96676636 C76.37796555 25.85525207 71.06391341 26.7397131 65.75 27.625 C66.50219315 27.59536163 67.25438629 27.56572327 68.02937317 27.53518677 C87.99035787 26.76961752 107.92227849 26.46411622 127.8972168 26.49462891 C131.70986319 26.50038245 135.52244072 26.49688308 139.33508492 26.49120808 C181.88619924 26.43677547 181.88619924 26.43677547 201 29.6875 C202.14984375 29.87376953 203.2996875 30.06003906 204.484375 30.25195312 C207.24133602 30.69995929 209.99629182 31.15749338 212.75 31.625 C212.22895596 34.89780788 211.96737468 36.37366052 209.75 38.9375 C204.16917451 42.07671434 198.59982665 40.82899929 192.5 39.75 C170.76746361 35.96256516 148.95652958 36.3470117 126.98083496 36.42938232 C123.32780417 36.44024132 119.67481082 36.43984931 116.02176666 36.43924427 C112.46125258 36.43951796 108.90076195 36.4450292 105.34025574 36.45224571 C103.65960364 36.45538866 101.97894894 36.45738933 100.29829407 36.45813942 C91.66516295 36.46622673 83.12168849 36.60957454 74.51564026 37.39155579 C70.74393551 37.70992064 66.97616763 37.81036897 63.19360352 37.91577148 C47.51194349 38.35515853 31.93985065 39.69650577 16.31959534 41.06626892 C8.1372992 41.77726116 -0.05388487 42.35824797 -8.24975586 42.89038086 C-13.49418174 43.2536441 -18.64933184 43.80048106 -23.84765625 44.58984375 C-33.26650075 45.99321531 -42.73866863 46.60640951 -52.23022461 47.30224609 C-63.51385661 48.12234924 -63.51385661 48.12234924 -74.72265625 49.62109375 C-83.13905656 51.01509528 -91.6247842 51.5516637 -100.125 52.1875 C-102.60497369 52.37594123 -105.08481683 52.5658472 -107.56448364 52.75828552 C-109.09250842 52.87658949 -110.62071884 52.99253024 -112.1491394 53.10560608 C-115.36284433 53.35197452 -118.50221842 53.66384826 -121.69116211 54.1550293 C-125.98568043 54.72215201 -130.18493789 54.80544557 -134.51171875 54.828125 C-135.40256668 54.83491272 -136.29341461 54.84170044 -137.21125793 54.84869385 C-140.12004087 54.86573157 -143.02867022 54.87191005 -145.9375 54.875 C-147.44086914 54.87850464 -147.44086914 54.87850464 -148.97460938 54.88208008 C-162.31366682 54.89374009 -175.47615857 54.42779083 -188.75 53.125 C-201.18477123 51.91447205 -213.50389285 51.2918949 -226 51.25 C-226.75692139 51.24250732 -227.51384277 51.23501465 -228.29370117 51.22729492 C-262.76184568 50.9439951 -298.48448106 65.22839873 -327.7043457 82.81518555 C-333.58244246 86.21893515 -337.45314197 87.22350875 -344.25 86.625 C-342.8067001 82.94011485 -341.21017298 81.71652697 -337.7265625 79.92578125 C-336.33377075 79.20201294 -336.33377075 79.20201294 -334.9128418 78.46362305 C-333.910354 77.96000244 -332.90786621 77.45638184 -331.875 76.9375 C-330.32582886 76.14629761 -330.32582886 76.14629761 -328.74536133 75.33911133 C-309.37449815 65.53718447 -289.25895699 56.30665924 -268.25 50.625 C-267.51064209 50.41785873 -266.77128418 50.21071747 -266.00952148 49.99729919 C-254.30031387 46.79606642 -243.31464364 45.2280911 -231.16015625 45.59375 C-229.94920792 45.62824249 -228.73825958 45.66273499 -227.49061584 45.69827271 C-222.51648518 45.86201004 -217.54674403 46.05691045 -212.57739258 46.33105469 C-193.8261446 47.29978106 -181.72416524 44.51463331 -165.92431641 34.27493286 C-161.51986974 31.55758749 -156.87289327 29.37274858 -152.1875 27.1875 C-151.27540771 26.76047287 -150.36331543 26.33344574 -149.42358398 25.89347839 C-142.14340653 22.50553191 -134.78213621 19.41309777 -127.25 16.625 C-126.52055176 16.35091309 -125.79110352 16.07682617 -125.03955078 15.79443359 C-108.14121746 9.48698749 -90.88219942 4.79690976 -73.1875 1.3125 C-72.392229 1.15305908 -71.59695801 0.99361816 -70.77758789 0.8293457 C-47.72932772 -3.46569959 -23.25485123 -2.08662939 0 0 Z " fill="#F8F8F8" transform="translate(529.25,44.375)"/>
<path d="M0 0 C0 0.99 0 1.98 0 3 C0.598125 3.28875 1.19625 3.5775 1.8125 3.875 C4 5 4 5 7 7 C6.38934726 9.92428096 5.48833377 12.12495256 3.91796875 14.66015625 C3.47904297 15.37365234 3.04011719 16.08714844 2.58789062 16.82226562 C2.12576172 17.56154297 1.66363281 18.30082031 1.1875 19.0625 C0.76791016 19.74376953 0.34832031 20.42503906 -0.08398438 21.12695312 C-1.03668876 22.66781356 -2.0145073 24.19331689 -3.01159096 25.7058382 C-4.59603081 28.33075145 -5.8976959 30.86292169 -7.19609642 33.62682629 C-13.5500008 46.31296507 -13.5500008 46.31296507 -19.25786066 49.10408425 C-25.73784073 50.84839057 -32.39103425 50.49087768 -39.04150391 50.31567383 C-41.26352762 50.3267001 -43.48552334 50.34595092 -45.70741272 50.37275696 C-51.71587836 50.42075478 -57.71761977 50.3505672 -63.72531557 50.25580049 C-70.02394981 50.17391316 -76.32237621 50.19241752 -82.62142944 50.19743347 C-93.19564381 50.19083432 -103.76754676 50.11099686 -114.34082031 49.98266602 C-125.20104506 49.85091738 -136.05889069 49.78721765 -146.91992188 49.7980957 C-147.58916316 49.79875799 -148.25840444 49.79942027 -148.94792576 49.80010263 C-149.9501195 49.80109747 -149.9501195 49.80109747 -150.97255957 49.8021124 C-162.73978232 49.81318267 -174.50619583 49.76614271 -186.27317429 49.68860435 C-191.27221377 49.65578346 -196.27086465 49.64018498 -201.27000809 49.63804054 C-207.15956975 49.63187009 -213.04655622 49.57470764 -218.93531609 49.47865105 C-221.09180162 49.45113065 -223.24857744 49.4403241 -225.40522575 49.44776154 C-242.5519691 49.48953826 -242.5519691 49.48953826 -247.37965012 45.8150692 C-249.85287287 43.33707332 -251.87455158 40.77259025 -254 38 C-263.84634787 30.04398278 -276.22895274 26.09232508 -288.90234375 26.62109375 C-302.53534291 28.28868633 -313.50021988 32.62478964 -322.44287109 43.18115234 C-326.4263834 47.1967014 -328.98353923 48.7132518 -334.64306641 49.13525391 C-337.12979395 49.13368934 -339.61691544 49.07827436 -342.1015625 48.9765625 C-343.41917572 48.96241302 -344.73678894 48.94826355 -346.09432983 48.9336853 C-349.5650086 48.89585126 -353.03137105 48.79796625 -356.50036621 48.68664551 C-360.05303559 48.58356605 -363.60641636 48.538513 -367.16015625 48.48828125 C-374.10852263 48.38165826 -381.05405312 48.21144216 -388 48 C-384.1701541 44.86941115 -380.30488058 42.30812999 -375.9375 40 C-375.22505127 39.62335205 -374.51260254 39.2467041 -373.77856445 38.85864258 C-366.56220993 35.14094538 -359.14226436 31.89110638 -351.6875 28.6875 C-350.52017334 28.18412109 -349.35284668 27.68074219 -348.15014648 27.16210938 C-340.8675023 24.07490712 -333.54368924 21.3754048 -326 19 C-324.85108276 18.63152954 -324.85108276 18.63152954 -323.67895508 18.25561523 C-321.64511367 17.61088774 -319.605689 16.98937137 -317.5625 16.375 C-316.91474609 16.17132813 -316.26699219 15.96765625 -315.59960938 15.7578125 C-303.55785476 12.14875636 -291.40980113 11.63528187 -278.9375 11.6875 C-278.13699219 11.68766113 -277.33648437 11.68782227 -276.51171875 11.68798828 C-264.76265412 11.70417794 -253.18867664 12.36122376 -241.5 13.5 C-211.75649587 16.36711876 -181.78508458 16.2030615 -152.14453125 12.38037109 C-146.98344401 11.75607188 -141.80640795 11.35218294 -136.625 10.9375 C-130.63601571 10.4432388 -124.69865097 9.87004079 -118.75 9 C-110.55823358 7.82318058 -102.32351663 7.31148179 -94.06738281 6.78515625 C-88.62026407 6.41998628 -83.2679429 5.92508113 -77.875 5.0703125 C-67.40104799 3.50223802 -56.82704697 2.8920122 -46.26928711 2.14013672 C-42.57410311 1.87582994 -38.87985079 1.60052471 -35.18554688 1.32421875 C-23.44328166 0.46470309 -11.77789266 -0.33576507 0 0 Z " fill="#010101" transform="translate(582,83)"/>
<path d="M0 0 C4.38889325 0.66498383 7.9811485 2.18757677 12 4 C10.608753 7.96683759 8.73507344 10.91818311 6.1875 14.25 C3.26223853 18.18523546 0.77694489 22.06924917 -1.5078125 26.39453125 C-3.98661117 30.72269542 -6.81639071 34.81923555 -9.61083984 38.94824219 C-11.96235803 42.37992284 -11.96235803 42.37992284 -14 46 C45.4 46 104.8 46 166 46 C156.57567266 30.57232356 156.57567266 30.57232356 146.8125 15.375 C146.14669922 14.35921875 145.48089844 13.3434375 144.79492188 12.296875 C143.19908875 9.86294247 141.60082371 7.43065172 140 5 C143.08888522 2.94074319 143.70935927 2.7609626 147.1875 2.875 C148.445625 2.91625 149.70375 2.9575 151 3 C154 8.75 154 8.75 154 11 C153.34 11 152.68 11 152 11 C152.94579812 13.13442321 153.89438577 15.26755232 154.84594727 17.39941406 C155.66333992 19.23071481 156.47758467 21.06342356 157.28881836 22.89746094 C159.11096622 26.97786907 160.93245512 31.00366469 163.15625 34.8828125 C168.83009081 44.90504771 168 47.92994683 168 61 C-19.11 61 -206.22 61 -399 61 C-399 56.05 -399 51.1 -399 46 C-396.93709717 46.02731201 -394.87419434 46.05462402 -392.7487793 46.08276367 C-385.8955305 46.16537417 -379.04304523 46.18672945 -372.18933392 46.17878246 C-368.03770116 46.17581653 -363.88823995 46.19280349 -359.73706055 46.25708008 C-355.72257022 46.31847798 -351.71120532 46.32525518 -347.69639015 46.29583168 C-346.17307622 46.29394347 -344.64960518 46.31099165 -343.12674522 46.34822655 C-335.79591949 46.51590491 -329.75682116 46.43908048 -324.1878252 41.1423769 C-322.83993893 39.7056962 -321.56444767 38.20209908 -320.29402161 36.69648743 C-312.80951795 27.89889374 -300.96910592 24.98359242 -289.8984375 23.6171875 C-276.52843917 23.07662153 -264.2095692 27.4652289 -254 36 C-253.50799386 36.71695762 -253.01598772 37.43391523 -252.5090723 38.17259884 C-249.85592142 41.67359764 -247.2986714 44.42451715 -242.90346599 45.52487683 C-236.35158965 46.39402646 -229.73444535 46.1886204 -223.14038086 46.11352539 C-220.90261266 46.12085415 -218.66485443 46.13213607 -216.42712402 46.14706421 C-210.36745445 46.17632541 -204.30913717 46.15040568 -198.24955058 46.11447453 C-191.91138987 46.08630934 -185.57341508 46.10903338 -179.23524475 46.12632751 C-168.60203783 46.1485012 -157.96932189 46.13940817 -147.33618164 46.10620117 C-136.38755058 46.07209498 -125.43916183 46.05694559 -114.49047852 46.06713867 C-113.47695329 46.0680724 -113.47695329 46.0680724 -112.4429528 46.06902499 C-109.05300397 46.07226448 -105.66305566 46.07587505 -102.27310741 46.07967007 C-74.1819192 46.11063848 -46.09108705 46.07599301 -18 46 C-17.69889816 45.22475983 -17.39779633 44.44951965 -17.08757019 43.65078735 C-15.95817489 40.89805764 -14.59789058 38.58587038 -12.98828125 36.0859375 C-12.39466797 35.15910156 -11.80105469 34.23226562 -11.18945312 33.27734375 C-10.26036133 31.84068359 -10.26036133 31.84068359 -9.3125 30.375 C-8.71244141 29.44042969 -8.11238281 28.50585938 -7.49414062 27.54296875 C-6.89408203 26.60839844 -6.29402344 25.67382812 -5.67578125 24.7109375 C-5.07588379 23.77604492 -4.47598633 22.84115234 -3.85791016 21.87792969 C-2.57628914 19.89268021 -1.28359115 17.91455306 0.01806641 15.94238281 C0.6579248 14.96366211 1.2977832 13.98494141 1.95703125 12.9765625 C2.54073486 12.09307129 3.12443848 11.20958008 3.72583008 10.29931641 C5.24235214 8.00078717 5.24235214 8.00078717 5 5 C2.56249975 2.31232422 2.56249975 2.31232422 0 0 Z " fill="#FE1616" transform="translate(583,85)"/>
<path d="M0 0 C186.78 0 373.56 0 566 0 C566 4.62 566 9.24 566 14 C379.22 14 192.44 14 0 14 C0 9.38 0 4.76 0 0 Z " fill="#FF1616" transform="translate(185,159)"/>
<path d="M0 0 C2.58365232 0.01075605 5.16661202 -0.00000293 7.75024414 -0.01269531 C16.31941073 -0.02029735 24.78767489 0.27883444 33.31469727 1.15917969 C34.0775856 1.23771179 34.84047394 1.3162439 35.6264801 1.39715576 C41.72968703 2.09470378 47.46739159 3.48440416 53.36938477 5.20214844 C57.08516192 6.28028078 60.81534506 7.18354676 64.58032227 8.07324219 C71.33307778 9.71779657 77.95606671 11.7239405 84.58032227 13.82324219 C85.50852783 14.11626221 86.4367334 14.40928223 87.39306641 14.71118164 C92.39940578 16.32213018 97.22378258 18.09717695 102.01782227 20.26074219 C102.01782227 20.59074219 102.01782227 20.92074219 102.01782227 21.26074219 C100.76050293 21.36620361 99.50318359 21.47166504 98.20776367 21.58032227 C69.02456615 23.97440907 69.02456615 23.97440907 39.91650391 27.11987305 C29.82362078 28.34003443 19.70469715 29.22494546 9.58032227 30.13574219 C-5.36522949 31.48252223 -20.26902093 33.04847289 -35.16967773 34.82324219 C-102.21177043 42.74521115 -102.21177043 42.74521115 -129.98217773 39.26074219 C-129.98217773 38.27074219 -129.98217773 37.28074219 -129.98217773 36.26074219 C-120.44655775 30.98600987 -110.81590254 26.30198466 -100.7878418 22.04248047 C-98.2006286 20.92238086 -95.65671009 19.71369055 -93.10717773 18.51074219 C-88.94857896 16.6023867 -84.81078402 15.22469324 -80.40795898 13.99902344 C-78.04168577 13.27885333 -75.86978263 12.38033734 -73.60717773 11.38574219 C-65.41656255 8.0054883 -56.59937294 6.22696728 -47.98217773 4.26074219 C-47.27319336 4.08833008 -46.56420898 3.91591797 -45.83374023 3.73828125 C-30.85467321 0.36799117 -15.29132576 -0.07530533 0 0 Z " fill="#040404" transform="translate(481.982177734375,53.7392578125)"/>
<path d="M0 0 C0 3.96 0 7.92 0 12 C-0.66 12 -1.32 12 -2 12 C-2 11.34 -2 10.68 -2 10 C-15.83649763 6.51166422 -15.83649763 6.51166422 -30 5 C-30.77988281 4.9484375 -31.55976563 4.896875 -32.36328125 4.84375 C-44.36671437 4.37225672 -57.00614606 7.19100061 -67 14 C-70.17017098 17.28319915 -71.55738358 19.40931373 -71.5 24 C-71.5103125 24.825 -71.520625 25.65 -71.53125 26.5 C-70.80795858 29.90372435 -69.41782732 31.51715548 -67 34 C-60.52927196 38.14838281 -53.61105904 40.96090151 -46 42 C-45.21109375 42.10957031 -44.4221875 42.21914062 -43.609375 42.33203125 C-32.59018597 43.63146392 -22.70829831 43.16009415 -12 40 C-10.07908908 38.28373595 -10.07908908 38.28373595 -10 31 C-20.89 31 -31.78 31 -43 31 C-43 31.66 -43 32.32 -43 33 C-43.66 33 -44.32 33 -45 33 C-45 28.38 -45 23.76 -45 19 C-44.34 19 -43.68 19 -43 19 C-42.505 19.99 -42.505 19.99 -42 21 C-36.66147206 21.0494731 -31.32307786 21.08575425 -25.984375 21.10986328 C-24.16859614 21.11991491 -22.35283344 21.13355828 -20.53710938 21.15087891 C-17.92574065 21.17516406 -15.31458613 21.18649148 -12.703125 21.1953125 C-11.48728729 21.21079636 -11.48728729 21.21079636 -10.24688721 21.22659302 C-6.02615042 21.22743142 -3.86657627 20.93328814 0 19 C0 28.57 0 38.14 0 48 C-23.41486904 54.45927422 -48.50459759 55.33712955 -70.40234375 43.63671875 C-76.08508627 40.05616369 -80.87843583 35.48949039 -83 29 C-83.6193484 23.8284409 -83.70405286 19.52544787 -81.5 14.75 C-60.62605108 -8.21134381 -28.04440443 -7.65157928 0 0 Z " fill="#F5F5F5" transform="translate(451,192)"/>
<path d="M0 0 C5.61 0 11.22 0 17 0 C17.495 2.475 17.495 2.475 18 5 C19.61217575 7.64600596 19.61217575 7.64600596 21.75 10.3125 C22.14268066 10.82103516 22.53536133 11.32957031 22.93994141 11.85351562 C24.28130512 13.57878866 25.63900028 15.29018041 27 17 C27.50176758 17.63470215 28.00353516 18.2694043 28.52050781 18.92333984 C34.89504704 26.96533883 41.4393547 34.77235763 48.46484375 42.25390625 C51.3940988 45.42688976 54.18963904 48.72124554 57 52 C50.73 52 44.46 52 38 52 C38.33 50.68 38.66 49.36 39 48 C29.48682197 38.75862706 15.02559371 34.16299944 2 33 C1.14535156 32.90074219 0.29070313 32.80148438 -0.58984375 32.69921875 C-5.75929483 32.33756991 -9.16914036 32.4993763 -13.25 35.875 C-17.45412462 40.10518325 -20.78031522 44.99942708 -24 50 C-22.515 50.495 -22.515 50.495 -21 51 C-21 51.33 -21 51.66 -21 52 C-27.6 52 -34.2 52 -41 52 C-40 50 -40 50 -37.31640625 48.85546875 C-32.95480717 46.41523369 -30.81383585 43.32053092 -27.9375 39.3125 C-26.79916195 37.77304588 -25.65847327 36.23532758 -24.515625 34.69921875 C-23.93619141 33.91724121 -23.35675781 33.13526367 -22.75976562 32.32958984 C-20.00211814 28.67899712 -17.0978653 25.15413798 -14.1875 21.625 C-4.74488973 11.70716797 -4.74488973 11.70716797 0 0 Z " fill="#F6F6F6" transform="translate(613,191)"/>
<path d="M0 0 C5.61 0 11.22 0 17 0 C17.495 2.475 17.495 2.475 18 5 C19.56204673 7.28254799 21.12469191 9.37360496 22.875 11.5 C23.36532715 12.10948486 23.8556543 12.71896973 24.36083984 13.34692383 C28.61167636 18.60246652 32.97717221 23.76236854 37.37109375 28.8984375 C39.8672705 31.824486 42.27926634 34.81356752 44.6875 37.8125 C48.08013049 41.99511123 51.67315793 45.82036528 55.56640625 49.5390625 C57 51 57 51 57 52 C50.73 52 44.46 52 38 52 C38.33 50.35 38.66 48.7 39 47 C25.71771428 37.01254484 9.56394405 32.942201 -6.88671875 32.50390625 C-12.13333205 33.73555115 -15.32134988 38.36792326 -18.375 42.5 C-19.43847656 43.90765625 -19.43847656 43.90765625 -20.5234375 45.34375 C-22.45672298 48.1092365 -22.45672298 48.1092365 -21 52 C-27.27 52 -33.54 52 -40 52 C-37 49 -37 49 -34.6328125 47.2109375 C-31.58907787 44.65492296 -29.26318705 41.77195218 -26.875 38.625 C-25.90380179 37.36706708 -24.93244312 36.10925802 -23.9609375 34.8515625 C-23.22375488 33.8910498 -23.22375488 33.8910498 -22.47167969 32.91113281 C-20.61714527 30.50282236 -18.74020519 28.11275576 -16.85888672 25.7253418 C-15.95477265 24.57741257 -15.052743 23.4278385 -14.15283203 22.27661133 C-11.74278734 19.19527763 -9.30561471 16.14073747 -6.828125 13.11328125 C-6.31314453 12.47712891 -5.79816406 11.84097656 -5.26757812 11.18554688 C-4.27461278 9.95999506 -3.27358192 8.74092352 -2.26367188 7.52929688 C-0.76006099 5.71168605 -0.76006099 5.71168605 1 3 C0.505 1.515 0.505 1.515 0 0 Z " fill="#F6F6F6" transform="translate(219,191)"/>
<path d="M0 0 C4.62 0 9.24 0 14 0 C13.67 0.99 13.34 1.98 13 3 C14.0725 3.061875 15.145 3.12375 16.25 3.1875 C35.69471087 5.65666963 53.28729513 21.11673253 68 33 C68.02469081 28.6217488 68.04285557 24.24353433 68.05493164 19.86523438 C68.05996514 18.37531834 68.06679242 16.88540726 68.07543945 15.39550781 C68.08754805 13.25584696 68.09323807 11.11625132 68.09765625 8.9765625 C68.10551147 7.04417725 68.10551147 7.04417725 68.11352539 5.07275391 C68.21542631 2.08594772 68.21542631 2.08594772 67 0 C71.62 0 76.24 0 81 0 C81 0.66 81 1.32 81 2 C80.34 2 79.68 2 79 2 C79 18.17 79 34.34 79 51 C79.66 51.33 80.32 51.66 81 52 C76.38 52 71.76 52 67 52 C67.66 51.67 68.32 51.34 69 51 C57.49292039 34.05321003 36.57773552 19.18730887 16.66796875 14.37109375 C15.06924927 13.98135376 15.06924927 13.98135376 13.43823242 13.58374023 C12.63361572 13.39110596 11.82899902 13.19847168 11 13 C11.11808403 18.23290697 11.24232036 23.46561751 11.37231445 28.69824219 C11.4156833 30.47912603 11.45735694 32.26005198 11.49731445 34.04101562 C11.5549699 36.59778548 11.6186777 39.15434298 11.68359375 41.7109375 C11.70030624 42.50994476 11.71701874 43.30895203 11.73423767 44.13217163 C11.75392991 48.19806368 11.75392991 48.19806368 13 52 C8.71 52 4.42 52 0 52 C0.33 51.34 0.66 50.68 1 50 C1.09489915 48.46847687 1.12794506 46.93289728 1.12939453 45.3984375 C1.13254669 44.44404785 1.13569885 43.4896582 1.13894653 42.50634766 C1.1369223 41.47300293 1.13489807 40.4396582 1.1328125 39.375 C1.13376923 38.31716309 1.13472595 37.25932617 1.13571167 36.16943359 C1.13639301 33.93001242 1.13454193 31.69058927 1.13037109 29.45117188 C1.12502222 26.01427799 1.13031767 22.5775148 1.13671875 19.140625 C1.13605796 16.96874971 1.13477678 14.7968745 1.1328125 12.625 C1.13483673 11.59165527 1.13686096 10.55831055 1.13894653 9.49365234 C1.13579437 8.5392627 1.13264221 7.58487305 1.12939453 6.6015625 C1.12859894 5.75932129 1.12780334 4.91708008 1.12698364 4.04931641 C1.12999161 1.93411537 1.12999161 1.93411537 0 0 Z " fill="#F4F4F4" transform="translate(673,191)"/>
<path d="M0 0 C4.29 0 8.58 0 13 0 C12.67 0.99 12.34 1.98 12 3 C13.155 3.020625 14.31 3.04125 15.5 3.0625 C33.53165903 5.15394634 49.55450537 18.78034029 63.171875 29.75 C65.96908824 32.04001447 65.96908824 32.04001447 69 34 C69 23.44 69 12.88 69 2 C68.34 2 67.68 2 67 2 C67 1.34 67 0.68 67 0 C71.29 0 75.58 0 80 0 C80 0.66 80 1.32 80 2 C79.34 2 78.68 2 78 2 C78.11741384 8.79944841 78.24224834 15.59873113 78.37231445 22.39794922 C78.41570376 24.71237069 78.45737584 27.026825 78.49731445 29.34130859 C78.55492032 32.66253573 78.61864251 35.98359692 78.68359375 39.3046875 C78.70030624 40.34430634 78.71701874 41.38392517 78.73423767 42.45504761 C78.7641555 43.89631516 78.7641555 43.89631516 78.79467773 45.36669922 C78.81799416 46.63910965 78.81799416 46.63910965 78.84178162 47.93722534 C78.87429958 50.06318305 78.87429958 50.06318305 80 52 C75.71 52 71.42 52 67 52 C66.67 50.35 66.34 48.7 66 47 C53.24116426 30.77883063 31.15825189 16.88537735 11 13 C11.11808403 18.23290697 11.24232036 23.46561751 11.37231445 28.69824219 C11.4156833 30.47912603 11.45735694 32.26005198 11.49731445 34.04101562 C11.5549699 36.59778548 11.6186777 39.15434298 11.68359375 41.7109375 C11.70030624 42.50994476 11.71701874 43.30895203 11.73423767 44.13217163 C11.75392991 48.19806368 11.75392991 48.19806368 13 52 C8.38 52 3.76 52 -1 52 C-0.67 51.34 -0.34 50.68 0 50 C0.66 50 1.32 50 2 50 C2 34.16 2 18.32 2 2 C1.34 2 0.68 2 0 2 C0 1.34 0 0.68 0 0 Z " fill="#F7F7F7" transform="translate(280,191)"/>
<path d="M0 0 C-2.475 2.475 -2.475 2.475 -5 5 C-4.67 5.66 -4.34 6.32 -4 7 C-5.11375 7.4846875 -6.2275 7.969375 -7.375 8.46875 C-15.28337562 11.93291498 -23.14299284 15.46825629 -30.875 19.3125 C-31.53371094 19.63734375 -32.19242188 19.9621875 -32.87109375 20.296875 C-36.2209838 21.98231028 -38.97239451 23.72929589 -42 26 C-38.7 26.33 -35.4 26.66 -32 27 C-32 27.99 -32 28.98 -32 30 C-32.33 30.33 -32.66 30.66 -33 31 C-18.81 31.33 -4.62 31.66 10 32 C10 32.33 10 32.66 10 33 C-32.58193715 33.56951151 -32.58193715 33.56951151 -53.5 31.5 C-65.93436112 30.2868617 -78.25420025 29.66689387 -90.75 29.625 C-91.50692139 29.61750732 -92.26384277 29.61001465 -93.04370117 29.60229492 C-127.51184568 29.3189951 -163.23448106 43.60339873 -192.4543457 61.19018555 C-198.33244246 64.59393515 -202.20314197 65.59850875 -209 65 C-207.5567001 61.31511485 -205.96017298 60.09152697 -202.4765625 58.30078125 C-201.08377075 57.57701294 -201.08377075 57.57701294 -199.6628418 56.83862305 C-198.660354 56.33500244 -197.65786621 55.83138184 -196.625 55.3125 C-195.59221924 54.78503174 -194.55943848 54.25756348 -193.49536133 53.71411133 C-174.12449815 43.91218447 -154.00895699 34.68165924 -133 29 C-132.26064209 28.79285873 -131.52128418 28.58571747 -130.75952148 28.37229919 C-119.05031387 25.17106642 -108.06464364 23.6030911 -95.91015625 23.96875 C-94.69920792 24.00324249 -93.48825958 24.03773499 -92.24061584 24.07327271 C-87.26648518 24.23701004 -82.29674403 24.43191045 -77.32739258 24.70605469 C-58.58560173 25.67429249 -46.51889446 22.89254769 -30.72633362 12.67070007 C-26.1079742 9.84056462 -21.22120305 7.58854436 -16.3125 5.3125 C-15.40869095 4.88697845 -14.5048819 4.46145691 -13.57368469 4.02304077 C-2.42760512 -1.21380256 -2.42760512 -1.21380256 0 0 Z " fill="#E8E8E8" transform="translate(394,66)"/>
<path d="M0 0 C4.11252021 0.5035739 5.30538398 2.40021692 8.0625 5.375 C10.74040896 6.24738858 10.74040896 6.24738858 13.0625 6.375 C13.0625 6.705 13.0625 7.035 13.0625 7.375 C12.40454437 7.42067108 11.74658875 7.46634216 11.06869507 7.51339722 C4.1563618 7.99421568 -2.75544134 8.48218644 -9.66699219 8.97412109 C-12.23880568 9.15625629 -14.81074458 9.33663047 -17.3828125 9.51513672 C-21.10191488 9.77356813 -24.82050465 10.03854836 -28.5390625 10.3046875 C-30.2352623 10.42044632 -30.2352623 10.42044632 -31.96572876 10.5385437 C-38.94362987 11.04555703 -45.81178869 11.88553844 -52.73077393 12.91824341 C-56.79487512 13.49712198 -60.84808064 13.86804559 -64.94140625 14.15625 C-65.71201889 14.21526489 -66.48263153 14.27427979 -67.27659607 14.33508301 C-70.48979942 14.58111116 -73.70374377 14.81662557 -76.91772461 15.05224609 C-85.58372869 15.69352161 -94.12042196 16.46966974 -102.7019043 17.87988281 C-109.1258495 18.86288748 -115.5900613 19.44639381 -122.0625 20 C-122.82388275 20.06603424 -123.5852655 20.13206848 -124.36972046 20.20010376 C-147.5031759 22.13734734 -170.74571425 21.65249349 -193.9375 21.375 C-192.74780273 19.39990234 -192.74780273 19.39990234 -190.9375 17.375 C-188.70336914 16.92431641 -188.70336914 16.92431641 -185.97265625 16.9765625 C-184.35230469 16.97487061 -184.35230469 16.97487061 -182.69921875 16.97314453 C-181.47847656 16.98200684 -180.25773437 16.99086914 -179 17 C-163.05506799 16.80896018 -147.27689222 15.32403622 -131.42106247 13.70250702 C-129.46488326 13.50279563 -127.50845909 13.30548836 -125.55203247 13.10821533 C-111.9528952 11.73229879 -98.38849508 10.21744516 -84.84236145 8.39151001 C-77.15210032 7.36816303 -69.46165084 6.63426773 -61.72781372 6.03778076 C-49.2719227 5.07355868 -36.8597327 3.8977146 -24.45776367 2.37695312 C-18.49214472 1.64755886 -12.53224281 1.05487688 -6.54052734 0.58203125 C-4.35862648 0.40849421 -2.17893163 0.2075173 0 0 Z " fill="#EEEEEE" transform="translate(553.9375,76.625)"/>
<path d="M0 0 C4.62 0 9.24 0 14 0 C14 0.66 14 1.32 14 2 C13.34 2 12.68 2 12 2 C12 15.86 12 29.72 12 44 C24.19055307 43.88021983 24.19055307 43.88021983 36.38085938 43.7421875 C41.3517662 43.6818472 46.3226338 43.62365833 51.29370117 43.578125 C55.30086927 43.54128727 59.30782394 43.49493164 63.3148098 43.44193649 C64.84459888 43.42338445 66.37443373 43.40827947 67.90429115 43.39665604 C70.0448969 43.37980716 72.18501299 43.3507764 74.32543945 43.31884766 C75.54455521 43.30552399 76.76367096 43.29220032 78.01972961 43.2784729 C81.18322959 43.22082005 81.18322959 43.22082005 84 41 C84 44.63 84 48.26 84 52 C56.28 52 28.56 52 0 52 C0.99 51.505 0.99 51.505 2 51 C2 34.83 2 18.66 2 2 C1.34 2 0.68 2 0 2 C0 1.34 0 0.68 0 0 Z " fill="#F5F5F5" transform="translate(459,191)"/>
<path d="M0 0 C2.1590271 1.64545571 4.28707331 3.27796247 6.30859375 5.08984375 C6.30859375 5.41984375 6.30859375 5.74984375 6.30859375 6.08984375 C-19.10140625 6.08984375 -44.51140625 6.08984375 -70.69140625 6.08984375 C-51.96260357 -15.76042604 -22.73229509 -16.13366081 0 0 Z " fill="#020202" transform="translate(328.69140625,124.91015625)"/>
<path d="M0 0 C27.17350973 -0.15380339 53.12195177 0.43682027 80 5 C79.47895596 8.27280788 79.21737468 9.74866052 77 12.3125 C71.41917451 15.45171434 65.84982665 14.20399929 59.75 13.125 C40.58981764 9.73918956 21.21257449 9.60844581 1.81719971 9.39910889 C-1.78406135 9.35834145 -5.38518234 9.30759084 -8.98632812 9.2578125 C-15.99078164 9.16239572 -22.99532428 9.0775855 -30 9 C-30 8.67 -30 8.34 -30 8 C-18.12 7.67 -6.24 7.34 6 7 C4.02 4.69 2.04 2.38 0 0 Z " fill="#F3F3F3" transform="translate(662,71)"/>
<path d="M0 0 C4.07592745 2.23022446 6.24910972 4.68571945 8.3125 8.8125 C8.95703357 13.84906946 9.09140427 18.39007476 6.25 22.75 C2.60186246 27.10721217 -1.62686511 28.55492064 -7.1875 29.25 C-12.14723216 28.63003348 -15.67606093 27.09607494 -19.015625 23.3046875 C-22.02890347 18.74232926 -22.63479715 14.16424059 -21.6875 8.8125 C-17.35034124 -0.38227658 -9.46272276 -3.0473175 0 0 Z " fill="#050505" transform="translate(507.6875,275.1875)"/>
<path d="M0 0 C2.69676712 2.40556692 3.54941022 4.49866323 3.96484375 8.0703125 C4.00683107 18.06329399 4.00683107 18.06329399 0.6640625 22.484375 C-4.50816307 26.33819013 -7.94090806 27.19493383 -14.3359375 26.484375 C-19.68334164 24.53051579 -22.79211893 21.57201213 -25.3359375 16.484375 C-25.93229398 11.9324388 -26.35852869 7.42661196 -24.171875 3.2734375 C-17.36385639 -5.00092358 -8.74108155 -5.64165423 0 0 Z " fill="#030303" transform="translate(421.3359375,277.515625)"/>
<path d="M0 0 C4.62 0 9.24 0 14 0 C14 0.66 14 1.32 14 2 C13.34 2 12.68 2 12 2 C12.11741384 8.79944841 12.24224834 15.59873113 12.37231445 22.39794922 C12.41570376 24.71237069 12.45737584 27.026825 12.49731445 29.34130859 C12.55492032 32.66253573 12.61864251 35.98359692 12.68359375 39.3046875 C12.70030624 40.34430634 12.71701874 41.38392517 12.73423767 42.45504761 C12.75418289 43.41589264 12.77412811 44.37673767 12.79467773 45.36669922 C12.81022202 46.21497284 12.8257663 47.06324646 12.84178162 47.93722534 C12.87429958 50.06318305 12.87429958 50.06318305 14 52 C9.38 52 4.76 52 0 52 C0.33 51.34 0.66 50.68 1 50 C1.11822971 48.45857825 1.17699811 46.91238903 1.20532227 45.36669922 C1.2352401 43.92543167 1.2352401 43.92543167 1.26576233 42.45504761 C1.28247482 41.41542877 1.29918732 40.37580994 1.31640625 39.3046875 C1.3475779 37.71081711 1.3475779 37.71081711 1.37937927 36.08474731 C1.44490261 32.68156562 1.50377273 29.27830511 1.5625 25.875 C1.60568257 23.57160634 1.64929677 21.26822074 1.69335938 18.96484375 C1.80058682 13.30997979 1.90234802 7.65503697 2 2 C1.34 2 0.68 2 0 2 C0 1.34 0 0.68 0 0 Z " fill="#EAEAEA" transform="translate(552,191)"/>
<path d="M0 0 C4.62226218 -0.19041558 9.24149151 -0.30509393 13.86724854 -0.36425781 C15.47008654 -0.39116593 17.07274204 -0.43240979 18.67486572 -0.48730469 C32.05682604 -0.93711848 32.05682604 -0.93711848 36.46759033 1.65429688 C38.23052729 3.38580814 39.5979841 4.95017554 40.8147583 7.09570312 C40.8147583 7.42570312 40.8147583 7.75570312 40.8147583 8.09570312 C39.8353125 8.12075928 38.8558667 8.14581543 37.84674072 8.17163086 C17.49744512 8.69482868 -2.8452576 9.27916317 -23.1852417 10.09570312 C-22.76371826 9.61359375 -22.34219482 9.13148437 -21.90789795 8.63476562 C-21.36004639 8.003125 -20.81219482 7.37148437 -20.2477417 6.72070312 C-19.70246826 6.09421875 -19.15719482 5.46773438 -18.59539795 4.82226562 C-17.11565546 3.13937978 -17.11565546 3.13937978 -16.1852417 1.09570312 C-10.85248867 0.25398955 -5.39129635 0.23611297 0 0 Z " fill="#FDFDFD" transform="translate(628.1852416992188,70.904296875)"/>
<path d="M0 0 C-2.66963122 7.36646904 -6.51340336 15.30780552 -13 20 C-18.98183216 21.97717103 -25.33704669 21.52352606 -31.54785156 21.14355469 C-34.81331052 20.95238684 -38.04247758 21.00812908 -41.3125 21.0625 C-42.87506442 21.04724484 -44.43763233 21.02911244 -46 21 C-42.08056529 17.64586838 -38.04064989 15.19418329 -33.5 12.8125 C-32.77603027 12.43174316 -32.05206055 12.05098633 -31.30615234 11.65869141 C-25.18145349 8.49876554 -18.94077796 5.63078736 -12.625 2.875 C-11.71556641 2.4725708 -10.80613281 2.0701416 -9.86914062 1.65551758 C-8.59200195 1.11060669 -8.59200195 1.11060669 -7.2890625 0.5546875 C-6.53318848 0.22968262 -5.77731445 -0.09532227 -4.99853516 -0.43017578 C-3 -1 -3 -1 0 0 Z " fill="#0B0B0B" transform="translate(240,110)"/>
<path d="M0 0 C0.97324219 0.51949219 1.94648437 1.03898437 2.94921875 1.57421875 C9.38740346 5.34226956 14.65924457 9.89309194 19 16 C19 16.66 19 17.32 19 18 C15.61807584 16.49519888 13.07173901 14.50640394 10.25 12.125 C6.0262847 8.7001986 2.01023495 6.08506747 -3 4 C-4.00353516 3.57074219 -4.00353516 3.57074219 -5.02734375 3.1328125 C-17.47211419 -1.88331378 -31.11141884 -1.32614003 -43.515625 3.44921875 C-51.36458924 6.94253579 -61.01445791 13.02891582 -65 21 C-65.99 20.67 -66.98 20.34 -68 20 C-61.52810127 10.87296333 -55.03021975 4.17159919 -45 -1 C-44.22527344 -1.41636719 -43.45054687 -1.83273438 -42.65234375 -2.26171875 C-29.60390652 -8.15522843 -12.35692388 -6.67713397 0 0 Z " fill="#E9E9E9" transform="translate(687,104)"/>
<path d="M0 0 C2.39706123 -0.10854617 4.78915838 -0.18753157 7.1875 -0.25 C7.86103516 -0.28351563 8.53457031 -0.31703125 9.22851562 -0.3515625 C12.85949252 -0.42241083 14.84111057 -0.0989113 17.94921875 1.8359375 C20 4 20 4 20.625 6.875 C19.77434798 11.12826012 17.97059025 12.88088023 15 16 C16.07661281 17.4425402 17.16160103 18.87883161 18.25 20.3125 C18.85328125 21.11300781 19.4565625 21.91351563 20.078125 22.73828125 C21.90270136 24.88549612 23.68297046 26.41601299 26 28 C23.3125 28.3125 23.3125 28.3125 20 28 C16.29764399 25.02005492 13.77208012 21.40656662 11.2109375 17.453125 C9.9616727 15.694805 9.9616727 15.694805 7 15 C7 18.96 7 22.92 7 27 C7.99 27.33 8.98 27.66 10 28 C6.7 28 3.4 28 0 28 C0.99 27.67 1.98 27.34 3 27 C3 18.42 3 9.84 3 1 C2.01 0.67 1.02 0.34 0 0 Z " fill="#C7C7C7" transform="translate(535,275)"/>
<path d="M0 0 C4.943075 3.57185663 9.7411371 7.46205707 13.5625 12.25 C13.5625 12.91 13.5625 13.57 13.5625 14.25 C10.20364197 13.23216423 8.01873983 11.8582319 5.5 9.5 C-6.23700726 -0.93289534 -20.26965057 -2.70847323 -35.29589844 -1.94091797 C-45.68265982 -1.01496637 -56.27731957 4.66396713 -63.4375 12.1875 C-64.4275 13.2084375 -64.4275 13.2084375 -65.4375 14.25 C-66.4275 14.25 -67.4175 14.25 -68.4375 14.25 C-64.72309363 5.89258566 -56.5666563 -0.04196379 -48.4375 -3.75 C-31.88242404 -9.61439434 -15.25289141 -9.77108302 0 0 Z " fill="#E4E4E4" transform="translate(323.4375,116.75)"/>
<path d="M0 0 C0.66 0 1.32 0 2 0 C3.50605402 3.28893003 5.00380532 6.58157446 6.5 9.875 C7.14388672 11.28072266 7.14388672 11.28072266 7.80078125 12.71484375 C8.20683594 13.61074219 8.61289062 14.50664062 9.03125 15.4296875 C9.40830078 16.25710449 9.78535156 17.08452148 10.17382812 17.93701172 C11 20 11 20 11 22 C11.66 22 12.32 22 13 22 C13.37125 20.783125 13.7425 19.56625 14.125 18.3125 C16.22024496 11.97615532 19.12789535 6.01375958 22 0 C22.66 0 23.32 0 24 0 C25.81847768 9.32190498 26.54362211 18.53616378 27 28 C27.99 28.33 28.98 28.66 30 29 C27.03 29 24.06 29 21 29 C21.66 28.67 22.32 28.34 23 28 C22.835 27.071875 22.67 26.14375 22.5 25.1875 C21.76299718 20.14266379 21.91723185 15.08564289 22 10 C21.34 10 20.68 10 20 10 C19.9071875 11.2065625 19.9071875 11.2065625 19.8125 12.4375 C18.89804627 16.44702791 17.28898358 19.27581457 15.15625 22.75390625 C13.91064113 25.17358564 13.4142153 27.3217215 13 30 C12.34 30 11.68 30 11 30 C10.75765625 29.443125 10.5153125 28.88625 10.265625 28.3125 C7.98805518 23.12664872 5.56963021 18.0474879 3 13 C2.67 13 2.34 13 2 13 C1.34 17.95 0.68 22.9 0 28 C0.66 28.33 1.32 28.66 2 29 C-0.64 29 -3.28 29 -6 29 C-5.34 28.34 -4.68 27.68 -4 27 C-3.45836952 24.41977332 -3.45836952 24.41977332 -3.18359375 21.40625 C-3.05919922 20.29378906 -2.93480469 19.18132812 -2.80664062 18.03515625 C-2.68482422 16.86855469 -2.56300781 15.70195312 -2.4375 14.5 C-2.18944753 12.19756425 -1.93830198 9.89545896 -1.68359375 7.59375 C-1.57587646 6.56958984 -1.46815918 5.54542969 -1.35717773 4.49023438 C-1 2 -1 2 0 0 Z " fill="#CFCFCF" transform="translate(347,274)"/>
<path d="M0 0 C-3.5691637 4.84434696 -6.19708002 6.9203896 -11.9375 9.125 C-20.11610677 12.38770592 -27.64543366 16.57065468 -35.19702148 21.08837891 C-41.17012647 24.51202111 -45.11092051 25.62373151 -52 25 C-50.5567001 21.31511485 -48.96017298 20.09152697 -45.4765625 18.30078125 C-44.54682617 17.81778564 -43.61708984 17.33479004 -42.65917969 16.8371582 C-41.65790039 16.334021 -40.65662109 15.83088379 -39.625 15.3125 C-38.6030957 14.78938232 -37.58119141 14.26626465 -36.52832031 13.72729492 C-5.85883482 -1.81825908 -5.85883482 -1.81825908 0 0 Z " fill="#EFEFEF" transform="translate(237,106)"/>
<path d="M0 0 C3.375 1.6875 3.375 1.6875 6 4 C6.375 6.75 6.375 6.75 6 9 C1.01770224 10.91626837 -3.72684667 11.5547115 -9 12 C-9 12.99 -9 13.98 -9 15 C-10.79093191 15.08086147 -12.58289628 15.13912702 -14.375 15.1875 C-15.87160156 15.23970703 -15.87160156 15.23970703 -17.3984375 15.29296875 C-18.25695312 15.19628906 -19.11546875 15.09960938 -20 15 C-22.1519437 11.77208445 -22.20086443 10.71599191 -22 7 C-19.81725275 6.02494057 -17.6331478 5.05345146 -15.4453125 4.08984375 C-13.97340055 3.43383188 -12.50752179 2.76365002 -11.0546875 2.06640625 C-7.18885682 0.25483985 -4.25075795 -0.63309161 0 0 Z " fill="#F1F1F1" transform="translate(405,77)"/>
<path d="M0 0 C0.66 0.33 1.32 0.66 2 1 C0.35 2.65 -1.3 4.3 -3 6 C-2.505 6.99 -2.505 6.99 -2 8 C-3.11375 8.4846875 -4.2275 8.969375 -5.375 9.46875 C-16.45933095 14.32532455 -27.61065857 19.24095541 -38.1484375 25.21875 C-40.45721227 26.19291657 -42.25529616 26.19837364 -44.75 26.125 C-45.54921875 26.10695313 -46.3484375 26.08890625 -47.171875 26.0703125 C-47.77515625 26.04710938 -48.3784375 26.02390625 -49 26 C-45.94167646 22.61650987 -42.87145893 20.65822393 -38.828125 18.57421875 C-38.23262344 18.26535233 -37.63712189 17.9564859 -37.02357483 17.63825989 C-35.10334016 16.64605413 -33.17724316 15.66601422 -31.25 14.6875 C-30.59848969 14.35395508 -29.94697937 14.02041016 -29.27572632 13.67675781 C-7.56603862 2.56251235 -7.56603862 2.56251235 0 0 Z " fill="#EFEFEF" transform="translate(392,65)"/>
<path d="M0 0 C4.07592745 2.23022446 6.24910972 4.68571945 8.3125 8.8125 C8.95703357 13.84906946 9.09140427 18.39007476 6.25 22.75 C2.60186246 27.10721217 -1.62686511 28.55492064 -7.1875 29.25 C-12.14723216 28.63003348 -15.67606093 27.09607494 -19.015625 23.3046875 C-22.02890347 18.74232926 -22.63479715 14.16424059 -21.6875 8.8125 C-17.35034124 -0.38227658 -9.46272276 -3.0473175 0 0 Z M-15.6875 4.8125 C-18.06384512 8.88623449 -18.27563824 13.19787686 -17.6875 17.8125 C-16.14968545 21.88770856 -14.67737121 24.87148157 -10.6875 26.8125 C-6.04219822 27.32864464 -3.84398705 27.49130761 0.1875 25.125 C3.97363752 21.00479152 4.72506715 17.41070581 4.56640625 11.8046875 C4.05301364 7.77653014 2.29748627 4.90692919 -0.375 1.9375 C-6.27319118 -0.93189031 -11.35701327 0.0999115 -15.6875 4.8125 Z " fill="#D9D9D9" transform="translate(507.6875,275.1875)"/>
<path d="M0 0 C2.69676712 2.40556692 3.54941022 4.49866323 3.96484375 8.0703125 C4.00683107 18.06329399 4.00683107 18.06329399 0.6640625 22.484375 C-4.50816307 26.33819013 -7.94090806 27.19493383 -14.3359375 26.484375 C-19.68334164 24.53051579 -22.79211893 21.57201213 -25.3359375 16.484375 C-25.93229398 11.9324388 -26.35852869 7.42661196 -24.171875 3.2734375 C-17.36385639 -5.00092358 -8.74108155 -5.64165423 0 0 Z M-20.3359375 3.484375 C-22.43542696 7.68335392 -21.88290169 12.92435833 -21.3359375 17.484375 C-19.71637707 20.71745272 -17.6122746 22.84620645 -14.3359375 24.484375 C-8.47193014 24.88070212 -8.47193014 24.88070212 -3.3359375 22.484375 C0.72119556 16.89075343 0.60513681 11.15744736 -0.3359375 4.484375 C-2.01023566 1.43343168 -4.23235387 0.03616682 -7.3359375 -1.515625 C-13.72942013 -2.25333453 -15.98458654 -0.86697596 -20.3359375 3.484375 Z " fill="#D1D1D1" transform="translate(421.3359375,277.515625)"/>
<path d="M0 0 C5.50432961 -0.1754368 10.53662347 0.4725839 15.9375 1.5 C16.71673828 1.64308594 17.49597656 1.78617187 18.29882812 1.93359375 C20.2002421 2.28354724 22.10027393 2.64099665 24 3 C23.47895596 6.27280788 23.21737468 7.74866052 21 10.3125 C14.48675661 13.97619941 7.11611284 11.78582508 0.0859375 10.51171875 C-4.58640302 9.73693823 -9.27964551 9.35309738 -14 9 C-14 8.67 -14 8.34 -14 8 C-13.26394531 7.98582031 -12.52789063 7.97164063 -11.76953125 7.95703125 C-5.16808313 7.8238831 -5.16808313 7.8238831 0.1875 4.4375 C0.785625 3.633125 1.38375 2.82875 2 2 C1.34 1.34 0.68 0.68 0 0 Z " fill="#ECECEC" transform="translate(718,73)"/>
<path d="M0 0 C1.8871875 0.061875 1.8871875 0.061875 3.8125 0.125 C6.8125 5.875 6.8125 5.875 6.8125 8.125 C6.1525 8.125 5.4925 8.125 4.8125 8.125 C9.89423395 19.59316709 15.06923322 30.97087417 20.8125 42.125 C19.8225 42.62 19.8225 42.62 18.8125 43.125 C18.19246094 42.09246094 17.57242188 41.05992187 16.93359375 39.99609375 C9.18938359 27.17675834 1.04962251 14.63204611 -7.1875 2.125 C-4.09861478 0.06574319 -3.47814073 -0.1140374 0 0 Z " fill="#E91414" transform="translate(730.1875,87.875)"/>
<path d="M0 0 C4.38889325 0.66498383 7.9811485 2.18757677 12 4 C10.608753 7.96683759 8.73507344 10.91818311 6.1875 14.25 C3.78416521 17.48162696 1.55124062 20.61761448 -0.3125 24.1875 C-2.78215106 28.81386687 -5.64101292 33.15057087 -8.5625 37.5 C-9.03405518 38.21953857 -9.50561035 38.93907715 -9.99145508 39.68041992 C-10.44931396 40.35306885 -10.90717285 41.02571777 -11.37890625 41.71875 C-11.7869751 42.32654297 -12.19504395 42.93433594 -12.61547852 43.56054688 C-14.31350338 45.32594179 -15.61621259 45.61712336 -18 46 C-16.66843173 42.40296354 -15.06309619 39.30839527 -12.98828125 36.0859375 C-12.39466797 35.15910156 -11.80105469 34.23226562 -11.18945312 33.27734375 C-10.57005859 32.31957031 -9.95066406 31.36179687 -9.3125 30.375 C-8.71244141 29.44042969 -8.11238281 28.50585938 -7.49414062 27.54296875 C-6.89408203 26.60839844 -6.29402344 25.67382812 -5.67578125 24.7109375 C-5.07588379 23.77604492 -4.47598633 22.84115234 -3.85791016 21.87792969 C-2.57628914 19.89268021 -1.28359115 17.91455306 0.01806641 15.94238281 C0.6579248 14.96366211 1.2977832 13.98494141 1.95703125 12.9765625 C2.54073486 12.09307129 3.12443848 11.20958008 3.72583008 10.29931641 C5.24235214 8.00078717 5.24235214 8.00078717 5 5 C2.56249975 2.31232422 2.56249975 2.31232422 0 0 Z " fill="#E6E6E6" transform="translate(583,85)"/>
<path d="M0 0 C6.2490913 4.6467602 12.49684656 10.99369313 16 18 C10.20052651 17.37392048 4.66190169 16.32599062 -1 14.9375 C-1.77472656 14.75123047 -2.54945313 14.56496094 -3.34765625 14.37304688 C-5.23270759 13.91923822 -7.1164927 13.46017508 -9 13 C-7.50923566 9.7173068 -5.61379679 7.06922559 -3.375 4.25 C-2.74335938 3.45078125 -2.11171875 2.6515625 -1.4609375 1.828125 C-0.97882813 1.22484375 -0.49671875 0.6215625 0 0 Z " fill="#0C0C0C" transform="translate(227,201)"/>
<path d="M0 0 C3.96155879 1.54311288 5.93971996 4.03291548 8.5625 7.3125 C9.32691406 8.25738281 10.09132813 9.20226562 10.87890625 10.17578125 C12.78095598 12.7083447 14.43282878 15.25119169 16 18 C12.56185817 17.35755277 9.12460665 16.71046074 5.6875 16.0625 C4.71103516 15.88009766 3.73457031 15.69769531 2.72851562 15.50976562 C1.79072266 15.33251953 0.85292969 15.15527344 -0.11328125 14.97265625 C-0.97735596 14.81031494 -1.84143066 14.64797363 -2.73168945 14.48071289 C-5 14 -5 14 -8 13 C-7.39665691 9.29496359 -5.77525763 7.14031852 -3.4375 4.25 C-2.79683594 3.45078125 -2.15617188 2.6515625 -1.49609375 1.828125 C-1.00238281 1.22484375 -0.50867188 0.6215625 0 0 Z " fill="#0A0A0A" transform="translate(620,201)"/>
<path d="M0 0 C0.78487793 0.12101074 1.56975586 0.24202148 2.37841797 0.36669922 C3.58087158 0.5269458 3.58087158 0.5269458 4.80761719 0.69042969 C10.5058641 1.47516298 16.14198066 2.47460047 21.75341797 3.74169922 C18.6762918 5.46566388 15.93717686 6.20838226 12.46435547 6.77685547 C11.43955078 6.94636719 10.41474609 7.11587891 9.35888672 7.29052734 C7.75980469 7.54479492 7.75980469 7.54479492 6.12841797 7.80419922 C5.08556641 7.97757813 4.04271484 8.15095703 2.96826172 8.32958984 C-3.42158677 9.37063257 -9.79626472 10.18724871 -16.24658203 10.74169922 C-11.94970703 5.66357422 -11.94970703 5.66357422 -10.24658203 3.74169922 C-9.42287109 2.61634766 -9.42287109 2.61634766 -8.58251953 1.46826172 C-5.61001176 -0.72880924 -3.58184848 -0.44455293 0 0 Z " fill="#EAEAEA" transform="translate(631.24658203125,57.25830078125)"/>
<path d="M0 0 C0 1.65 0 3.3 0 5 C-15.18 5 -30.36 5 -46 5 C-43 1 -43 1 -40.00415039 0.45410156 C-38.79750732 0.4331543 -37.59086426 0.41220703 -36.34765625 0.390625 C-35.69228378 0.37408875 -35.03691132 0.35755249 -34.36167908 0.34051514 C-32.26186191 0.2920249 -30.16275573 0.27074446 -28.0625 0.25 C-26.68420761 0.22181539 -25.30594975 0.19188448 -23.92773438 0.16015625 C-15.95267368 -0.00950314 -7.97658266 -0.03402737 0 0 Z " fill="#F9F9F9" transform="translate(406,93)"/>
<path d="M0 0 C0 1.98 0 3.96 0 6 C-0.66 6 -1.32 6 -2 6 C-2.33 5.01 -2.66 4.02 -3 3 C-4.66611905 2.957279 -6.33382885 2.95936168 -8 3 C-9.23577678 4.04120693 -9.23577678 4.04120693 -9.375 6.29296875 C-8.84242896 10.13746598 -7.03748758 11.00485318 -4 13.3125 C0.75866559 17.36242816 0.75866559 17.36242816 1.83984375 20.21875 C2.00907166 23.84699643 1.20050901 25.76410705 -1.125 28.5 C-4.45800237 30.23895776 -6.29065683 30.47353317 -10 30 C-12.375 29 -12.375 29 -14 28 C-14 26.02 -14 24.04 -14 22 C-13.34 22 -12.68 22 -12 22 C-11.34 23.65 -10.68 25.3 -10 27 C-8.00045254 27.04254356 -5.99958364 27.04080783 -4 27 C-2.69639146 25.90194208 -2.69639146 25.90194208 -2.66015625 23.203125 C-2.70386861 19.91469523 -2.70386861 19.91469523 -4.93359375 17.734375 C-6.17302734 16.75210937 -6.17302734 16.75210937 -7.4375 15.75 C-12.816564 11.40634269 -12.816564 11.40634269 -13.375 7.125 C-13 4 -13 4 -11 1.625 C-7.00223382 -0.54045668 -4.49937346 -0.30504227 0 0 Z " fill="#E4E4E4" transform="translate(592,274)"/>
<path d="M0 0 C7.92 0 15.84 0 24 0 C24 1.65 24 3.3 24 5 C23.34 4.34 22.68 3.68 22 3 C19.34462628 2.43479997 16.70855287 2.26211802 14 2 C14.10948106 6.1255669 14.24020225 10.25018878 14.375 14.375 C14.4059375 15.550625 14.436875 16.72625 14.46875 17.9375 C14.52675781 19.61972656 14.52675781 19.61972656 14.5859375 21.3359375 C14.6173584 22.37282715 14.6487793 23.4097168 14.68115234 24.47802734 C14.75954472 27.16809835 14.75954472 27.16809835 17 29 C14.03 29 11.06 29 8 29 C8.99 28.67 9.98 28.34 11 28 C11 19.42 11 10.84 11 2 C8.36 2.33 5.72 2.66 3 3 C2.67 3.66 2.34 4.32 2 5 C1.34 5 0.68 5 0 5 C0 3.35 0 1.7 0 0 Z " fill="#E2E2E2" transform="translate(443,274)"/>
<path d="M0 0 C0.66 0.33 1.32 0.66 2 1 C0.02241852 3.81361772 -1.95733001 6.62570356 -3.9375 9.4375 C-4.50146484 10.23994141 -5.06542969 11.04238281 -5.64648438 11.86914062 C-6.18466797 12.63291016 -6.72285156 13.39667969 -7.27734375 14.18359375 C-7.77484131 14.89056396 -8.27233887 15.59753418 -8.78491211 16.32592773 C-10 18 -10 18 -11 19 C-12.63472882 19.08700342 -14.27314055 19.10701063 -15.91015625 19.09765625 C-16.89951172 19.09443359 -17.88886719 19.09121094 -18.90820312 19.08789062 C-19.94912109 19.07951172 -20.99003906 19.07113281 -22.0625 19.0625 C-23.10728516 19.05798828 -24.15207031 19.05347656 -25.22851562 19.04882812 C-27.8190666 19.03699913 -30.40950559 19.02051689 -33 19 C-33 18.34 -33 17.68 -33 17 C-31.72125 16.86464844 -30.4425 16.72929688 -29.125 16.58984375 C-15.94756405 15.15236641 -15.94756405 15.15236641 -6 7 C-5.40832031 6.33613281 -4.81664062 5.67226562 -4.20703125 4.98828125 C-2.76418633 3.36054087 -1.37552283 1.68501547 0 0 Z " fill="#D9D9D9" transform="translate(238,111)"/>
<path d="M0 0 C2.91517292 1.07401108 4.77810176 1.77810176 7 4 C7.48337545 7.03835998 7.59093686 9.08991605 5.87890625 11.7265625 C4.64458637 13.20215171 3.32674117 14.60692177 2 16 C3.07661281 17.4425402 4.16160103 18.87883161 5.25 20.3125 C5.85328125 21.11300781 6.4565625 21.91351563 7.078125 22.73828125 C8.90270136 24.88549612 10.68297046 26.41601299 13 28 C9.22610987 28.43882443 7.55429445 28.4295782 4.5 26.0625 C1.36513717 22.22229303 -1.34756439 18.18373865 -4 14 C-3.195625 13.71125 -2.39125 13.4225 -1.5625 13.125 C1.1326468 12.26737432 1.1326468 12.26737432 2 10 C2.45079626 5.73553292 2.45079626 5.73553292 0.5 2.125 C0.005 1.75375 -0.49 1.3825 -1 1 C-0.67 0.67 -0.34 0.34 0 0 Z " fill="#DCDCDC" transform="translate(548,275)"/>
<path d="M0 0 C0.66 0 1.32 0 2 0 C3.81847768 9.32190498 4.54362211 18.53616378 5 28 C5.99 28.33 6.98 28.66 8 29 C5.03 29 2.06 29 -1 29 C-0.34 28.67 0.32 28.34 1 28 C0.69224454 24.91617386 0.3779641 21.83304635 0.0625 18.75 C-0.06801758 17.44095703 -0.06801758 17.44095703 -0.20117188 16.10546875 C-0.28818359 15.26113281 -0.37519531 14.41679687 -0.46484375 13.546875 C-0.543396 12.77182617 -0.62194824 11.99677734 -0.70288086 11.19824219 C-0.94919568 8.99366373 -0.94919568 8.99366373 -1.59204102 6.88769531 C-2.18068658 4.16393261 -1.16101263 2.45861498 0 0 Z " fill="#D9D9D9" transform="translate(369,274)"/>
<path d="M0 0 C4.95 0 9.9 0 15 0 C15 0.99 15 1.98 15 3 C14.67 3.33 14.34 3.66 14 4 C28.19 4.33 42.38 4.66 57 5 C57 5.33 57 5.66 57 6 C50.73780186 6.02546877 44.4756172 6.0429166 38.21337891 6.05493164 C36.08544414 6.05994349 33.95751279 6.06675472 31.82958984 6.07543945 C28.76138463 6.08764336 25.69322516 6.09325993 22.625 6.09765625 C21.21045532 6.10539818 21.21045532 6.10539818 19.76733398 6.11329651 C17.17561726 6.11351393 14.59059363 6.07397541 12 6 C11.24170898 5.98234589 10.48341797 5.96469177 9.70214844 5.94650269 C7.5859375 5.80639648 7.5859375 5.80639648 4 5 C2.68 3.35 1.36 1.7 0 0 Z " fill="#D5D5D5" transform="translate(347,93)"/>
<path d="M0 0 C3.375 -0.125 3.375 -0.125 7 0 C9 2 9 2 9.375 4.875 C9 8 9 8 7.3125 10.375 C5 12 5 12 0 12 C0 8.04 0 4.08 0 0 Z " fill="#070707" transform="translate(542,277)"/>
<path d="M0 0 C0.66 0 1.32 0 2 0 C1.79375 1.2375 1.5875 2.475 1.375 3.75 C0.93892876 7.11909835 0.96596361 9.12841921 3 12 C2.67 12.33 2.34 12.66 2 13 C1.60056824 15.52195967 1.24920152 18.02963656 0.9375 20.5625 C0.84662109 21.27341797 0.75574219 21.98433594 0.66210938 22.71679688 C0.43760497 24.47738403 0.21831603 26.23863478 0 28 C0.66 28.33 1.32 28.66 2 29 C-0.64 29 -3.28 29 -6 29 C-5.34 28.34 -4.68 27.68 -4 27 C-3.45836952 24.41977332 -3.45836952 24.41977332 -3.18359375 21.40625 C-3.05919922 20.29378906 -2.93480469 19.18132812 -2.80664062 18.03515625 C-2.68482422 16.86855469 -2.56300781 15.70195312 -2.4375 14.5 C-2.18944753 12.19756425 -1.93830198 9.89545896 -1.68359375 7.59375 C-1.57587646 6.56958984 -1.46815918 5.54542969 -1.35717773 4.49023438 C-1 2 -1 2 0 0 Z " fill="#D9D9D9" transform="translate(347,274)"/>
<path d="M0 0 C7.14627479 3.79190091 13.32804574 8.27238587 18 15 C18 15.66 18 16.32 18 17 C14.5835197 15.48068964 11.98595894 13.45554509 9.125 11.0625 C5.53296239 8.13467053 2.26306285 5.79497383 -2 4 C-1.34 3.67 -0.68 3.34 0 3 C0 2.01 0 1.02 0 0 Z " fill="#DBDBDB" transform="translate(688,105)"/>
<path d="M0 0 C0.33 0 0.66 0 1 0 C1.5886988 12.25365643 1.5886988 12.25365643 -2 17 C-7.2093065 20.88144406 -10.58400142 21.45024551 -17 21 C-17 20.67 -17 20.34 -17 20 C-14.69 20 -12.38 20 -10 20 C-10 19.34 -10 18.68 -10 18 C-9.38125 17.938125 -8.7625 17.87625 -8.125 17.8125 C-5.78883605 17.19356695 -5.78883605 17.19356695 -4.90625 14.8125 C-3.9583761 11.87082237 -3.59748631 9.26522725 -3.375 6.1875 C-3.30023438 5.21167969 -3.22546875 4.23585938 -3.1484375 3.23046875 C-3.09945313 2.49441406 -3.05046875 1.75835937 -3 1 C-2.67 1 -2.34 1 -2 1 C-1.67 3.31 -1.34 5.62 -1 8 C-0.67 5.36 -0.34 2.72 0 0 Z " fill="#CECECE" transform="translate(424,283)"/>
<path d="M0 0 C3.16860855 2.65478014 4.50301588 5.83999806 6.1875 9.5625 C6.98220703 11.29693359 6.98220703 11.29693359 7.79296875 13.06640625 C9 16 9 16 9 18 C8.01 18.33 7.02 18.66 6 19 C4.35 15.37 2.7 11.74 1 8 C0.01 8.495 0.01 8.495 -1 9 C-1.09765625 2.84765625 -1.09765625 2.84765625 -1 1 C-0.67 0.67 -0.34 0.34 0 0 Z " fill="#DDDDDD" transform="translate(348,276)"/>
<path d="M0 0 C0.66 0.33 1.32 0.66 2 1 C1.34 1.66 0.68 2.32 0 3 C0.33 3.66 0.66 4.32 1 5 C0.50371094 5.3403125 0.00742187 5.680625 -0.50390625 6.03125 C-5.78248296 9.79736925 -9.91802559 13.97406901 -14 19 C-14.99 18.67 -15.98 18.34 -17 18 C-12.17596849 11.19687864 -6.96065565 4.73324584 0 0 Z " fill="#E2E2E2" transform="translate(636,106)"/>
<path d="M0 0 C0.33 0 0.66 0 1 0 C1.09796875 0.73605469 1.1959375 1.47210938 1.296875 2.23046875 C2.3053695 10.03640521 2.3053695 10.03640521 7 16 C9.96720144 16.96344364 12.9147794 17.55831244 16 18 C16 18.33 16 18.66 16 19 C6.31877615 19.86097841 6.31877615 19.86097841 2.4375 16.625 C-0.95758967 12.96874958 -1.13773645 11.32192988 -1.125 6.4375 C-1.12757813 5.44621094 -1.13015625 4.45492188 -1.1328125 3.43359375 C-1 1 -1 1 0 0 Z " fill="#DEDEDE" transform="translate(398,284)"/>
<path d="M0 0 C1.34542485 0.98367157 2.68028709 1.98209254 4 3 C1.8765984 3.83739781 -0.2487728 4.66980283 -2.375 5.5 C-3.55835938 5.9640625 -4.74171875 6.428125 -5.9609375 6.90625 C-9 8 -9 8 -11 8 C-10.67 7.401875 -10.34 6.80375 -10 6.1875 C-8.79212012 3.94613529 -8.79212012 3.94613529 -9 1 C-5.58804551 -0.61120073 -3.56191993 -1.49370836 0 0 Z " fill="#C0C0C0" transform="translate(244,103)"/>
<path d="M0 0 C4.38889325 0.66498383 7.9811485 2.18757677 12 4 C11.25 6.4375 11.25 6.4375 10 9 C7.9375 9.6875 7.9375 9.6875 6 10 C5.67 10.66 5.34 11.32 5 12 C4.34 11.67 3.68 11.34 3 11 C3.66 10.01 4.32 9.02 5 8 C5.34055197 4.75434142 5.34055197 4.75434142 2.5 2.3125 C1.675 1.549375 0.85 0.78625 0 0 Z " fill="#E6E6E6" transform="translate(583,85)"/>
<path d="M0 0 C5.48001528 -0.33551114 9.16658354 0.35530043 14 3 C16.4375 5.6875 16.4375 5.6875 18 8 C17.67 8.66 17.34 9.32 17 10 C16.34 9.67 15.68 9.34 15 9 C14.67 9.66 14.34 10.32 14 11 C13.566875 10.05125 13.13375 9.1025 12.6875 8.125 C10.89276968 4.80142533 9.58530732 3.49105121 5.95703125 2.3671875 C5.24933594 2.20476562 4.54164063 2.04234375 3.8125 1.875 C2.554375 1.58625 1.29625 1.2975 0 1 C0 0.67 0 0.34 0 0 Z " fill="#D1D1D1" transform="translate(497,274)"/>
<path d="M0 0 C0 1.98 0 3.96 0 6 C-0.66 6 -1.32 6 -2 6 C-2.33 5.01 -2.66 4.02 -3 3 C-4.65 3 -6.3 3 -8 3 C-8.268125 3.78375 -8.53625 4.5675 -8.8125 5.375 C-10 8 -10 8 -13 10 C-13.3125 7.25 -13.3125 7.25 -13 4 C-9.09351253 -0.63895387 -5.65200184 -0.38318657 0 0 Z " fill="#BEBEBE" transform="translate(592,274)"/>
<path d="M0 0 C2.91517292 1.07401108 4.77810176 1.77810176 7 4 C7.25 7 7.25 7 7 10 C6.34 10.66 5.68 11.32 5 12 C4.34 11.67 3.68 11.34 3 11 C2.855625 9.88625 2.71125 8.7725 2.5625 7.625 C2.01067926 4.06882192 1.79551999 3.06625391 -1 1 C-0.67 0.67 -0.34 0.34 0 0 Z " fill="#D9D9D9" transform="translate(548,275)"/>
<path d="M0 0 C0 1.65 0 3.3 0 5 C-0.66 4.34 -1.32 3.68 -2 3 C-4.97 2.67 -7.94 2.34 -11 2 C-11 9.92 -11 17.84 -11 26 C-11.33 26 -11.66 26 -12 26 C-12 17.75 -12 9.5 -12 1 C-2 0 -2 0 0 0 Z " fill="#F6F6F6" transform="translate(467,274)"/>
<path d="M0 0 C0.66 0 1.32 0 2 0 C1.79375 1.2375 1.5875 2.475 1.375 3.75 C0.93892876 7.11909835 0.96596361 9.12841921 3 12 C2.67 12.33 2.34 12.66 2 13 C1.76636119 14.84891946 1.58696365 16.70488031 1.4375 18.5625 C1.35371094 19.57441406 1.26992188 20.58632813 1.18359375 21.62890625 C1.12300781 22.41136719 1.06242187 23.19382812 1 24 C0.67 24 0.34 24 0 24 C-0.33 21.69 -0.66 19.38 -1 17 C-1.33 17 -1.66 17 -2 17 C-1.85941524 14.54126232 -1.71277001 12.08314825 -1.5625 9.625 C-1.52318359 8.92632812 -1.48386719 8.22765625 -1.44335938 7.5078125 C-1.11328125 2.2265625 -1.11328125 2.2265625 0 0 Z " fill="#8C8C8C" transform="translate(347,274)"/>
<path d="M0 0 C0.66 0.33 1.32 0.66 2 1 C0.35 2.65 -1.3 4.3 -3 6 C-2.67 6.66 -2.34 7.32 -2 8 C-6.455 9.485 -6.455 9.485 -11 11 C-9.35 9.02 -7.7 7.04 -6 5 C-6.33 4.34 -6.66 3.68 -7 3 C-4.69631264 1.93347808 -2.35981813 0.93578995 0 0 Z " fill="#D5D5D5" transform="translate(392,65)"/>
<path d="M0 0 C0.66 0 1.32 0 2 0 C0.44298069 4.67105792 -2.08447373 8.08705685 -5 12 C-5.66 11.67 -6.32 11.34 -7 11 C-6.75 8.625 -6.75 8.625 -6 6 C-4.0625 4.9375 -4.0625 4.9375 -2 4 C-0.73195434 1.9664052 -0.73195434 1.9664052 0 0 Z " fill="#F5F5F5" transform="translate(590,93)"/>
<path d="M0 0 C0.33 0 0.66 0 1 0 C1.33 5.28 1.66 10.56 2 16 C2.99 16.33 3.98 16.66 5 17 C2.03 17 -0.94 17 -4 17 C-3.34 16.67 -2.68 16.34 -2 16 C-2 14.35 -2 12.7 -2 11 C-1.67 11 -1.34 11 -1 11 C-0.67 7.37 -0.34 3.74 0 0 Z " fill="#C5C5C5" transform="translate(372,286)"/>
<path d="M0 0 C2.375 0.3125 2.375 0.3125 5 1 C7.20914 4.31371 7.22481553 5.3446021 7.125 9.1875 C7.10695313 10.08855469 7.08890625 10.98960937 7.0703125 11.91796875 C7.03550781 12.94857422 7.03550781 12.94857422 7 14 C6.01 14.495 6.01 14.495 5 15 C4.89042969 14.33613281 4.78085937 13.67226563 4.66796875 12.98828125 C3.78863977 8.09120522 3.00548286 4.09838572 0 0 Z " fill="#ECECEC" transform="translate(417,277)"/>
<path d="M0 0 C0.99 0.33 1.98 0.66 3 1 C0.36 3.64 -2.28 6.28 -5 9 C-4.67 9.66 -4.34 10.32 -4 11 C-5.98 11 -7.96 11 -10 11 C-6.79239749 7.19364503 -3.59253891 3.45436433 0 0 Z " fill="#D4D4D4" transform="translate(625,57)"/>
<path d="M0 0 C4.32504836 1.65863505 7.09418825 4.871041 10.25 8.125 C11.08144531 8.96998047 11.08144531 8.96998047 11.9296875 9.83203125 C13.29104485 11.21686028 14.64614859 12.60783204 16 14 C13 15 13 15 10.8125 14.0625 C10.214375 13.711875 9.61625 13.36125 9 13 C9.66 12.67 10.32 12.34 11 12 C10.2059375 11.21753906 9.411875 10.43507813 8.59375 9.62890625 C7.56236979 8.60690222 6.53112684 7.58475966 5.5 6.5625 C4.97535156 6.04623047 4.45070313 5.52996094 3.91015625 4.99804688 C2.58775448 3.68423213 1.29164432 2.34406495 0 1 C0 0.67 0 0.34 0 0 Z " fill="#D4D4D4" transform="translate(523,45)"/>
<path d="M0 0 C0.845625 0.78375 1.69125 1.5675 2.5625 2.375 C5.87925917 5.16931023 8.79604094 6.07512901 13 7 C13 7.33 13 7.66 13 8 C6.88225104 8.49940808 3.97504047 7.24900602 -1 4 C-0.67 2.68 -0.34 1.36 0 0 Z " fill="#D3D3D3" transform="translate(491,296)"/>
<path d="M0 0 C0.66 0 1.32 0 2 0 C2.66 1.65 3.32 3.3 4 5 C6.31 5.33 8.62 5.66 11 6 C10.67 6.66 10.34 7.32 10 8 C6.05272412 8.17942163 3.4019487 8.09350689 0 6 C0 4.02 0 2.04 0 0 Z " fill="#C5C5C5" transform="translate(578,296)"/>
<path d="M0 0 C0.33 0 0.66 0 1 0 C1.33 4.29 1.66 8.58 2 13 C1.01 13.495 1.01 13.495 0 14 C-1.31164842 11.37670316 -1.13262846 9.36301375 -1.125 6.4375 C-1.12757813 5.44621094 -1.13015625 4.45492188 -1.1328125 3.43359375 C-1 1 -1 1 0 0 Z " fill="#F5F5F5" transform="translate(398,284)"/>
<path d="M0 0 C1.98 0 3.96 0 6 0 C4.44499019 3.81684226 1.96404505 6.19195732 -1 9 C-1.99 8.67 -2.98 8.34 -4 8 C-2.02 6.02 -0.04 4.04 2 2 C1.34 1.34 0.68 0.68 0 0 Z " fill="#DBDBDB" transform="translate(606,72)"/>
<path d="M0 0 C0.66 0.66 1.32 1.32 2 2 C1.67028521 5.29714793 1.3773161 6.6226839 -1 9 C-1.66 9 -2.32 9 -3 9 C-3.99 9.495 -3.99 9.495 -5 10 C-3.66511872 6.40608886 -2.03977277 3.24509304 0 0 Z " fill="#DADADA" transform="translate(582,102)"/>
<path d="M0 0 C0.33 0.66 0.66 1.32 1 2 C1.66 2.33 2.32 2.66 3 3 C-2.39068413 6.59378942 -5.53673535 7.45356243 -12 7 C-12 6.67 -12 6.34 -12 6 C-9.69 6 -7.38 6 -5 6 C-5 5.34 -5 4.68 -5 4 C-4.360625 3.896875 -3.72125 3.79375 -3.0625 3.6875 C-2.381875 3.460625 -1.70125 3.23375 -1 3 C-0.67 2.01 -0.34 1.02 0 0 Z " fill="#C2C2C2" transform="translate(419,297)"/>
<path d="M0 0 C0 3.63 0 7.26 0 11 C-0.33 11 -0.66 11 -1 11 C-1.33 8.69 -1.66 6.38 -2 4 C-2.33 6.97 -2.66 9.94 -3 13 C-3.33 13 -3.66 13 -4 13 C-4.08086147 11.20906809 -4.13912702 9.41710372 -4.1875 7.625 C-4.22230469 6.62726563 -4.25710938 5.62953125 -4.29296875 4.6015625 C-4.14794922 3.31378906 -4.14794922 3.31378906 -4 2 C-1 0 -1 0 0 0 Z " fill="#C5C5C5" transform="translate(400,281)"/>
<path d="M0 0 C0.99 0 1.98 0 3 0 C2.75 1.875 2.75 1.875 2 4 C0.0625 5.125 0.0625 5.125 -2 6 C-2.66 6.66 -3.32 7.32 -4 8 C-4.66 6.68 -5.32 5.36 -6 4 C-4.7934375 3.566875 -4.7934375 3.566875 -3.5625 3.125 C-0.8673532 2.26737432 -0.8673532 2.26737432 0 0 Z " fill="#E6E6E6" transform="translate(550,285)"/>
<path d="M0 0 C0.99 0.33 1.98 0.66 3 1 C3 1.66 3 2.32 3 3 C2.34 3 1.68 3 1 3 C0.67 4.98 0.34 6.96 0 9 C-0.99 9 -1.98 9 -3 9 C-2.44271087 5.65626525 -1.64826111 2.96687001 0 0 Z " fill="#B0B0B0" transform="translate(366,281)"/>
<path d="M0 0 C3.96 0.33 7.92 0.66 12 1 C12 1.33 12 1.66 12 2 C11.04287109 2.07347656 11.04287109 2.07347656 10.06640625 2.1484375 C9.24011719 2.22320312 8.41382813 2.29796875 7.5625 2.375 C6.73878906 2.44460938 5.91507812 2.51421875 5.06640625 2.5859375 C4.38449219 2.72257812 3.70257813 2.85921875 3 3 C2.67 3.66 2.34 4.32 2 5 C1.34 5 0.68 5 0 5 C0 3.35 0 1.7 0 0 Z " fill="#BFBFBF" transform="translate(443,274)"/>
<path d="M0 0 C2.04119788 1.61594832 4.04072937 3.2856382 6 5 C6 5.66 6 6.32 6 7 C2.08597051 5.73058503 0.20927127 4.48832306 -2 1 C-1.34 0.67 -0.68 0.34 0 0 Z " fill="#D3D3D3" transform="translate(331,124)"/>
<path d="M0 0 C0.99 0.66 1.98 1.32 3 2 C3 2.66 3 3.32 3 4 C-1.625 6.125 -1.625 6.125 -5 5 C-3.35 3.35 -1.7 1.7 0 0 Z " fill="#F2F2F2" transform="translate(241,103)"/>
<path d="M0 0 C0.66 0.33 1.32 0.66 2 1 C1.25 3.4375 1.25 3.4375 0 6 C-2.0625 6.6875 -2.0625 6.6875 -4 7 C-4.33 7.66 -4.66 8.32 -5 9 C-5.66 8.67 -6.32 8.34 -7 8 C-6.01 6.02 -5.02 4.04 -4 2 C-3.01 2 -2.02 2 -1 2 C-0.67 1.34 -0.34 0.68 0 0 Z " fill="#C4C4C4" transform="translate(593,88)"/>
<path d="M0 0 C0.33 0.99 0.66 1.98 1 3 C-1.55068845 5.35448165 -2.71017358 5.98327924 -6.25 6.1875 C-7.1575 6.125625 -8.065 6.06375 -9 6 C-6 4 -3 2 0 0 Z " fill="#E2E2E2" transform="translate(511,297)"/>
<path d="M0 0 C1.9375 0.75 1.9375 0.75 4 2 C4.75 4.125 4.75 4.125 5 6 C4.01 6.33 3.02 6.66 2 7 C0.5393715 4.35261084 0 3.10551666 0 0 Z " fill="#E5E5E5" transform="translate(352,288)"/>
<path d="M0 0 C0.66 0 1.32 0 2 0 C1.34 1.65 0.68 3.3 0 5 C-0.66 4.67 -1.32 4.34 -2 4 C-1.34 2.68 -0.68 1.36 0 0 Z M-4 4 C-3.34 4.33 -2.68 4.66 -2 5 C-3.32 5.99 -4.64 6.98 -6 8 C-5.34 6.68 -4.68 5.36 -4 4 Z " fill="#EAEAEA" transform="translate(590,93)"/>
<path d="M0 0 C0.66 0.33 1.32 0.66 2 1 C0.02 3.97 0.02 3.97 -2 7 C-2.99 6.34 -3.98 5.68 -5 5 C-3.35 3.35 -1.7 1.7 0 0 Z " fill="#C4C4C4" transform="translate(238,111)"/>
</svg>
