<svg width="167" height="35" viewBox="0 0 167 35" fill="none" xmlns="http://www.w3.org/2000/svg">
<path d="M67.4561 14.3232H62.1294C62.0583 13.7763 61.9127 13.2827 61.6926 12.8424C61.4724 12.402 61.1812 12.0256 60.819 11.7131C60.4568 11.4006 60.0271 11.1627 59.5299 10.9993C59.0399 10.8289 58.4965 10.7436 57.8999 10.7436C56.8417 10.7436 55.9291 11.0029 55.162 11.5213C54.4021 12.0398 53.8161 12.7891 53.4042 13.7692C52.9994 14.7493 52.797 15.9354 52.797 17.3274C52.797 18.7763 53.0029 19.9908 53.4149 20.9709C53.8339 21.9439 54.4198 22.679 55.1727 23.1762C55.9326 23.6662 56.8311 23.9112 57.868 23.9112C58.4504 23.9112 58.9795 23.8367 59.4553 23.6875C59.9383 23.5384 60.3609 23.3218 60.7231 23.0377C61.0924 22.7465 61.3943 22.3949 61.6286 21.983C61.8701 21.5639 62.037 21.0916 62.1294 20.5661L67.4561 20.598C67.3637 21.5639 67.0832 22.5157 66.6144 23.4532C66.1528 24.3907 65.5171 25.2465 64.7075 26.0206C63.8978 26.7877 62.9106 27.3985 61.7458 27.853C60.5882 28.3076 59.26 28.5348 57.7615 28.5348C55.787 28.5348 54.0186 28.1016 52.4561 27.2351C50.9007 26.3615 49.672 25.0902 48.77 23.4212C47.868 21.7522 47.417 19.7209 47.417 17.3274C47.417 14.9269 47.8751 12.8921 48.7913 11.223C49.7075 9.55401 50.9468 8.28625 52.5093 7.41977C54.0718 6.55329 55.8225 6.12006 57.7615 6.12006C59.0825 6.12006 60.3041 6.30472 61.4262 6.67403C62.5484 7.03625 63.5356 7.56892 64.3879 8.27204C65.2401 8.96807 65.9326 9.82389 66.4653 10.8395C66.998 11.8551 67.3282 13.0164 67.4561 14.3232Z" fill="#1E1E1E"/>
<path d="M75.6831 18.9041V28.2365H70.4736V6.41835H75.5127V14.8772H75.6938C76.0631 13.8686 76.6668 13.0803 77.5049 12.5121C78.3501 11.9439 79.3834 11.6598 80.605 11.6598C81.7556 11.6598 82.757 11.9155 83.6093 12.4269C84.4616 12.9311 85.1221 13.6449 85.5908 14.5682C86.0667 15.4915 86.301 16.5711 86.2939 17.8068V28.2365H81.0844V18.8296C81.0915 17.9205 80.8643 17.2103 80.4026 16.6989C79.941 16.1875 79.2911 15.9318 78.453 15.9318C77.9062 15.9318 77.4232 16.0526 77.0042 16.2941C76.5922 16.5284 76.2691 16.8658 76.0347 17.3061C75.8074 17.7465 75.6903 18.2791 75.6831 18.9041Z" fill="#1E1E1E"/>
<path d="M94.1588 28.5135C93.1148 28.5135 92.1879 28.3395 91.3783 27.9915C90.5757 27.6364 89.9401 27.1037 89.4713 26.3935C89.0097 25.6762 88.7789 24.7777 88.7789 23.6982C88.7789 22.7891 88.9387 22.022 89.2583 21.397C89.5779 20.772 90.0182 20.2642 90.5793 19.8736C91.1404 19.483 91.7867 19.1882 92.5182 18.9894C93.2497 18.7834 94.031 18.6449 94.8619 18.5739C95.7923 18.4887 96.5416 18.3999 97.1098 18.3076C97.678 18.2081 98.0899 18.0696 98.3456 17.8921C98.6084 17.7074 98.7398 17.4482 98.7398 17.1144V17.0611C98.7398 16.5142 98.5516 16.0916 98.1752 15.7934C97.7987 15.4951 97.2909 15.3459 96.6517 15.3459C95.9628 15.3459 95.4088 15.4951 94.9898 15.7934C94.5708 16.0916 94.3044 16.5036 94.1908 17.0291L89.3861 16.8587C89.5281 15.8644 89.8939 14.9766 90.4834 14.1953C91.08 13.407 91.8967 12.7891 92.9337 12.3416C93.9777 11.8871 95.2313 11.6598 96.6943 11.6598C97.7384 11.6598 98.7007 11.7841 99.5814 12.0327C100.462 12.2742 101.229 12.6293 101.883 13.098C102.536 13.5597 103.04 14.1279 103.395 14.8026C103.758 15.4773 103.939 16.2479 103.939 17.1144V28.2365H99.0381V25.9567H98.9102C98.6191 26.5107 98.2462 26.9794 97.7916 27.363C97.3442 27.7465 96.8151 28.0341 96.2043 28.2259C95.6006 28.4176 94.9188 28.5135 94.1588 28.5135ZM95.7675 25.1044C96.3286 25.1044 96.8328 24.9908 97.2803 24.7635C97.7348 24.5363 98.097 24.2238 98.3669 23.826C98.6368 23.4212 98.7718 22.9524 98.7718 22.4198V20.8644C98.6226 20.9425 98.4415 21.0135 98.2284 21.0774C98.0225 21.1414 97.7952 21.2017 97.5466 21.2586C97.298 21.3154 97.0423 21.3651 96.7796 21.4077C96.5168 21.4503 96.2646 21.4894 96.0232 21.5249C95.5331 21.603 95.1141 21.7237 94.7661 21.8871C94.4252 22.0505 94.1624 22.2635 93.9777 22.5263C93.8002 22.782 93.7114 23.0874 93.7114 23.4425C93.7114 23.9823 93.9031 24.3942 94.2867 24.6783C94.6773 24.9624 95.1709 25.1044 95.7675 25.1044Z" fill="#1E1E1E"/>
<path d="M107.124 28.2365V11.8729H112.184V14.8559H112.355C112.653 13.7763 113.14 12.9737 113.814 12.4482C114.489 11.9155 115.274 11.6492 116.169 11.6492C116.41 11.6492 116.659 11.6669 116.915 11.7024C117.17 11.7309 117.408 11.777 117.628 11.8409V16.3686C117.38 16.2834 117.053 16.2159 116.648 16.1662C116.25 16.1165 115.895 16.0916 115.583 16.0916C114.965 16.0916 114.407 16.2301 113.91 16.5071C113.42 16.777 113.033 17.157 112.749 17.647C112.472 18.13 112.334 18.6982 112.334 19.3516V28.2365H107.124Z" fill="#1E1E1E"/>
<path d="M126.529 34.7138C124.974 34.7138 123.642 34.4972 122.534 34.0639C121.426 33.6307 120.556 33.0377 119.924 32.2848C119.292 31.532 118.912 30.6797 118.784 29.728L123.717 29.451C123.809 29.7848 123.979 30.076 124.228 30.3246C124.484 30.5732 124.814 30.7649 125.219 30.8999C125.631 31.0348 126.114 31.1023 126.668 31.1023C127.541 31.1023 128.262 30.8892 128.83 30.4631C129.406 30.0441 129.693 29.309 129.693 28.2578V25.3814H129.512C129.306 25.8857 128.994 26.3367 128.575 26.7344C128.156 27.1321 127.634 27.4446 127.009 27.6719C126.391 27.8992 125.68 28.0128 124.878 28.0128C123.685 28.0128 122.591 27.7358 121.597 27.1818C120.609 26.6208 119.818 25.7543 119.221 24.5824C118.631 23.4034 118.337 21.8871 118.337 20.0334C118.337 18.1229 118.642 16.5497 119.253 15.3139C119.864 14.0711 120.663 13.1513 121.65 12.5547C122.644 11.9581 123.713 11.6598 124.857 11.6598C125.716 11.6598 126.451 11.809 127.062 12.1073C127.68 12.3985 128.188 12.7749 128.585 13.2365C128.983 13.6982 129.285 14.1776 129.491 14.6747H129.64V11.8729H134.828V28.3005C134.828 29.6854 134.48 30.8537 133.784 31.8054C133.088 32.7571 132.115 33.478 130.865 33.9681C129.615 34.4652 128.17 34.7138 126.529 34.7138ZM126.689 24.2202C127.321 24.2202 127.861 24.0533 128.308 23.7195C128.756 23.3857 129.1 22.9063 129.342 22.2813C129.583 21.6563 129.704 20.907 129.704 20.0334C129.704 19.1456 129.583 18.3821 129.342 17.7429C129.107 17.0966 128.763 16.5995 128.308 16.2514C127.861 15.9034 127.321 15.7294 126.689 15.7294C126.043 15.7294 125.496 15.907 125.048 16.2621C124.601 16.6172 124.26 17.1179 124.026 17.7642C123.798 18.4034 123.685 19.1598 123.685 20.0334C123.685 20.907 123.802 21.6563 124.036 22.2813C124.271 22.9063 124.608 23.3857 125.048 23.7195C125.496 24.0533 126.043 24.2202 126.689 24.2202Z" fill="#1E1E1E"/>
<path d="M145.799 28.5455C144.087 28.5455 142.61 28.2081 141.367 27.5334C140.131 26.8516 139.179 25.8821 138.512 24.625C137.851 23.3608 137.521 21.8587 137.521 20.1186C137.521 18.4283 137.855 16.951 138.522 15.6868C139.19 14.4155 140.131 13.4283 141.345 12.7252C142.56 12.0149 143.991 11.6598 145.639 11.6598C146.804 11.6598 147.869 11.8409 148.835 12.2032C149.801 12.5654 150.635 13.1016 151.338 13.8118C152.041 14.522 152.588 15.3992 152.979 16.4432C153.37 17.4801 153.565 18.6698 153.565 20.0121V21.3118H139.343V18.2862H148.718C148.71 17.7323 148.579 17.2387 148.323 16.8054C148.068 16.3722 147.716 16.0348 147.269 15.7934C146.828 15.5448 146.321 15.4205 145.745 15.4205C145.163 15.4205 144.641 15.5519 144.179 15.8147C143.718 16.0703 143.352 16.4219 143.082 16.8693C142.812 17.3097 142.67 17.8104 142.656 18.3715V21.4503C142.656 22.1179 142.787 22.7039 143.05 23.2081C143.313 23.7053 143.686 24.0924 144.169 24.3693C144.652 24.6463 145.227 24.7848 145.894 24.7848C146.356 24.7848 146.775 24.7209 147.152 24.5931C147.528 24.4652 147.851 24.277 148.121 24.0284C148.391 23.7799 148.593 23.4745 148.728 23.1122L153.512 23.2507C153.313 24.3232 152.876 25.2571 152.201 26.0526C151.534 26.8409 150.657 27.4553 149.57 27.8956C148.483 28.3289 147.226 28.5455 145.799 28.5455Z" fill="#1E1E1E"/>
<path d="M156.226 28.2365V11.8729H161.286V14.8559H161.456C161.755 13.7763 162.241 12.9737 162.916 12.4482C163.591 11.9155 164.375 11.6492 165.27 11.6492C165.512 11.6492 165.76 11.6669 166.016 11.7024C166.272 11.7309 166.51 11.777 166.73 11.8409V16.3686C166.481 16.2834 166.155 16.2159 165.75 16.1662C165.352 16.1165 164.997 16.0916 164.684 16.0916C164.066 16.0916 163.509 16.2301 163.012 16.5071C162.522 16.777 162.135 17.157 161.851 17.647C161.574 18.13 161.435 18.6982 161.435 19.3516V28.2365H156.226Z" fill="#1E1E1E"/>
<path d="M14.7738 34.3125C14.4076 34.7449 13.8896 34.2311 14.0318 33.6325L16.7249 22.3049C16.9375 21.4542 16.605 20.5603 15.8883 20.0552L9.93106 16.1496C9.60801 15.8768 9.56403 15.395 9.83246 15.0682L23.0827 0.149018C23.4558 -0.272389 23.9834 0.272455 23.8041 0.880736L20.5517 11.9056C20.2768 12.782 20.601 13.7355 21.3531 14.2628L27.3104 18.2014C27.6282 18.4701 27.6758 18.9424 27.4179 19.269L14.7738 34.3125Z" fill="#41CB5A"/>
<path d="M35.8621 26.2014C35.8621 27.3441 34.9358 28.2704 33.7932 28.2704H21.6553L28.478 20.1538C28.8674 19.6816 29.0364 19.0656 28.9429 18.4607C28.8681 17.8878 28.5525 17.374 28.0753 17.0483L22.1153 13.1124C21.8765 12.9145 21.7823 12.5911 21.8773 12.2959L23.6732 6.20142H33.7932C34.9358 6.20142 35.8621 7.12774 35.8621 8.2704V26.2014Z" fill="#41CB5A"/>
<path d="M39.9998 20.6842C39.9998 21.0651 39.6911 21.3739 39.3101 21.3739H37.2412V13.098H39.3102C39.6911 13.098 39.9999 13.4068 39.9999 13.7877L39.9998 20.6842Z" fill="#41CB5A"/>
<path d="M13.8897 28.2704L13.5587 29.6497H8.96557C8.58471 29.6497 8.27588 29.3409 8.27588 28.96C8.27588 28.5791 8.58463 28.2703 8.96557 28.2703H13.8897V28.2704Z" fill="#41CB5A"/>
<path d="M6.20684 29.6497H4.13793C3.75707 29.6497 3.44824 29.3409 3.44824 28.96C3.44824 28.5791 3.75699 28.2703 4.13793 28.2703H6.20691C6.58777 28.2703 6.8966 28.5791 6.8966 28.96C6.8966 29.3409 6.58777 29.6497 6.20684 29.6497Z" fill="#41CB5A"/>
<path d="M10.1173 17.9256H0.689688C0.308828 17.9256 0 17.6168 0 17.2359C0 16.855 0.30875 16.5462 0.689688 16.5462H8.51039C8.65914 16.8538 8.88781 17.1158 9.17242 17.3048L10.1173 17.9256Z" fill="#41CB5A"/>
<path d="M17.0898 4.82216L15.8691 6.20146H10.345C9.9641 6.20146 9.65527 5.89271 9.65527 5.51177C9.65527 5.13083 9.96402 4.82208 10.345 4.82208L17.0898 4.82216Z" fill="#41CB5A"/>
<path d="M7.58623 6.20146H5.51732C5.13647 6.20146 4.82764 5.89271 4.82764 5.51177C4.82764 5.13083 5.13639 4.82208 5.51732 4.82208H7.58631C7.96717 4.82208 8.276 5.13083 8.276 5.51177C8.276 5.89271 7.96717 6.20146 7.58623 6.20146Z" fill="#41CB5A"/>
<path d="M13.4139 8.96004L12.1863 10.3393H2.06908C1.68822 10.3393 1.37939 10.0306 1.37939 9.64965C1.37939 9.26871 1.68814 8.95996 2.06908 8.95996H13.4139V8.96004Z" fill="#41CB5A"/>
<path d="M10.3517 12.4083L9.12414 13.7876H7.58617C7.20531 13.7876 6.89648 13.4789 6.89648 13.098C6.89648 12.717 7.20523 12.4083 7.58617 12.4083H10.3517V12.4083Z" fill="#41CB5A"/>
<path d="M4.82777 13.7876H3.44848C3.06762 13.7876 2.75879 13.4789 2.75879 13.098C2.75879 12.717 3.06754 12.4083 3.44848 12.4083H4.82777C5.20863 12.4083 5.51746 12.717 5.51746 13.098C5.51746 13.4789 5.20863 13.7876 4.82777 13.7876Z" fill="#41CB5A"/>
<path d="M14.8757 24.1325L14.5447 25.5118H1.37914C0.998281 25.5118 0.689453 25.203 0.689453 24.8221C0.689453 24.4411 0.998203 24.1324 1.37914 24.1324H14.8757V24.1325Z" fill="#41CB5A"/>
<path d="M15.386 21.9876L15.3653 22.0635H9.65502C9.27416 22.0635 8.96533 21.7547 8.96533 21.3738C8.96533 20.9928 9.27408 20.6841 9.65502 20.6841H14.3309L15.1309 21.2082C15.3594 21.397 15.4587 21.7004 15.386 21.9876Z" fill="#41CB5A"/>
<path d="M6.89652 22.0636H4.13793C3.75707 22.0636 3.44824 21.7548 3.44824 21.3739C3.44824 20.993 3.75699 20.6842 4.13793 20.6842H6.89652C7.27738 20.6842 7.58621 20.993 7.58621 21.3739C7.58621 21.7548 7.27738 22.0636 6.89652 22.0636Z" fill="#41CB5A"/>
</svg>
