<svg width="167" height="36" viewBox="0 0 167 36" fill="none" xmlns="http://www.w3.org/2000/svg">
<path d="M67.4561 15.0867H62.1294C62.0583 14.5398 61.9127 14.0462 61.6926 13.6058C61.4724 13.1655 61.1812 12.7891 60.819 12.4766C60.4568 12.1641 60.0271 11.9262 59.5299 11.7628C59.0399 11.5924 58.4965 11.5071 57.8999 11.5071C56.8417 11.5071 55.9291 11.7664 55.162 12.2848C54.4021 12.8033 53.8161 13.5526 53.4042 14.5327C52.9994 15.5128 52.797 16.6989 52.797 18.0909C52.797 19.5398 53.0029 20.7543 53.4149 21.7344C53.8339 22.7074 54.4198 23.4425 55.1727 23.9397C55.9326 24.4297 56.8311 24.6747 57.868 24.6747C58.4504 24.6747 58.9795 24.6002 59.4553 24.451C59.9383 24.3019 60.3609 24.0852 60.7231 23.8012C61.0924 23.51 61.3943 23.1584 61.6286 22.7465C61.8701 22.3274 62.037 21.8551 62.1294 21.3296L67.4561 21.3615C67.3637 22.3274 67.0832 23.2791 66.6144 24.2166C66.1528 25.1541 65.5171 26.01 64.7075 26.7841C63.8978 27.5512 62.9106 28.162 61.7458 28.6165C60.5882 29.071 59.26 29.2983 57.7615 29.2983C55.787 29.2983 54.0186 28.8651 52.4561 27.9986C50.9007 27.125 49.672 25.8537 48.77 24.1847C47.868 22.5156 47.417 20.4844 47.417 18.0909C47.417 15.6904 47.8751 13.6556 48.7913 11.9865C49.7075 10.3175 50.9468 9.04974 52.5093 8.18326C54.0718 7.31678 55.8225 6.88354 57.7615 6.88354C59.0825 6.88354 60.3041 7.0682 61.4262 7.43752C62.5484 7.79974 63.5356 8.33241 64.3879 9.03553C65.2401 9.73156 65.9326 10.5874 66.4653 11.603C66.998 12.6186 67.3282 13.7799 67.4561 15.0867Z" fill="white"/>
<path d="M75.6831 19.6676V29H70.4736V7.18184H75.5127V15.6406H75.6938C76.0631 14.6321 76.6668 13.8438 77.5049 13.2756C78.3501 12.7074 79.3834 12.4233 80.605 12.4233C81.7556 12.4233 82.757 12.679 83.6093 13.1904C84.4616 13.6946 85.1221 14.4084 85.5908 15.3317C86.0667 16.255 86.301 17.3345 86.2939 18.5703V29H81.0844V19.5931C81.0915 18.684 80.8643 17.9737 80.4026 17.4624C79.941 16.951 79.2911 16.6953 78.453 16.6953C77.9062 16.6953 77.4232 16.8161 77.0042 17.0576C76.5922 17.2919 76.2691 17.6293 76.0347 18.0696C75.8074 18.51 75.6903 19.0426 75.6831 19.6676Z" fill="white"/>
<path d="M94.1588 29.277C93.1148 29.277 92.1879 29.103 91.3783 28.755C90.5757 28.3999 89.9401 27.8672 89.4713 27.157C89.0097 26.4397 88.7789 25.5412 88.7789 24.4617C88.7789 23.5526 88.9387 22.7855 89.2583 22.1605C89.5779 21.5355 90.0182 21.0277 90.5793 20.6371C91.1404 20.2465 91.7867 19.9517 92.5182 19.7529C93.2497 19.5469 94.031 19.4084 94.8619 19.3374C95.7923 19.2522 96.5416 19.1634 97.1098 19.071C97.678 18.9716 98.0899 18.8331 98.3456 18.6556C98.6084 18.4709 98.7398 18.2117 98.7398 17.8779V17.8246C98.7398 17.2777 98.5516 16.8551 98.1752 16.5568C97.7987 16.2585 97.2909 16.1094 96.6517 16.1094C95.9628 16.1094 95.4088 16.2585 94.9898 16.5568C94.5708 16.8551 94.3044 17.2671 94.1908 17.7926L89.3861 17.6222C89.5281 16.6279 89.8939 15.7401 90.4834 14.9588C91.08 14.1705 91.8967 13.5526 92.9337 13.1051C93.9777 12.6506 95.2313 12.4233 96.6943 12.4233C97.7384 12.4233 98.7007 12.5476 99.5814 12.7962C100.462 13.0377 101.229 13.3928 101.883 13.8615C102.536 14.3232 103.04 14.8914 103.395 15.5661C103.758 16.2408 103.939 17.0114 103.939 17.8779V29H99.0381V26.7202H98.9102C98.6191 27.2742 98.2462 27.7429 97.7916 28.1264C97.3442 28.51 96.8151 28.7976 96.2043 28.9894C95.6006 29.1811 94.9188 29.277 94.1588 29.277ZM95.7675 25.8679C96.3286 25.8679 96.8328 25.7543 97.2803 25.527C97.7348 25.2997 98.097 24.9872 98.3669 24.5895C98.6368 24.1847 98.7718 23.7159 98.7718 23.1833V21.6279C98.6226 21.706 98.4415 21.777 98.2284 21.8409C98.0225 21.9049 97.7952 21.9652 97.5466 22.022C97.298 22.0789 97.0423 22.1286 96.7796 22.1712C96.5168 22.2138 96.2646 22.2529 96.0232 22.2884C95.5331 22.3665 95.1141 22.4872 94.7661 22.6506C94.4252 22.8139 94.1624 23.027 93.9777 23.2898C93.8002 23.5455 93.7114 23.8509 93.7114 24.206C93.7114 24.7458 93.9031 25.1577 94.2867 25.4418C94.6773 25.7259 95.1709 25.8679 95.7675 25.8679Z" fill="white"/>
<path d="M107.124 29V12.6364H112.184V15.6193H112.355C112.653 14.5398 113.14 13.7372 113.814 13.2117C114.489 12.679 115.274 12.4127 116.169 12.4127C116.41 12.4127 116.659 12.4304 116.915 12.4659C117.17 12.4943 117.408 12.5405 117.628 12.6044V17.1321C117.38 17.0469 117.053 16.9794 116.648 16.9297C116.25 16.88 115.895 16.8551 115.583 16.8551C114.965 16.8551 114.407 16.9936 113.91 17.2706C113.42 17.5405 113.033 17.9205 112.749 18.4105C112.472 18.8935 112.334 19.4617 112.334 20.1151V29H107.124Z" fill="white"/>
<path d="M126.529 35.4773C124.974 35.4773 123.642 35.2607 122.534 34.8274C121.426 34.3942 120.556 33.8012 119.924 33.0483C119.292 32.2955 118.912 31.4432 118.784 30.4915L123.717 30.2145C123.809 30.5483 123.979 30.8395 124.228 31.0881C124.484 31.3367 124.814 31.5284 125.219 31.6634C125.631 31.7983 126.114 31.8658 126.668 31.8658C127.541 31.8658 128.262 31.6527 128.83 31.2266C129.406 30.8076 129.693 30.0725 129.693 29.0213V26.1449H129.512C129.306 26.6492 128.994 27.1002 128.575 27.4979C128.156 27.8956 127.634 28.2081 127.009 28.4354C126.391 28.6627 125.68 28.7763 124.878 28.7763C123.685 28.7763 122.591 28.4993 121.597 27.9453C120.609 27.3843 119.818 26.5178 119.221 25.3459C118.631 24.1669 118.337 22.6506 118.337 20.7969C118.337 18.8864 118.642 17.3132 119.253 16.0774C119.864 14.8345 120.663 13.9148 121.65 13.3182C122.644 12.7216 123.713 12.4233 124.857 12.4233C125.716 12.4233 126.451 12.5725 127.062 12.8708C127.68 13.162 128.188 13.5384 128.585 14C128.983 14.4617 129.285 14.9411 129.491 15.4382H129.64V12.6364H134.828V29.0639C134.828 30.4489 134.48 31.6172 133.784 32.5689C133.088 33.5206 132.115 34.2415 130.865 34.7316C129.615 35.2287 128.17 35.4773 126.529 35.4773ZM126.689 24.9837C127.321 24.9837 127.861 24.8168 128.308 24.483C128.756 24.1492 129.1 23.6698 129.342 23.0448C129.583 22.4198 129.704 21.6705 129.704 20.7969C129.704 19.9091 129.583 19.1456 129.342 18.5064C129.107 17.8601 128.763 17.3629 128.308 17.0149C127.861 16.6669 127.321 16.4929 126.689 16.4929C126.043 16.4929 125.496 16.6705 125.048 17.0256C124.601 17.3807 124.26 17.8814 124.026 18.5277C123.798 19.1669 123.685 19.9233 123.685 20.7969C123.685 21.6705 123.802 22.4198 124.036 23.0448C124.271 23.6698 124.608 24.1492 125.048 24.483C125.496 24.8168 126.043 24.9837 126.689 24.9837Z" fill="white"/>
<path d="M145.799 29.309C144.087 29.309 142.61 28.9716 141.367 28.2969C140.131 27.6151 139.179 26.6456 138.512 25.3885C137.851 24.1243 137.521 22.6222 137.521 20.8821C137.521 19.1918 137.855 17.7145 138.522 16.4503C139.19 15.179 140.131 14.1918 141.345 13.4887C142.56 12.7784 143.991 12.4233 145.639 12.4233C146.804 12.4233 147.869 12.6044 148.835 12.9666C149.801 13.3289 150.635 13.8651 151.338 14.5753C152.041 15.2855 152.588 16.1627 152.979 17.2067C153.37 18.2436 153.565 19.4333 153.565 20.7756V22.0753H139.343V19.0497H148.718C148.71 18.4958 148.579 18.0022 148.323 17.5689C148.068 17.1357 147.716 16.7983 147.269 16.5568C146.828 16.3083 146.321 16.184 145.745 16.184C145.163 16.184 144.641 16.3154 144.179 16.5781C143.718 16.8338 143.352 17.1854 143.082 17.6328C142.812 18.0732 142.67 18.5739 142.656 19.135V22.2138C142.656 22.8814 142.787 23.4674 143.05 23.9716C143.313 24.4688 143.686 24.8558 144.169 25.1328C144.652 25.4098 145.227 25.5483 145.894 25.5483C146.356 25.5483 146.775 25.4844 147.152 25.3566C147.528 25.2287 147.851 25.0405 148.121 24.7919C148.391 24.5433 148.593 24.2379 148.728 23.8757L153.512 24.0142C153.313 25.0867 152.876 26.0206 152.201 26.8161C151.534 27.6044 150.657 28.2188 149.57 28.6591C148.483 29.0924 147.226 29.309 145.799 29.309Z" fill="white"/>
<path d="M156.226 29V12.6364H161.286V15.6193H161.456C161.755 14.5398 162.241 13.7372 162.916 13.2117C163.591 12.679 164.375 12.4127 165.27 12.4127C165.512 12.4127 165.76 12.4304 166.016 12.4659C166.272 12.4943 166.51 12.5405 166.73 12.6044V17.1321C166.481 17.0469 166.155 16.9794 165.75 16.9297C165.352 16.88 164.997 16.8551 164.684 16.8551C164.066 16.8551 163.509 16.9936 163.012 17.2706C162.522 17.5405 162.135 17.9205 161.851 18.4105C161.574 18.8935 161.435 19.4617 161.435 20.1151V29H156.226Z" fill="white"/>
<path d="M14.7738 35.0759C14.4076 35.5084 13.8896 34.9945 14.0318 34.3959L16.7249 23.0684C16.9375 22.2177 16.605 21.3238 15.8883 20.8187L9.93106 16.9131C9.60801 16.6403 9.56403 16.1585 9.83246 15.8317L23.0827 0.912506C23.4558 0.4911 23.9834 1.03594 23.8041 1.64423L20.5517 12.6691C20.2768 13.5455 20.601 14.499 21.3531 15.0263L27.3104 18.9649C27.6282 19.2336 27.6758 19.7059 27.4179 20.0325L14.7738 35.0759Z" fill="#41CB5A"/>
<path d="M35.8621 26.9649C35.8621 28.1076 34.9358 29.0339 33.7932 29.0339H21.6553L28.478 20.9173C28.8674 20.4451 29.0364 19.829 28.9429 19.2242C28.8681 18.6513 28.5525 18.1375 28.0753 17.8118L22.1153 13.8759C21.8765 13.678 21.7823 13.3546 21.8773 13.0594L23.6732 6.9649H33.7932C34.9358 6.9649 35.8621 7.89123 35.8621 9.03389V26.9649Z" fill="#41CB5A"/>
<path d="M39.9998 21.4477C39.9998 21.8285 39.6911 22.1374 39.3101 22.1374H37.2412V13.8615H39.3102C39.6911 13.8615 39.9999 14.1703 39.9999 14.5512L39.9998 21.4477Z" fill="#41CB5A"/>
<path d="M13.8897 29.0339L13.5587 30.4132H8.96557C8.58471 30.4132 8.27588 30.1044 8.27588 29.7235C8.27588 29.3426 8.58463 29.0338 8.96557 29.0338H13.8897V29.0339Z" fill="#41CB5A"/>
<path d="M6.20684 30.4132H4.13793C3.75707 30.4132 3.44824 30.1044 3.44824 29.7235C3.44824 29.3426 3.75699 29.0338 4.13793 29.0338H6.20691C6.58777 29.0338 6.8966 29.3426 6.8966 29.7235C6.8966 30.1044 6.58777 30.4132 6.20684 30.4132Z" fill="#41CB5A"/>
<path d="M10.1173 18.6891H0.689688C0.308828 18.6891 0 18.3803 0 17.9994C0 17.6185 0.30875 17.3097 0.689688 17.3097H8.51039C8.65914 17.6173 8.88781 17.8793 9.17242 18.0683L10.1173 18.6891Z" fill="#41CB5A"/>
<path d="M17.0898 5.58565L15.8691 6.96495H10.345C9.9641 6.96495 9.65527 6.6562 9.65527 6.27526C9.65527 5.89432 9.96402 5.58557 10.345 5.58557L17.0898 5.58565Z" fill="#41CB5A"/>
<path d="M7.58623 6.96495H5.51732C5.13647 6.96495 4.82764 6.6562 4.82764 6.27526C4.82764 5.89432 5.13639 5.58557 5.51732 5.58557H7.58631C7.96717 5.58557 8.276 5.89432 8.276 6.27526C8.276 6.6562 7.96717 6.96495 7.58623 6.96495Z" fill="#41CB5A"/>
<path d="M13.4139 9.72353L12.1863 11.1028H2.06908C1.68822 11.1028 1.37939 10.7941 1.37939 10.4131C1.37939 10.0322 1.68814 9.72345 2.06908 9.72345H13.4139V9.72353Z" fill="#41CB5A"/>
<path d="M10.3517 13.1718L9.12414 14.5511H7.58617C7.20531 14.5511 6.89648 14.2424 6.89648 13.8614C6.89648 13.4805 7.20523 13.1718 7.58617 13.1718H10.3517V13.1718Z" fill="#41CB5A"/>
<path d="M4.82777 14.5511H3.44848C3.06762 14.5511 2.75879 14.2424 2.75879 13.8614C2.75879 13.4805 3.06754 13.1718 3.44848 13.1718H4.82777C5.20863 13.1718 5.51746 13.4805 5.51746 13.8614C5.51746 14.2424 5.20863 14.5511 4.82777 14.5511Z" fill="#41CB5A"/>
<path d="M14.8757 24.896L14.5447 26.2752H1.37914C0.998281 26.2752 0.689453 25.9665 0.689453 25.5856C0.689453 25.2046 0.998203 24.8959 1.37914 24.8959H14.8757V24.896Z" fill="#41CB5A"/>
<path d="M15.386 22.7511L15.3653 22.8269H9.65502C9.27416 22.8269 8.96533 22.5182 8.96533 22.1373C8.96533 21.7563 9.27408 21.4476 9.65502 21.4476H14.3309L15.1309 21.9717C15.3594 22.1605 15.4587 22.4639 15.386 22.7511Z" fill="#41CB5A"/>
<path d="M6.89652 22.8271H4.13793C3.75707 22.8271 3.44824 22.5183 3.44824 22.1374C3.44824 21.7564 3.75699 21.4477 4.13793 21.4477H6.89652C7.27738 21.4477 7.58621 21.7564 7.58621 22.1374C7.58621 22.5183 7.27738 22.8271 6.89652 22.8271Z" fill="#41CB5A"/>
</svg>
